<svg width="273" height="199" viewBox="0 0 273 199" fill="none" xmlns="http://www.w3.org/2000/svg">
<path opacity="0.76" d="M272.011 125.207C272.176 118.978 269.969 113.309 265.555 108.761C261.536 104.608 256.529 102.334 253.234 101.609C256.067 93.2709 254.091 74.9463 241.573 65.1578C233.766 59.0277 225.366 55.9296 216.669 55.9296C208.631 55.9296 200.264 58.764 193.61 63.6747C195.521 52.3702 192.391 45.0535 183.102 38.2971C180.104 36.1219 174.833 34.6717 169.991 34.6717C165.148 34.6717 161.459 35.9571 159.021 38.363C154.607 27.6847 143.374 20.4339 130.79 20.4339H130C116.164 20.7635 103.514 28.9371 97.2226 41.2633C91.8531 17.3688 64.5774 0 41.6171 0C40.0688 0 38.4876 0.0659211 36.9723 0.230711C20.3697 1.91157 6.7977 9.72259 -1.80008 21.3567C-3.41422 20.6976 -4.96246 20.1373 -6.4119 19.7418C-9.31076 18.9838 -12.2755 18.6212 -15.2732 18.6212C-25.551 18.6212 -35.2029 23.0706 -42.1207 30.9145C-44.8548 24.2241 -53.8479 19.4781 -61.4245 19.1815C-67.7164 18.9508 -73.7117 21.7522 -79.8718 27.8165C-85.3072 14.5344 -105.072 4.5482 -125.957 5.1744C-140.419 5.60285 -154.518 11.4034 -162.786 20.2691C-167.76 25.6083 -170.494 31.8703 -170.791 38.4949C-176.556 35.3968 -181.431 33.9137 -186.01 33.9137C-188.711 33.9137 -190.918 34.4081 -192.763 34.9025C-197.836 36.2867 -202.382 38.2312 -210.123 49.2392C-215.756 47.031 -221.719 45.8774 -227.813 45.8774C-243.295 45.8774 -257.625 53.1611 -264.312 64.3998C-269.023 72.2767 -269.221 81.9005 -264.905 90.7991C-259.371 102.203 -247.216 110.244 -232.359 112.354C-223.86 133.875 -201.394 149.926 -177.478 151.442C-176.094 151.541 -174.711 151.574 -173.36 151.574C-166.311 151.574 -158.965 150.42 -151.586 148.212C-145.129 151.079 -137.223 152.925 -127.934 153.65C-128.626 156.88 -128 159.978 -126.056 162.746C-122.334 168.053 -113.901 171.612 -105.105 171.612C-98.7804 171.612 -93.4438 169.733 -90.0508 166.405C-86.6578 181.269 -70.6152 192.54 -52.102 192.54C-42.9113 192.54 -25.8475 189.574 -12.5391 170.36C-10.1343 175.336 -3.44714 177.907 2.84473 177.907C9.63071 177.907 15.3955 175.27 18.7555 170.689C24.9486 182.851 41.2877 199 65.1704 199C66.3233 199 67.5092 198.967 68.6951 198.868C91.359 197.352 108.39 184.4 112.244 174.743C116.559 180.181 122.884 183.147 130.362 183.147C138.597 183.147 147.129 179.522 152.136 173.919C153.718 172.139 154.838 170.294 155.496 168.382C160.174 176.358 171.045 183.609 184.222 183.609C191.798 183.609 202.9 181.137 213.144 169.503C216.702 170.953 220.523 171.711 224.279 171.711C232.646 171.711 239.959 167.954 242.924 162.087C245.328 157.341 244.703 151.705 241.178 146.004C266.213 144.652 271.879 133.941 272.143 125.009L272.011 125.207ZM-177.346 148.904C-200.537 147.421 -222.246 131.733 -230.152 110.772C-230.316 110.31 -230.745 109.981 -231.239 109.915C-245.568 108.069 -257.263 100.522 -262.5 89.7445C-266.421 81.6698 -266.256 73.0018 -262.006 65.9159C-255.78 55.4682 -242.34 48.7118 -227.813 48.7118C-221.719 48.7118 -215.756 49.8983 -210.156 52.2713C-209.563 52.535 -208.904 52.3042 -208.542 51.7769C-200.932 40.736 -196.914 38.9233 -192.071 37.638C-190.424 37.1765 -188.415 36.7481 -186.043 36.7481C-181.431 36.7481 -176.391 38.4619 -170.165 42.0873C-169.737 42.3509 -169.21 42.318 -168.781 42.0873C-168.353 41.8236 -168.123 41.3622 -168.123 40.8678C-168.386 34.1115 -165.883 27.6517 -160.81 22.2137C-153.002 13.8423 -139.628 8.37132 -125.891 7.97582C-105.072 7.34962 -85.5049 17.5995 -81.7166 30.7827C-81.5848 31.2441 -81.2224 31.6067 -80.7283 31.7055C-80.2671 31.8044 -79.773 31.7055 -79.4436 31.31C-73.3164 24.7844 -67.5517 21.7193 -61.5233 21.95C-53.255 22.2796 -44.9207 28.0142 -44.0642 34.0126C-43.9984 34.5399 -43.603 35.0013 -43.076 35.1332C-42.5489 35.265 -41.9889 35.0672 -41.6595 34.6388C-35.17 26.2016 -25.551 21.3897 -15.2732 21.3897C-12.5061 21.3897 -9.73901 21.7522 -7.07074 22.4114C-5.88483 22.708 -4.66602 23.1365 -3.38129 23.6308C-8.42136 31.31 -11.419 40.4723 -11.8802 50.5575C-16.1297 44.691 -21.7957 41.4281 -27.8899 41.4281C-35.3676 41.4281 -43.2077 46.8662 -44.9537 57.2809C-51.4102 50.4586 -61.8198 46.1741 -72.46 46.1741C-76.2483 46.1741 -79.8059 46.7344 -83.0672 47.8549C-91.8626 50.8541 -99.1098 57.6434 -102.371 65.9488C-104.611 71.6176 -104.809 77.55 -102.997 82.9551C-109.783 79.5275 -117.129 77.7807 -124.903 77.7807C-147.699 77.7807 -169.177 93.1391 -171.845 111.299C-173.36 121.78 -171.186 131.074 -165.454 138.094C-162.753 141.422 -159.294 144.257 -155.144 146.564C-162.687 148.541 -170.066 149.332 -177.28 148.871L-177.346 148.904ZM238.542 143.631C238.048 143.631 237.587 143.927 237.357 144.389C237.126 144.85 237.192 145.377 237.488 145.773C241.606 151.376 242.594 156.649 240.387 161.098C237.884 166.042 231.526 169.239 224.147 169.239C220.424 169.239 216.636 168.415 213.21 166.866C212.65 166.602 212.024 166.767 211.629 167.229C201.845 178.731 191.271 181.137 184.09 181.137C169.595 181.137 158.198 171.777 155.925 163.109C155.76 162.417 155.068 161.988 154.376 162.12C153.685 162.252 153.191 162.911 153.289 163.603C153.718 167.261 151.741 170.36 149.995 172.337C145.548 177.314 137.609 180.675 130.23 180.675C122.851 180.675 116.428 177.281 112.672 171.118C112.376 170.623 111.783 170.36 111.223 170.491C110.663 170.623 110.235 171.085 110.169 171.678C109.378 179.456 92.9073 194.781 68.3328 196.396C42.6053 198.11 24.9156 179.258 20.0073 167.525C19.8097 167.031 19.3485 166.734 18.8214 166.701C18.8214 166.701 18.8214 166.701 18.7885 166.701C18.2943 166.701 17.8332 166.998 17.6026 167.426C15.0661 172.403 9.49893 175.369 2.71295 175.369C-3.54596 175.369 -10.2331 172.568 -10.859 167.196C-10.9249 166.635 -11.3531 166.174 -11.9131 166.042C-12.4732 165.91 -13.0332 166.141 -13.3626 166.635C-26.1769 186.937 -43.2077 189.97 -52.2338 189.97C-70.6482 189.97 -86.3613 178.237 -88.0084 163.241C-88.0743 162.68 -88.4696 162.219 -89.0296 162.087C-89.5896 161.955 -90.1496 162.186 -90.479 162.68C-93.0485 166.734 -98.4509 169.074 -105.237 169.074C-113.077 169.074 -120.785 165.877 -123.981 161.329C-125.76 158.791 -126.089 156.023 -125.035 153.024C-124.903 152.628 -124.936 152.167 -125.167 151.837C-125.397 151.475 -125.793 151.244 -126.221 151.244C-135.939 150.618 -144.075 148.838 -150.631 145.905C-150.729 145.806 -150.861 145.74 -150.96 145.674C-153.2 144.652 -155.177 143.532 -156.922 142.345H-156.988C-159.525 140.599 -161.699 138.621 -163.511 136.38C-168.716 129.92 -170.725 121.384 -169.308 111.661C-166.871 95.0177 -146.183 80.4503 -125.035 80.4503C-116.404 80.4503 -108.333 82.7244 -101.02 87.1737C-100.493 87.5033 -99.8345 87.4374 -99.4062 87.0089C-98.978 86.5805 -98.8462 85.9213 -99.1427 85.394C-102.173 79.7252 -102.47 73.1666 -99.9992 66.9046C-97.0015 59.2913 -90.3802 53.1282 -82.3095 50.3597C-79.3448 49.338 -76.0506 48.8437 -72.5588 48.8437C-61.688 48.8437 -50.6855 53.8533 -45.1513 61.3347C-44.8219 61.7961 -44.2289 61.9939 -43.6689 61.8291C-43.1089 61.6643 -42.7466 61.1699 -42.7136 60.6096C-42.2195 49.7665 -34.9394 44.0977 -27.9887 44.0977C-21.631 44.0977 -15.7673 48.3822 -11.8473 55.8967C-11.5508 56.4569 -10.9249 56.7206 -10.299 56.5888C-9.70609 56.424 -9.27783 55.8637 -9.31076 55.2375C-9.60724 46.6025 -7.96014 38.5937 -4.73187 31.5407C-4.73187 31.5407 -4.73187 31.5407 -4.69891 31.5407C-3.44714 28.8382 -1.99771 26.2675 -0.28476 23.8286C-0.251801 23.7627 -0.251801 23.6968 -0.218842 23.6638C7.95068 12.2274 21.0615 4.58116 37.17 2.93326C38.5864 2.80143 40.0688 2.70256 41.5182 2.70256C64.7751 2.70256 92.6766 21.2908 95.2132 46.1411C95.2791 46.7673 95.7732 47.2617 96.399 47.3276C97.025 47.3935 97.6179 47.031 97.8156 46.4377C102.757 32.8261 115.703 23.466 130 23.1365H130.724C143.044 23.1365 153.948 30.6838 157.242 41.527C157.407 42.0543 157.835 42.4169 158.395 42.4828C158.955 42.5487 159.449 42.285 159.713 41.8236C161.887 37.9675 167.059 37.3743 169.958 37.3743C174.207 37.3743 178.951 38.6597 181.487 40.4723C190.843 47.2617 193.182 54.3806 190.184 66.7728C190.052 67.3331 190.283 67.9593 190.81 68.2559C191.304 68.5525 191.963 68.4866 192.391 68.0911C194.862 65.8829 203.855 58.6322 216.636 58.6322C224.707 58.6322 232.547 61.5325 239.86 67.3001C252.477 77.1875 253.136 96.336 250.039 102.104C249.808 102.532 249.841 103.026 250.072 103.422C250.303 103.817 250.764 104.081 251.225 104.081C253.63 104.081 259.197 106.157 263.512 110.64C266.213 113.441 269.409 118.187 269.211 125.108C268.882 136.808 258.538 143.037 238.444 143.598L238.542 143.631Z" fill="#12196E"/>
</svg>
