<svg width="373" height="287" viewBox="0 0 373 287" fill="none" xmlns="http://www.w3.org/2000/svg">
<path d="M105.658 153.833C105.346 154.2 105.15 154.497 104.893 154.731C103.432 156.028 101.784 156.473 99.9331 155.692C98.2226 154.973 96.8792 152.912 96.9026 151.139C96.9105 150.381 97.301 149.826 97.8711 149.748C98.4335 149.67 98.8084 149.99 99.1052 150.748C99.3707 151.412 99.6597 152.068 99.9799 152.701C100.503 153.747 101.472 154.099 102.487 153.482C103.042 153.146 103.596 152.63 103.893 152.06C104.635 150.6 104.846 148.975 105.041 147.358C104.752 147.202 104.471 147.062 104.205 146.921C101.581 145.539 100.738 142.125 102.518 139.751C103.643 138.259 105.049 138.15 106.939 138.025C108.985 137.884 110.79 138.556 112.508 139.501C113.929 140.282 114.562 142.391 113.968 144.18C113.234 146.39 111.477 147.319 109.352 147.733C108.907 147.819 108.454 147.835 107.9 147.897C107.595 149.475 107.431 151.037 107.884 152.599C108.009 153.021 108.259 153.435 108.556 153.771C109.087 154.38 109.782 154.606 110.579 154.341C111.61 153.997 112.43 153.411 112.851 152.365C112.969 152.068 113.117 151.763 113.304 151.506C113.578 151.131 113.961 150.975 114.421 151.146C114.867 151.31 115.109 151.646 115.093 152.115C115.085 152.435 115.023 152.763 114.913 153.06C114.179 155.013 112.711 156.215 110.727 156.645C108.962 157.028 107.462 156.395 106.369 154.911C106.158 154.622 105.978 154.317 105.658 153.833ZM107.962 140.431C106.595 140.392 105.088 139.61 104.158 140.977C103.229 142.336 103.83 144.18 105.307 144.89C106.541 145.484 107.876 145.664 109.227 145.445C109.876 145.335 110.54 145.031 111.086 144.656C111.875 144.117 112.156 143.297 111.914 142.336C111.688 141.422 111.032 140.829 110.094 140.696C109.391 140.595 108.681 140.516 107.97 140.431H107.962Z" fill="#494E90"/>
<path d="M92.0914 133.799C92.0446 133.323 92.068 132.847 92.1461 132.37C92.2086 132.003 92.2789 131.613 92.3882 131.238C92.6303 130.402 93.3098 129.91 94.0284 129.965C94.7157 130.011 95.2156 130.535 95.3952 131.409C95.6061 132.464 95.4499 133.487 95.0828 134.471C94.7782 135.283 94.1299 135.697 93.4582 135.619C92.7631 135.533 92.2711 134.987 92.1383 134.135C92.1227 134.026 92.107 133.924 92.0992 133.807L92.0914 133.799Z" fill="#494E90"/>
<path d="M123.786 137.704C123.661 136.986 123.716 136.244 123.919 135.541C123.958 135.393 124.013 135.252 124.067 135.111C124.341 134.432 125.005 134.065 125.606 134.158C126.286 134.26 126.59 134.76 126.754 135.346C127.02 136.283 126.91 137.22 126.575 138.118C126.301 138.845 125.731 139.22 125.098 139.165C124.505 139.11 124.013 138.673 123.833 137.978C123.81 137.892 123.794 137.814 123.778 137.728L123.786 137.704Z" fill="#494E90"/>
<path d="M302.254 142.821C301.629 142.555 300.973 142.336 300.309 142.188C296.74 141.391 293.147 141.384 289.554 142.008C284.649 142.852 280.533 145.062 277.471 149.061C277.378 149.186 277.331 149.35 277.276 149.483C277.057 149.303 276.987 149.272 276.971 149.225C276.05 146.429 274.339 144.086 272.691 141.712C270.77 138.947 268.357 136.697 265.498 134.932C264.366 134.229 263.202 133.581 262.046 132.917C257.289 130.16 252.213 129.535 246.87 130.582C246.433 130.668 245.996 130.722 245.543 130.801C245.457 130.527 245.394 130.348 245.347 130.16C244.847 128.332 244.113 126.599 243.145 124.966C239.497 118.858 233.554 116.672 227.048 117.937C222.924 118.733 219.393 120.795 216.199 123.451C214.676 124.716 213.247 126.083 211.716 127.458C208.81 121.045 203.929 116.867 197.126 114.985C190.167 113.055 184.083 115.258 178.225 119.21C178.412 118.702 178.506 118.359 178.67 118.054C179.521 116.476 179.076 115.211 177.826 114.063C176.147 112.509 174.374 111.079 172.383 109.962C169.462 108.33 166.337 107.416 162.971 107.44C162.331 107.44 161.69 107.549 160.987 107.612C160.987 107.244 160.972 106.924 160.987 106.612C161.143 104.12 160.675 101.754 159.613 99.5043C158.871 97.9344 157.816 96.6145 156.293 95.7632C155.083 95.0915 153.794 94.5604 152.497 93.9511C152.536 93.8574 152.638 93.6231 152.732 93.381C153.442 91.6002 153.825 89.7648 153.669 87.8512C153.161 81.5951 149.069 76.6355 143.016 74.9407C139.602 73.9878 136.385 74.4252 133.409 76.409C133.26 76.5027 133.089 76.5652 132.862 76.6746C132.761 73.5582 131.566 70.9574 129.558 68.7548C126.09 64.959 121.74 63.4828 116.687 64.2717C110.993 65.1621 106.83 68.1144 104.643 73.5817C104.542 73.8394 104.409 74.0815 104.268 74.3783C101.417 70.1685 95.466 68.0285 90.7641 70.356C88.421 71.5119 86.5309 73.1365 85.2812 75.4483C83.6957 78.3694 83.6489 81.4077 84.7345 84.7036C81.7041 84.2116 78.8845 84.36 76.3852 86.1017C73.9015 87.8356 72.3394 90.21 71.6833 93.1545C71.1835 95.4117 71.4647 97.6142 72.355 99.7464C73.6047 102.722 76.0259 104.362 78.8767 105.448C78.619 106.581 78.3847 107.635 78.1347 108.736C77.6114 108.447 77.1038 108.166 76.5961 107.885C75.3308 107.182 73.9796 106.776 72.5347 106.612C70.6133 106.393 68.6998 106.448 66.794 106.682C64.1854 107.002 61.6939 107.721 59.4445 109.111C58.8743 109.463 58.3432 109.923 57.8902 110.423C57.406 110.954 57.2341 111.626 57.5153 112.337C58.8509 115.641 60.577 118.671 63.4903 120.866C68.403 124.56 73.6359 125.06 79.1501 122.326C79.5718 122.115 79.9545 121.842 80.5091 121.498C80.4154 122.568 80.2982 123.467 80.2592 124.373C80.0483 128.668 80.0327 132.941 80.6106 137.221C81.2276 141.798 82.532 146.109 84.797 150.123C88.7256 157.082 94.3881 162.019 101.964 164.682C102.433 164.846 102.909 165.002 103.495 165.205C102.55 165.822 101.722 166.33 100.933 166.892C94.9817 171.149 92.4043 176.96 93.1541 184.208C93.4743 187.356 94.6849 190.113 97.2624 192.128C97.3873 192.229 97.5435 192.292 97.6685 192.362C97.5513 192.62 97.5123 192.745 97.442 192.846C94.6225 197.079 93.9508 201.773 94.7318 206.686C95.5363 211.747 97.8794 216.074 101.824 219.355C106.752 223.439 112.43 225.611 118.928 225.306C119.295 225.291 119.67 225.306 120.147 225.306C119.866 226.064 119.647 226.673 119.42 227.274C118.639 229.352 118.327 231.492 118.608 233.695C119.108 237.678 120.545 241.286 122.849 244.582C125.591 248.511 129.379 250.838 133.971 251.963C134.534 252.104 135.104 252.166 135.705 252.268C135.908 254.15 136.064 255.962 136.299 257.758C137.002 263.241 137.611 268.732 138.509 274.184C139.032 277.378 139.993 280.502 140.844 283.642C141.079 284.501 141.516 285.352 142.031 286.079C142.961 287.375 144.304 287.438 145.46 286.337C146.28 285.563 146.835 284.618 147.218 283.556C147.327 283.244 147.468 282.947 147.632 282.541C147.944 283.126 148.131 283.634 148.444 284.032C149.108 284.868 149.748 285.759 150.553 286.43C151.732 287.414 152.989 287.211 153.81 285.915C154.372 285.024 154.794 284.009 155.106 282.994C155.731 280.955 155.887 278.831 155.856 276.714C155.77 271.676 155.59 266.631 155.458 261.593C155.411 259.937 155.411 258.282 155.34 256.634C155.278 255.282 155.137 253.931 155.02 252.502C157.683 252.9 160.3 253.056 162.87 252.221C165.478 251.369 167.361 249.612 168.86 247.23C169.009 247.519 169.071 247.628 169.118 247.745C170.414 250.862 172.312 253.58 174.804 255.814C175.89 256.782 176.327 257.665 176.202 259.18C175.811 263.749 175.827 268.341 176.116 272.934C176.319 276.16 176.796 279.331 177.545 282.47C177.811 283.587 178.256 284.642 179.021 285.516C179.904 286.532 181.044 286.711 182.153 285.946C182.575 285.657 182.934 285.259 183.27 284.868C183.63 284.454 183.919 283.993 184.293 283.478C184.465 283.736 184.575 283.923 184.7 284.103C185.145 284.743 185.512 285.446 186.043 286.001C187.636 287.664 189.8 287.25 190.659 285.118C190.971 284.345 191.159 283.494 191.245 282.666C191.463 280.666 191.659 278.651 191.745 276.644C191.877 273.723 191.987 270.794 191.955 267.865C191.94 266.147 191.713 264.436 192.018 262.718C192.182 261.804 192.291 261.57 193.182 261.289C193.494 261.195 193.807 261.125 194.119 261.015C199.516 259.219 203.273 255.821 204.788 250.198C204.811 250.112 204.889 250.042 204.952 249.956C205.046 250.026 205.132 250.073 205.194 250.151C207.483 253.049 210.552 254.751 214.004 255.821C217.8 257.001 221.455 256.727 224.861 254.517C224.986 254.439 225.134 254.376 225.415 254.236C225.196 255.361 224.97 256.329 224.814 257.321C224.158 261.492 223.4 265.655 222.908 269.849C222.525 273.137 222.4 276.464 222.322 279.776C222.291 281.252 222.463 282.783 222.861 284.204C223.564 286.711 225.673 287.086 227.415 285.149C227.797 284.72 228.157 284.267 228.602 283.736C228.836 284.118 228.992 284.439 229.211 284.704C229.719 285.329 230.195 286.008 230.804 286.524C231.679 287.266 232.773 287.235 233.679 286.524C234.061 286.227 234.436 285.876 234.67 285.47C235.217 284.509 235.748 283.533 236.147 282.509C237.849 278.081 238.646 273.426 239.482 268.787C240.286 264.342 240.786 259.844 242.028 255.486C242.106 255.22 242.2 254.853 242.403 254.759C242.965 254.486 243.582 254.322 244.293 254.072C244.262 254.658 244.262 255.072 244.223 255.486C243.793 260.211 243.246 264.936 242.965 269.669C242.723 273.754 242.778 277.862 242.731 281.963C242.723 282.642 242.801 283.33 242.903 284.001C243.199 286.063 244.996 286.914 246.808 285.868C247.659 285.376 248.198 284.61 248.682 283.79C248.854 283.501 249.026 283.212 249.229 282.861C249.627 283.439 249.909 283.915 250.26 284.337C250.627 284.79 251.025 285.227 251.471 285.602C253.47 287.321 255.305 286.774 256.032 284.267C256.04 284.236 256.047 284.204 256.055 284.173C256.524 281.58 257.102 279.01 257.422 276.402C257.82 273.176 258.016 269.927 258.281 266.686C258.601 262.702 258.906 258.711 259.211 254.72C259.398 252.26 259.593 249.792 259.765 247.331C259.812 246.691 259.765 246.051 259.765 245.254C265.764 246.738 271.129 245.894 275.448 241.544C279.713 237.248 281.213 232.015 279.705 226.017C280.088 225.892 280.416 225.783 280.752 225.673C282.486 225.111 283.938 224.111 284.837 222.526C286.844 218.988 287.312 215.309 285.532 211.513C285.438 211.31 285.352 211.107 285.251 210.88C292.912 211.583 296.123 203.781 291.491 198.86C294.475 198.556 297.06 197.501 299.215 195.447C300.465 194.252 301.512 192.94 302.332 191.448C303.925 189.011 304.316 186.153 304.409 184.911C304.433 184.762 304.441 184.567 304.441 184.302C304.441 184.286 304.441 184.278 304.441 184.278C304.441 183.208 304.425 182.13 304.284 181.076C303.917 178.358 302.761 176.007 300.731 173.875C299.934 172.969 298.052 171.633 298.052 171.633C296.99 170.813 295.904 170.266 294.74 170.001C293.561 169.727 292.342 169.634 291.061 169.446C292.952 166.635 294.045 163.737 292.178 160.55C293.194 159.152 294.287 157.965 295.599 156.973C297.114 155.833 298.723 154.88 300.457 154.091C301.66 153.544 302.816 152.857 303.933 152.139C304.737 151.623 305.284 150.834 305.565 149.889C306.378 147.116 304.925 143.953 302.277 142.821H302.254ZM243.824 133.995C243.707 134.651 243.707 135.354 243.449 135.948C242.715 137.635 241.52 138.939 239.849 139.775C239.107 140.15 238.31 140.306 237.482 140.181C236.67 140.056 236.373 139.618 236.732 138.884C237.099 138.142 237.513 137.353 238.115 136.799C239.669 135.37 241.598 134.581 243.543 133.847C243.637 133.893 243.73 133.948 243.824 133.995ZM159.956 110.626C160.191 110.072 160.558 109.923 161.073 109.884C164.705 109.619 168.165 110.236 171.274 112.165C172.976 113.227 174.523 114.539 176.085 115.805C176.905 116.468 176.858 116.531 176.35 117.414C175.858 118.257 175.397 119.124 174.859 119.928C171.461 124.982 166.611 127.122 160.651 126.7C157.871 126.505 155.301 125.365 152.833 124.099C151.623 123.474 150.49 122.701 149.358 121.944C148.334 121.264 148.358 121.233 148.514 119.968C149.865 119.538 151.177 119.249 152.372 118.71C153.357 118.265 154.2 118.023 155.301 118.374C156.27 118.679 157.355 118.687 158.386 118.679C160.753 118.663 163.127 118.577 165.455 118.062C165.619 118.023 165.783 117.976 165.978 117.913C166.314 117.804 166.345 117.32 166.009 117.203C165.994 117.203 165.97 117.187 165.955 117.187C164.775 116.976 163.604 116.734 162.409 116.625C160.37 116.445 158.324 116.359 156.137 116.226C156.364 115.93 156.496 115.726 156.66 115.547C158.027 114.086 159.175 112.477 159.956 110.634V110.626ZM77.7364 102.168C74.6201 100.332 73.5813 97.4658 74.0655 94.0058C74.5185 90.7411 77.135 87.8434 80.2123 87.1405C81.8525 86.7656 83.5083 87.0155 85.1563 87.2811C85.703 87.367 86.2497 87.4607 86.7964 87.5232C87.804 87.6325 88.3195 86.9296 87.8821 85.9846C87.226 84.5631 86.7027 83.1181 86.4606 81.5483C85.5155 75.4718 91.9513 69.8014 98.0903 72.3711C99.8632 73.113 101.386 74.1362 102.433 75.8389C103.323 77.2916 103.394 77.2525 104.37 77.7836C105.284 77.2682 105.916 76.5496 106.346 75.6436C106.525 75.2609 106.689 74.8704 106.838 74.472C108.712 69.5984 112.407 67.1615 117.444 66.4352C121.396 65.865 126.668 67.4661 129.355 72.6757C130.472 74.8391 130.769 77.112 129.964 79.4785C129.824 79.8846 129.699 80.3923 129.832 80.7672C130.152 81.6654 131.128 81.7826 131.87 81.0718C132.479 80.486 133.073 79.8846 133.674 79.2911C135.932 77.0729 138.657 76.4403 141.688 77.0573C146.944 78.1195 150.779 82.5089 151.185 87.8356C151.302 89.3508 151.084 90.8348 150.498 92.2329C150.264 92.7874 149.834 93.256 149.459 93.7403C149.139 94.1542 148.928 94.5604 149.139 95.0836C149.334 95.5757 149.764 95.7475 150.232 95.7553C156.988 95.9194 160.198 103.089 158.66 108.088C157.324 112.423 154.606 115.602 150.162 117.078C148.639 117.585 147.069 117.343 145.515 117.39C145.031 117.406 144.539 117.351 144.054 117.343C143.008 117.32 142.336 117.835 141.977 118.796C141.727 119.468 141.532 120.155 141.266 120.819C139.649 124.724 135.846 126.778 131.706 125.95C130.027 125.614 128.598 124.794 127.559 123.404C126.411 121.865 125.7 120.139 125.427 118.234C125.317 117.46 125.005 117.054 124.427 116.968C123.833 116.882 123.505 117.093 123.146 117.781C122.177 119.632 120.826 121.194 119.108 122.334C112.36 126.786 105.674 124.505 101.878 119.671C100.558 117.992 99.8554 116.047 99.8945 113.875C99.9023 113.321 99.8476 112.813 99.2931 112.548C98.7385 112.282 98.2933 112.548 97.8794 112.907C97.2077 113.477 96.5204 114.024 95.8565 114.586C92.0138 117.859 86.9605 117.937 83.2662 114.5C81.376 112.743 80.4154 110.384 80.7903 107.697C80.884 107.018 81.2433 106.346 81.5869 105.737C82.2117 104.612 81.9228 103.847 80.6965 103.417C79.689 103.066 78.658 102.714 77.7442 102.183L77.7364 102.168ZM80.306 118.726C76.5336 122.287 70.5743 122.826 66.1145 120.053C63.1232 118.195 61.1549 115.523 59.7647 112.352C59.5616 111.892 59.6788 111.603 60.0459 111.36C60.4208 111.111 60.8035 110.861 61.2096 110.65C64.4119 108.963 67.8406 108.486 71.4178 108.752C73.6906 108.924 75.8229 109.541 77.8536 110.548C78.1503 110.697 78.5018 110.947 78.5955 111.228C79.0564 112.634 79.7124 113.93 80.5872 115.117C80.6887 115.258 80.5872 115.469 80.4075 115.484C76.682 115.922 73.0502 115.07 69.3715 114.774C68.7857 114.727 68.5514 115.508 69.0591 115.805C69.0591 115.805 69.0669 115.805 69.0747 115.805C70.4962 116.64 72.0661 117.039 73.6438 117.437C75.94 118.023 78.2519 118.218 80.6028 117.898C80.6887 117.89 80.7824 117.929 80.9933 117.984C80.7278 118.273 80.5325 118.515 80.306 118.726ZM103.019 162.214C98.5589 160.628 94.6225 158.16 91.4905 154.638C87.2885 149.92 84.0472 144.633 82.9694 138.259C82.8053 137.299 82.696 136.322 82.6882 135.354C82.6491 131.839 82.5866 128.325 82.6882 124.818C82.7507 122.522 83.0475 120.225 83.766 117.867C86.0388 118.983 88.3663 119.671 90.9047 119.311C93.3806 118.952 95.5597 117.937 97.5904 116.406C99.4961 122.108 103.464 125.607 109.204 126.692C115.008 127.794 119.866 125.763 123.615 121.014C123.802 121.444 123.982 121.881 124.177 122.311C125.52 125.411 127.778 127.465 131.113 128.176C136.314 129.293 141.368 126.583 143.398 121.655C143.445 121.537 143.5 121.412 143.539 121.295C143.961 120.176 144.856 119.72 146.226 119.928C145.952 121.842 145.718 123.701 145.413 125.56C144.125 133.495 141.243 140.845 136.978 147.64C134.596 151.428 131.737 154.833 128.27 157.707C124.122 161.144 119.413 163.167 114.031 163.713C110.22 164.096 106.588 163.495 103.026 162.23L103.019 162.214ZM153.06 281.478C152.864 282.447 152.63 283.4 152.091 284.337C152.021 284.462 151.857 284.501 151.732 284.423C151.576 284.314 151.435 284.22 151.341 284.087C150.842 283.33 150.365 282.556 149.912 281.775C149.623 281.268 149.412 280.713 149.131 280.205C148.78 279.581 148.272 279.112 147.507 279.135C146.71 279.167 146.194 279.674 145.89 280.369C145.632 280.963 145.468 281.596 145.21 282.197C144.929 282.853 144.601 283.478 144.281 284.118C143.945 284.118 143.89 284.111 143.555 284.103C143.414 283.814 143.273 283.517 143.195 283.212C142.399 280.034 141.422 276.878 140.883 273.66C140.048 268.599 139.501 263.491 138.853 258.399C138.704 257.212 138.611 256.009 138.556 254.814C138.517 254.041 138.564 253.26 138.657 252.494C138.681 252.299 138.985 252.041 139.204 251.971C139.821 251.776 140.477 251.69 141.094 251.502C143.008 250.924 144.773 250.026 146.39 248.854C146.757 248.589 147.116 248.316 147.53 248.003C147.975 248.409 148.374 248.831 148.834 249.175C149.748 249.854 150.67 250.518 151.63 251.127C152.06 251.401 152.287 251.674 152.326 252.19C152.474 254.166 152.724 256.134 152.825 258.118C153.083 262.983 153.31 267.857 153.481 272.731C153.583 275.652 153.622 278.589 153.044 281.478H153.06ZM149.686 234.983C149.865 235.421 150.053 235.756 150.139 236.108C150.443 237.444 150.232 238.756 149.881 240.052C149.522 241.372 148.725 242.903 148.022 243.754C146.796 241.349 147.608 236.662 149.686 234.983ZM189.722 263.655C189.683 264.983 189.55 266.318 189.597 267.646C189.745 272.27 189.503 276.87 189.159 281.478C189.105 282.252 188.956 283.025 188.8 283.783C188.722 284.15 188.527 284.485 188.386 284.837C188.23 284.86 188.191 284.868 188.042 284.892C187.761 284.54 187.441 284.212 187.215 283.829C186.863 283.244 186.613 282.603 186.262 282.017C185.41 280.596 184.169 280.408 182.95 281.549C182.481 281.986 182.114 282.541 181.7 283.033C181.7 283.033 181.7 283.033 181.7 283.041C181.263 283.548 180.427 283.415 180.185 282.791C180.076 282.509 180.006 282.22 179.951 281.931C179.521 279.666 179.029 277.409 178.779 275.121C178.256 270.263 178.326 265.389 178.576 260.515C178.6 260 178.678 259.484 178.74 258.852C182.216 260.648 185.754 261.898 189.745 261.531C189.745 262.304 189.761 262.976 189.745 263.647L189.722 263.655ZM238.763 259.047C237.849 264.225 236.99 269.419 236.022 274.59C235.522 277.276 234.741 279.893 233.694 282.424C233.405 283.119 233.14 283.845 232.53 284.439C232.335 284.626 232.023 284.595 231.867 284.376C231.632 284.056 231.406 283.736 231.203 283.408C230.914 282.939 230.687 282.424 230.383 281.971C229.539 280.705 228.344 280.58 227.282 281.658C226.759 282.189 226.306 282.791 225.813 283.345C225.587 283.595 225.181 283.494 225.072 283.165C224.853 282.47 224.845 281.775 224.814 281.088C224.689 277.769 224.814 274.449 225.243 271.161C225.798 266.85 226.477 262.546 227.133 258.25C227.352 256.805 227.696 255.384 227.938 253.939C228.063 253.205 228.078 252.455 228.157 251.713C228.196 251.385 228.282 251.057 228.383 250.588C228.899 250.979 229.273 251.268 229.664 251.549C231.726 253.056 233.944 254.259 236.459 254.798C237.428 255.009 238.443 255.001 239.497 255.095C239.24 256.47 238.99 257.743 238.771 259.016L238.763 259.047ZM226.805 241.856C227.532 243.051 227.579 244.168 227.602 245.348C226.923 244.629 226.68 243.637 226.805 241.856ZM257.297 244.731C257.274 245.09 257.282 245.449 257.258 245.801C257.086 248.589 256.938 251.377 256.743 254.158C256.461 258.149 256.141 262.132 255.837 266.115C255.618 269.037 255.493 271.965 255.149 274.863C254.813 277.729 254.251 280.572 253.782 283.423C253.712 283.806 253.228 283.947 252.947 283.681C251.908 282.712 251.213 281.65 250.939 280.291C250.846 279.815 250.768 279.307 250.541 278.893C250.377 278.604 249.994 278.386 249.659 278.268C249.252 278.128 249.026 278.479 248.839 278.799C248.089 280.096 247.355 281.393 246.574 282.666C246.449 282.869 246.308 283.056 246.152 283.236C245.824 283.634 245.16 283.423 245.144 282.908C245.144 282.908 245.144 282.9 245.144 282.892C245.058 278.276 245.05 273.66 245.449 269.052C245.683 266.334 245.855 263.608 246.113 260.89C246.277 259.18 246.55 257.477 246.745 255.767C246.862 254.736 246.925 253.697 246.987 252.666C247.011 252.291 247.159 252.049 247.44 251.768C248.55 250.682 249.674 249.589 250.643 248.378C251.213 247.66 251.572 246.746 251.9 245.879C252.384 244.574 252.752 243.231 253.181 241.903C253.22 241.794 253.329 241.7 253.439 241.56C253.767 241.747 254.071 241.872 254.306 242.153C254.806 242.755 255.423 243.254 256.149 243.551C257.016 243.903 257.344 244.153 257.305 244.715L257.297 244.731ZM295.302 172.485C295.623 172.633 295.935 172.797 296.279 172.969C298.302 174.273 299.34 175.382 299.848 176.062C299.895 176.202 299.981 176.343 300.09 176.499C301.754 178.733 302.355 181.224 302.238 183.88C301.801 187.73 300.707 189.863 300.106 190.792C299.957 190.972 299.817 191.159 299.684 191.354C297.435 194.713 294.311 196.673 290.062 196.377C289.031 196.306 287.976 196.4 286.945 196.509C286.422 196.564 285.758 196.658 285.672 197.353C285.579 198.071 286.219 198.235 286.719 198.446C287.906 198.938 288.968 199.626 289.866 200.539C291.585 202.273 291.717 204.905 290.171 206.741C288.984 208.155 287.375 208.451 285.657 208.28C284.055 208.123 282.564 207.584 281.15 206.803C280.447 206.413 279.799 206.561 279.479 207.046C279.197 207.467 279.307 208.123 279.775 208.654C279.924 208.826 280.111 208.959 280.283 209.115C280.689 209.49 281.111 209.849 281.509 210.232C284.696 213.348 284.704 217.355 282.931 220.925C282.189 222.424 280.885 223.236 279.276 223.588C278.932 223.666 278.627 223.697 278.315 223.361C277.206 222.182 276.065 221.026 274.894 219.901C273.949 218.995 272.879 218.269 271.582 217.918C270.333 217.582 269.231 217.793 268.419 218.831C267.615 219.855 267.786 220.971 268.349 222.041C268.864 223.018 269.669 223.728 270.59 224.306C272.441 225.462 274.433 226.22 276.643 226.228C277.159 226.228 277.44 226.415 277.542 226.899C277.706 227.657 277.971 228.415 278.01 229.188C278.26 234.312 276.331 238.467 272.215 241.513C270.333 242.911 268.107 243.746 265.787 243.864C263.139 243.989 260.546 243.442 258.156 242.184C256.852 241.497 255.649 240.669 254.806 239.427C254.517 238.998 254.314 238.506 254.009 238.092C253.4 237.272 252.33 237.397 251.892 238.318C251.799 238.521 251.752 238.748 251.689 238.967C251.455 239.779 251.275 240.607 250.986 241.396C250.494 242.77 249.909 244.106 249.424 245.48C247.651 250.542 241.981 253.9 236.084 252.385C233.788 251.799 231.874 250.409 230.047 248.925C229.586 248.55 229.43 248.183 229.586 247.589C229.984 246.058 229.984 244.496 229.687 242.942C229.492 241.911 229.141 240.927 228.43 240.122C227.258 238.779 225.548 238.967 224.775 240.575C224.517 241.114 224.384 241.755 224.369 242.356C224.322 244.52 225.087 246.441 226.298 248.183C226.696 248.753 226.735 249.19 226.36 249.76C224.564 252.51 222.025 254.041 218.769 254.244C215.558 254.447 212.676 253.314 210.029 251.635C207.936 250.307 206.194 248.612 205.546 246.082C205.514 245.957 205.475 245.808 205.389 245.73C205.053 245.441 204.718 245.004 204.351 244.965C204.108 244.941 203.741 245.473 203.546 245.816C203.312 246.238 203.187 246.722 203.062 247.191C202.843 248.003 202.648 248.831 202.445 249.651C202.101 251.057 201.578 252.385 200.719 253.556C197.72 257.672 193.682 259.609 188.566 259.43C185.004 259.305 181.763 258.219 178.865 256.259C175.069 253.689 172.445 250.135 170.906 245.808C170.774 245.441 170.664 245.059 170.453 244.731C169.985 244.004 169.157 243.934 168.54 244.535C168.399 244.668 168.298 244.848 168.165 244.981C166.993 246.152 165.869 247.386 164.627 248.464C162.87 249.987 160.714 250.456 158.441 250.44C156.621 250.424 154.809 250.385 153.13 249.495C151.615 248.698 150.318 247.667 149.28 246.402C149.303 246.261 149.303 246.222 149.319 246.199C149.506 245.933 149.693 245.668 149.881 245.402C151.748 242.63 152.935 239.646 152.568 236.241C152.482 235.46 152.216 234.632 151.81 233.96C150.888 232.414 149.264 232.187 147.913 233.359C147.382 233.82 146.897 234.39 146.569 235.007C145.413 237.147 144.874 239.443 145.226 241.872C145.421 243.247 145.78 244.598 146.077 246.027C145.007 247.246 141.805 249.026 139.704 249.37C137.751 249.682 135.783 250.526 133.807 249.44C126.637 247.363 121.318 240.56 120.943 233.101C120.811 230.477 121.607 228.102 122.638 225.767C123.482 223.838 122.716 223.432 121.373 223.197C120.225 222.994 119.053 222.94 117.89 222.822C116.273 222.658 114.625 222.651 113.055 222.307C108.337 221.268 104.674 218.441 101.339 215.114C99.9101 213.692 98.8479 211.989 98.1215 210.146C96.5907 206.272 96.4657 202.281 97.6138 198.282C98.0825 196.658 98.8479 195.158 99.9023 193.791C100.269 193.924 100.574 194.026 100.879 194.135C103.979 195.189 106.908 194.83 109.634 193.01C110.884 192.182 111.524 190.964 111.587 189.472C111.704 186.973 109.946 185.426 107.471 185.84C105.198 186.215 103.245 187.301 101.441 188.675C100.722 189.222 100.043 189.831 99.3165 190.433C97.7076 189.417 96.7078 187.973 96.208 186.192C94.8724 181.427 95.5831 176.96 98.4183 172.906C100.675 169.673 103.893 167.673 107.517 166.299C107.986 166.119 108.548 166.072 109.048 166.135C111.001 166.369 112.946 166.346 114.89 166.103C118.304 165.682 121.639 164.916 124.646 163.206C129.113 160.667 132.862 157.254 136.01 153.216C141.938 145.617 145.687 137.01 147.538 127.559C147.756 126.435 147.967 125.302 148.202 124.099C148.475 124.279 148.631 124.388 148.795 124.498C151.709 126.536 154.88 127.973 158.363 128.731C163.135 129.77 167.61 129.067 171.742 126.435C173.273 125.458 174.773 124.412 176.272 123.381C177.639 122.436 178.951 121.42 180.341 120.514C183.458 118.468 186.808 116.937 190.573 116.742C196.689 116.422 201.82 118.694 206.022 123.099C207.865 125.029 209.138 127.333 210.247 129.738C210.919 131.191 212.044 131.261 213.012 130.004C216.019 126.13 219.745 123.146 224.228 121.139C226.368 120.178 228.61 119.71 230.968 119.843C233.921 120.007 236.592 120.889 238.755 122.99C240.927 125.099 242.403 127.637 243.246 130.535C243.332 130.832 243.34 131.144 243.387 131.464C242.949 131.628 242.598 131.722 242.286 131.878C240.716 132.652 239.107 133.378 237.592 134.253C236.045 135.143 235.022 136.533 234.436 138.22C233.671 140.423 234.936 142.329 237.256 142.516C238.529 142.618 239.716 142.352 240.833 141.774C242.715 140.798 244.09 139.314 245.129 137.502C245.675 136.549 245.941 135.526 245.933 134.425C245.933 134.011 245.933 133.597 245.933 133.12C246.925 132.941 247.815 132.745 248.714 132.628C252.095 132.199 255.423 132.378 258.57 133.776C261.312 134.995 263.866 136.557 266.256 138.384C268.856 140.376 270.7 143.008 272.551 145.656C274.535 148.507 275.495 151.646 275.573 155.075C275.612 156.926 275.581 158.785 275.573 160.636C275.573 161.152 275.605 161.683 275.511 162.183C275.417 162.706 275.394 163.167 275.901 163.464C276.394 163.745 276.815 163.542 277.237 163.221C278.143 162.534 279.072 161.878 280.002 161.23C280.002 161.23 285.141 158.277 288.101 159.988C288.453 160.191 288.703 160.332 288.953 160.48C290.483 161.378 291.218 162.878 290.788 164.612C290.546 165.572 290.124 166.51 289.656 167.384C289.226 168.181 288.617 168.876 288.093 169.626C287.726 170.149 287.437 170.696 287.797 171.336C288.133 171.93 288.703 172.032 289.32 171.993C289.835 171.961 290.359 171.907 290.874 171.852C292.428 171.672 293.928 171.852 295.349 172.516L295.302 172.485ZM275.519 223.525C273.644 223.721 270.622 221.815 270.301 220.128C272.809 220.214 273.98 222.08 275.519 223.525ZM101.8 191.636C103.511 190.097 105.323 188.84 107.572 188.34C108.041 188.238 108.58 188.121 108.923 188.59C109.29 189.089 109.173 189.667 108.9 190.152C108.697 190.503 108.4 190.855 108.064 191.065C106.205 192.221 104.206 192.503 102.097 191.854C102.019 191.831 101.956 191.745 101.808 191.628L101.8 191.636ZM301.637 150.522C300.582 151.092 299.489 151.6 298.403 152.123C295.74 153.412 293.358 155.083 291.374 157.293C290.968 157.746 290.616 158.246 290.257 158.699C289.866 158.551 289.546 158.434 289.171 158.293C289.171 158.293 284.735 156.95 281.213 158.192C279.947 158.551 278.791 159.183 277.628 159.863C277.963 157.817 277.956 155.809 277.878 153.794C277.862 153.365 278.042 152.896 278.237 152.506C279.939 149.155 282.704 146.968 286.133 145.593C288.953 144.469 291.905 144.094 294.928 144.125C295.466 144.125 298.184 144.32 298.645 144.445C299.551 144.687 300.481 144.906 301.348 145.265C302.629 145.789 302.957 146.929 303.074 148.202C303.183 149.374 302.535 150.038 301.637 150.53V150.522Z" fill="#494E90"/>
<path d="M22.977 166.467C23.7897 165.465 24.4785 164.481 25.3075 163.617C26.5472 162.331 28.0571 161.476 29.8704 161.252C34.0243 160.747 35.8166 163.691 36.2026 166.295C36.5186 168.457 36.3049 170.617 35.2618 172.516C33.98 174.844 32.9535 177.342 31.1056 179.352C29.9264 180.635 28.8906 182.05 27.7582 183.382C27.3703 183.838 26.9132 184.237 26.4494 184.611C25.8062 185.128 25.0571 185.245 24.2861 184.948C23.1663 184.512 22.0935 184.024 21.1279 183.249C20.0931 182.417 18.8878 181.787 17.795 181.019C14.7932 178.912 12.421 176.237 10.7465 172.97C10.0443 171.603 9.51586 170.149 9.50289 168.592C9.4818 166.033 10.3946 163.924 12.7743 162.716C14.4717 161.852 16.2526 161.915 18.0184 162.586C19.7539 163.245 21.0446 164.504 22.3324 165.777C22.5632 166.007 22.7766 166.249 22.9834 166.466L22.977 166.467ZM11.7143 169.715C12.236 171.476 12.9441 172.814 13.8167 174.082C15.9147 177.155 18.7432 179.376 21.9427 181.18C22.6772 181.596 23.4088 182.026 24.109 182.491C24.803 182.959 24.9989 182.981 25.5952 182.416C25.8714 182.153 26.1458 181.883 26.3866 181.588C27.6903 180.007 28.9958 178.433 30.2738 176.832C31.4549 175.351 32.3921 173.718 33.1929 172.006C33.9798 170.318 34.3759 168.565 34.1961 166.685C33.9589 164.258 32.3887 162.918 30.0615 163.25C29.5837 163.316 29.1024 163.471 28.6615 163.676C26.9249 164.47 25.7582 165.851 24.8801 167.502C24.685 167.866 24.5346 168.245 24.3056 168.584C23.8165 169.298 23.072 169.407 22.3993 168.867C22.1047 168.626 21.8728 168.314 21.5985 168.048C20.7626 167.225 19.9581 166.366 19.0659 165.612C18.5329 165.164 17.8976 164.789 17.2512 164.527C14.4003 163.397 11.6836 165.177 11.6003 168.211C11.5818 168.807 11.6986 169.4 11.7269 169.711L11.7143 169.715Z" fill="#494E90"/>
<path d="M315.987 111.266C317.244 110.973 318.392 110.62 319.577 110.446C321.345 110.193 323.062 110.444 324.63 111.381C328.22 113.532 327.827 116.957 326.533 119.25C325.455 121.15 323.96 122.724 321.971 123.582C319.53 124.633 317.186 125.975 314.493 126.427C312.775 126.716 311.089 127.197 309.377 127.553C308.791 127.675 308.185 127.709 307.589 127.72C306.764 127.733 306.101 127.366 305.675 126.658C305.058 125.626 304.512 124.582 304.225 123.377C303.919 122.086 303.354 120.848 302.963 119.571C301.887 116.065 301.657 112.497 302.341 108.89C302.626 107.38 303.101 105.908 304.047 104.671C305.602 102.638 307.616 101.534 310.237 102.041C312.107 102.401 313.474 103.544 314.456 105.158C315.421 106.744 315.667 108.53 315.902 110.325C315.943 110.649 315.963 110.971 315.993 111.268L315.987 111.266ZM305.103 106.915C304.434 108.625 304.171 110.117 304.081 111.653C303.851 115.367 304.72 118.857 306.138 122.245C306.463 123.024 306.776 123.812 307.043 124.61C307.304 125.404 307.445 125.543 308.263 125.462C308.642 125.424 309.025 125.38 309.395 125.295C311.395 124.848 313.392 124.406 315.384 123.927C317.225 123.483 318.968 122.77 320.651 121.91C322.308 121.061 323.698 119.919 324.709 118.326C326.012 116.264 325.596 114.242 323.554 113.076C323.137 112.834 322.662 112.661 322.188 112.553C320.33 112.113 318.561 112.487 316.854 113.251C316.477 113.419 316.125 113.626 315.736 113.753C314.912 114.015 314.257 113.645 314.058 112.805C313.974 112.434 313.982 112.046 313.929 111.667C313.774 110.504 313.666 109.333 313.425 108.19C313.28 107.508 313.008 106.823 312.659 106.219C311.102 103.577 307.865 103.314 305.936 105.658C305.556 106.117 305.284 106.656 305.115 106.92L305.103 106.915Z" fill="#494E90"/>
<path d="M29.2804 86.2521C29.0787 84.8835 28.7814 83.5805 28.6979 82.2613C28.4729 78.4907 30.4086 75.3103 33.7817 73.8009C35.6884 72.9473 37.6097 73.0919 39.4414 73.9956C42.4428 75.4697 44.5631 77.8564 45.9855 80.8406C47.2964 83.5876 47.6295 86.5779 47.8091 89.5686C48.0767 93.9259 47.7341 98.2673 47.3572 102.602C47.3231 102.991 47.2547 103.372 47.1712 103.758C46.9016 105.026 46.1158 105.84 44.8717 106.146C42.7234 106.668 40.58 107.148 38.3273 107.002C36.7079 106.899 35.072 107.099 33.4653 106.952C29.3186 106.581 25.436 105.349 21.9985 102.932C19.7841 101.379 18.1423 99.3336 17.3882 96.7055C15.9332 91.5887 19.1457 86.7037 24.4106 85.9285C25.8115 85.7264 27.1935 85.7879 28.5661 86.1185C28.8076 86.1756 29.0581 86.2061 29.2708 86.2466L29.2804 86.2521ZM44.5493 84.1066C44.4411 83.6989 44.3611 83.2757 44.2247 82.8836C43.2007 80.0605 41.4313 77.8392 38.829 76.3158C37.5278 75.5541 36.1364 75.3658 34.7034 75.9643C32.3889 76.9261 30.8966 79.1888 30.8991 81.7255C30.9035 83.2032 31.1554 84.6394 31.7208 86.0085C32.1056 86.9407 32.5261 87.8553 32.9185 88.7855C33.1362 89.3015 33.1683 89.8182 32.6813 90.206C32.2412 90.5572 31.7679 90.4485 31.3225 90.1708C31.1581 90.0689 30.9972 89.95 30.8384 89.8386C28.9739 88.5072 26.8941 88.0087 24.6452 88.3955C19.3595 89.3055 18.353 94.2515 20.0086 97.3837C20.85 98.9705 21.9774 100.296 23.4433 101.313C26.4822 103.415 29.9041 104.495 33.5613 104.817C37.0365 105.123 40.4169 104.25 43.8479 103.994C44.4024 103.952 44.7153 103.578 44.7888 103.033C44.8543 102.579 44.9293 102.131 44.9549 101.68C45.1287 98.8942 45.3327 96.1007 45.4477 93.3065C45.5791 90.209 45.2808 87.1367 44.5533 84.1217L44.5493 84.1066Z" fill="#494E90"/>
<path d="M331.96 59.4026C333.332 59.223 334.639 58.9468 335.96 58.8846C339.733 58.7205 342.882 60.7073 344.337 64.1044C345.16 66.0247 344.984 67.9433 344.051 69.7603C342.528 72.7374 340.108 74.8189 337.101 76.1929C334.333 77.4592 331.338 77.744 328.345 77.8753C323.984 78.0725 319.648 77.6598 315.321 77.2129C314.932 77.1725 314.552 77.098 314.167 77.0083C312.904 76.7182 312.102 75.9194 311.817 74.6705C311.33 72.514 310.884 70.3632 311.066 68.1131C311.196 66.4956 311.023 64.8567 311.196 63.2525C311.633 59.1123 312.927 55.2502 315.4 51.8522C316.989 49.6632 319.06 48.0547 321.7 47.3431C326.84 45.9709 331.672 49.2619 332.362 54.5387C332.542 55.9427 332.458 57.3235 332.105 58.6905C332.044 58.931 332.01 59.181 331.966 59.3931L331.96 59.4026ZM333.859 74.7041C334.268 74.6025 334.692 74.5294 335.087 74.3993C337.926 73.421 340.176 71.6878 341.741 69.1104C342.523 67.8217 342.734 66.4335 342.159 64.991C341.235 62.6613 338.996 61.1326 336.46 61.0942C334.982 61.0747 333.542 61.3033 332.164 61.8465C331.226 62.2162 330.305 62.6219 329.368 62.9992C328.849 63.2086 328.332 63.2324 327.952 62.7392C327.608 62.2934 327.724 61.822 328.009 61.3811C328.113 61.2183 328.235 61.0594 328.349 60.9024C329.71 59.0597 330.242 56.9882 329.892 54.7334C329.067 49.4336 324.138 48.3474 320.98 49.9522C319.379 50.7678 318.036 51.8737 316.996 53.323C314.845 56.3275 313.71 59.7315 313.328 63.3831C312.966 66.8528 313.785 70.2469 313.985 73.6816C314.019 74.2367 314.387 74.5555 314.931 74.6379C315.384 74.7107 315.83 74.7929 316.281 74.8259C319.064 75.0446 321.853 75.2937 324.645 75.4538C327.74 75.6352 330.817 75.3866 333.843 74.7079L333.859 74.7041Z" fill="#494E90"/>
<path d="M352.96 170.403C354.332 170.223 355.639 169.947 356.96 169.885C360.733 169.721 363.882 171.707 365.337 175.104C366.16 177.025 365.984 178.943 365.051 180.76C363.528 183.737 361.108 185.819 358.101 187.193C355.333 188.459 352.338 188.744 349.345 188.875C344.984 189.072 340.648 188.66 336.321 188.213C335.932 188.172 335.552 188.098 335.167 188.008C333.904 187.718 333.102 186.919 332.817 185.671C332.33 183.514 331.884 181.363 332.066 179.113C332.196 177.496 332.023 175.857 332.196 174.253C332.633 170.112 333.927 166.25 336.4 162.852C337.989 160.663 340.06 159.055 342.7 158.343C347.84 156.971 352.672 160.262 353.362 165.539C353.542 166.943 353.458 168.323 353.105 169.691C353.044 169.931 353.01 170.181 352.966 170.393L352.96 170.403ZM354.859 185.704C355.268 185.603 355.692 185.529 356.087 185.399C358.926 184.421 361.176 182.688 362.741 180.11C363.523 178.822 363.734 177.434 363.159 175.991C362.235 173.661 359.996 172.133 357.46 172.094C355.982 172.075 354.542 172.303 353.164 172.847C352.226 173.216 351.305 173.622 350.368 173.999C349.849 174.209 349.332 174.232 348.952 173.739C348.608 173.293 348.724 172.822 349.009 172.381C349.113 172.218 349.235 172.059 349.349 171.902C350.71 170.06 351.242 167.988 350.892 165.733C350.067 160.434 345.138 159.347 341.98 160.952C340.379 161.768 339.036 162.874 337.996 164.323C335.845 167.327 334.71 170.732 334.328 174.383C333.966 177.853 334.785 181.247 334.985 184.682C335.019 185.237 335.387 185.556 335.931 185.638C336.384 185.711 336.83 185.793 337.281 185.826C340.064 186.045 342.853 186.294 345.645 186.454C348.74 186.635 351.817 186.387 354.843 185.708L354.859 185.704Z" fill="#494E90"/>
<path d="M52.4832 232.708C52.5034 232.266 52.5078 231.917 52.5273 231.565C52.7802 227.433 56.0022 224.776 60.0908 225.323C63.4259 225.771 65.6182 227.759 67.1182 230.609C68.5614 233.337 69.0611 236.316 69.2623 239.357C69.5129 243.194 69.1961 246.963 67.7801 250.579C67.6267 250.975 67.4808 251.369 67.3083 251.755C66.6879 253.131 65.6456 253.893 64.1131 253.904C63.7267 253.909 63.3287 253.902 62.9525 253.824C60.7866 253.397 58.6096 252.989 56.4579 252.493C52.6106 251.607 49.0019 250.189 45.9002 247.667C44.6964 246.694 43.6572 245.579 42.9927 244.172C41.5991 241.204 42.3215 237.32 44.7713 235.102C46.802 233.254 49.1587 232.208 51.9998 232.682C52.127 232.705 52.2538 232.696 52.4963 232.696L52.4832 232.708ZM66.0118 234.539C65.7068 233.755 65.3901 232.684 64.8891 231.71C63.7466 229.476 62.0701 227.908 59.4149 227.708C57.3609 227.55 55.8282 228.596 55.1744 230.547C54.8331 231.575 54.9028 232.599 55.1185 233.624C55.4818 235.298 54.4966 236.214 52.8388 235.417C50.4121 234.251 46.9846 235.403 45.5229 237.69C44.0446 240.006 43.976 242.731 46.3359 245.046C47.5043 246.191 48.8531 247.101 50.3092 247.838C52.6488 249.011 55.1374 249.74 57.6966 250.249C59.2584 250.562 60.8111 250.901 62.3623 251.265C64.2842 251.717 64.7297 251.477 65.4015 249.594C67.1233 244.725 67.0803 239.783 66.0022 234.534L66.0118 234.539Z" fill="#494E90"/>
</svg>
