<svg width="448" height="362" viewBox="0 0 448 362" fill="none" xmlns="http://www.w3.org/2000/svg">
<g clip-path="url(#clip0_4038_5)">
<path d="M141.238 177.153C140.88 177.574 140.656 177.915 140.36 178.183C138.684 179.671 136.793 180.182 134.669 179.286C132.706 178.461 131.165 176.095 131.192 174.061C131.201 173.192 131.649 172.555 132.303 172.466C132.948 172.376 133.379 172.743 133.719 173.613C134.024 174.374 134.355 175.127 134.723 175.853C135.323 177.054 136.435 177.457 137.6 176.749C138.236 176.364 138.872 175.773 139.213 175.118C140.064 173.442 140.306 171.578 140.53 169.723C140.199 169.544 139.876 169.383 139.571 169.221C136.56 167.635 135.592 163.719 137.636 160.994C138.926 159.282 140.539 159.157 142.708 159.014C145.056 158.852 147.126 159.623 149.098 160.707C150.729 161.604 151.455 164.023 150.774 166.076C149.932 168.612 147.915 169.678 145.477 170.153C144.967 170.252 144.447 170.27 143.81 170.342C143.461 172.152 143.273 173.944 143.793 175.737C143.936 176.221 144.223 176.696 144.563 177.081C145.173 177.78 145.97 178.04 146.884 177.735C148.067 177.341 149.008 176.669 149.492 175.468C149.627 175.127 149.797 174.778 150.012 174.482C150.326 174.052 150.765 173.873 151.294 174.07C151.805 174.258 152.082 174.643 152.064 175.181C152.056 175.549 151.984 175.925 151.858 176.265C151.016 178.506 149.331 179.886 147.055 180.379C145.029 180.818 143.309 180.092 142.054 178.389C141.812 178.058 141.606 177.708 141.238 177.153ZM143.882 161.774C142.314 161.729 140.584 160.833 139.518 162.401C138.451 163.961 139.141 166.076 140.835 166.891C142.251 167.572 143.784 167.778 145.334 167.527C146.078 167.402 146.84 167.053 147.467 166.622C148.372 166.004 148.695 165.063 148.417 163.961C148.157 162.912 147.404 162.231 146.329 162.079C145.522 161.962 144.707 161.872 143.891 161.774H143.882Z" fill="#494E90"/>
<path d="M125.671 154.165C125.617 153.618 125.644 153.071 125.734 152.525C125.806 152.104 125.886 151.655 126.012 151.225C126.29 150.266 127.069 149.702 127.894 149.765C128.683 149.818 129.256 150.419 129.462 151.422C129.704 152.632 129.525 153.806 129.104 154.936C128.754 155.868 128.01 156.343 127.24 156.253C126.442 156.154 125.877 155.527 125.725 154.55C125.707 154.425 125.689 154.308 125.68 154.174L125.671 154.165Z" fill="#494E90"/>
<path d="M162.039 158.646C161.896 157.821 161.959 156.97 162.192 156.163C162.236 155.993 162.299 155.832 162.362 155.671C162.676 154.891 163.437 154.47 164.127 154.577C164.907 154.694 165.257 155.267 165.445 155.939C165.75 157.015 165.624 158.09 165.239 159.121C164.925 159.954 164.271 160.385 163.545 160.322C162.864 160.259 162.299 159.757 162.093 158.96C162.066 158.861 162.048 158.771 162.03 158.673L162.039 158.646Z" fill="#494E90"/>
<path d="M366.822 164.516C366.105 164.211 365.352 163.96 364.59 163.79C360.495 162.876 356.372 162.867 352.25 163.584C346.622 164.552 341.899 167.088 338.385 171.677C338.278 171.82 338.224 172.008 338.161 172.16C337.91 171.954 337.83 171.919 337.812 171.865C336.754 168.656 334.792 165.968 332.901 163.243C330.696 160.071 327.927 157.49 324.647 155.464C323.347 154.658 322.012 153.914 320.685 153.152C315.228 149.988 309.402 149.271 303.272 150.472C302.77 150.571 302.268 150.634 301.749 150.723C301.65 150.41 301.578 150.203 301.525 149.988C300.951 147.891 300.109 145.902 298.997 144.029C294.812 137.02 287.992 134.511 280.526 135.963C275.795 136.877 271.744 139.243 268.078 142.29C266.331 143.742 264.691 145.31 262.934 146.888C259.6 139.53 253.999 134.735 246.193 132.575C238.208 130.361 231.226 132.889 224.505 137.424C224.72 136.841 224.827 136.447 225.016 136.097C225.992 134.287 225.482 132.835 224.048 131.518C222.121 129.734 220.086 128.094 217.801 126.813C214.449 124.939 210.864 123.891 207.002 123.918C206.267 123.918 205.532 124.043 204.725 124.115C204.725 123.694 204.708 123.326 204.725 122.968C204.905 120.109 204.367 117.393 203.148 114.812C202.297 113.011 201.087 111.496 199.339 110.52C197.95 109.749 196.471 109.139 194.984 108.44C195.029 108.333 195.145 108.064 195.253 107.786C196.068 105.743 196.507 103.637 196.328 101.441C195.745 94.2624 191.049 88.5715 184.104 86.6267C180.187 85.5333 176.495 86.0352 173.08 88.3116C172.91 88.4191 172.713 88.4908 172.453 88.6163C172.337 85.0404 170.965 82.0561 168.662 79.5288C164.683 75.1732 159.691 73.4794 153.893 74.3845C147.359 75.4062 142.583 78.7939 140.073 85.0673C139.957 85.3631 139.804 85.6409 139.643 85.9814C136.372 81.1509 129.543 78.6953 124.148 81.366C121.459 82.6924 119.29 84.5565 117.856 87.2092C116.037 90.561 115.983 94.0473 117.229 97.8293C113.752 97.2647 110.516 97.4349 107.649 99.4335C104.799 101.423 103.006 104.148 102.253 107.526C101.68 110.116 102.002 112.644 103.024 115.09C104.458 118.505 107.236 120.387 110.507 121.632C110.212 122.932 109.943 124.142 109.656 125.405C109.056 125.074 108.473 124.751 107.891 124.429C106.439 123.622 104.888 123.156 103.23 122.968C101.026 122.717 98.8299 122.78 96.6431 123.048C93.6498 123.416 90.7909 124.24 88.2098 125.836C87.5556 126.239 86.9462 126.768 86.4264 127.341C85.8708 127.951 85.6736 128.721 85.9962 129.537C87.5287 133.328 89.5093 136.805 92.8522 139.324C98.4893 143.563 104.494 144.136 110.821 140.999C111.305 140.757 111.744 140.444 112.38 140.049C112.273 141.277 112.139 142.308 112.094 143.348C111.852 148.277 111.834 153.179 112.497 158.09C113.205 163.342 114.702 168.289 117.301 172.895C121.809 180.881 128.306 186.545 136.999 189.601C137.537 189.789 138.084 189.968 138.756 190.201C137.671 190.909 136.721 191.492 135.816 192.137C128.987 197.021 126.03 203.689 126.89 212.006C127.257 215.617 128.647 218.781 131.604 221.093C131.747 221.21 131.927 221.281 132.07 221.362C131.936 221.658 131.891 221.801 131.81 221.918C128.575 226.775 127.804 232.161 128.7 237.799C129.623 243.606 132.312 248.571 136.838 252.335C142.493 257.022 149.008 259.514 156.465 259.164C156.886 259.146 157.316 259.164 157.863 259.164C157.54 260.033 157.289 260.732 157.029 261.423C156.133 263.806 155.775 266.262 156.097 268.789C156.671 273.36 158.32 277.5 160.964 281.282C164.109 285.79 168.456 288.461 173.726 289.752C174.371 289.913 175.025 289.985 175.715 290.101C175.948 292.261 176.128 294.34 176.396 296.401C177.203 302.693 177.902 308.993 178.933 315.249C179.533 318.914 180.635 322.499 181.612 326.102C181.881 327.087 182.383 328.064 182.975 328.898C184.041 330.385 185.583 330.457 186.909 329.193C187.85 328.306 188.486 327.222 188.925 326.003C189.051 325.645 189.212 325.304 189.4 324.838C189.759 325.51 189.974 326.093 190.332 326.55C191.094 327.509 191.829 328.53 192.752 329.301C194.105 330.43 195.548 330.197 196.489 328.71C197.135 327.688 197.619 326.523 197.977 325.358C198.694 323.019 198.873 320.581 198.837 318.152C198.739 312.372 198.533 306.582 198.38 300.802C198.327 298.902 198.327 297.002 198.246 295.111C198.174 293.56 198.013 292.01 197.878 290.37C200.934 290.827 203.937 291.006 206.885 290.047C209.879 289.07 212.038 287.054 213.759 284.321C213.929 284.652 214.001 284.778 214.055 284.912C215.543 288.488 217.72 291.607 220.579 294.17C221.825 295.281 222.327 296.294 222.184 298.032C221.735 303.275 221.753 308.545 222.085 313.815C222.318 317.516 222.865 321.155 223.725 324.757C224.03 326.039 224.541 327.249 225.419 328.253C226.432 329.418 227.74 329.624 229.013 328.745C229.497 328.414 229.909 327.957 230.294 327.509C230.706 327.034 231.038 326.505 231.468 325.913C231.665 326.209 231.791 326.424 231.934 326.63C232.445 327.365 232.866 328.172 233.476 328.808C235.304 330.717 237.786 330.242 238.772 327.795C239.131 326.908 239.346 325.931 239.444 324.981C239.695 322.687 239.919 320.375 240.018 318.072C240.17 314.72 240.296 311.359 240.26 307.998C240.242 306.027 239.982 304.064 240.332 302.092C240.52 301.044 240.645 300.775 241.667 300.452C242.025 300.345 242.384 300.264 242.742 300.139C248.935 298.077 253.246 294.179 254.985 287.726C255.012 287.628 255.101 287.547 255.173 287.448C255.28 287.529 255.379 287.583 255.451 287.672C258.077 290.997 261.599 292.951 265.56 294.179C269.915 295.532 274.11 295.218 278.017 292.682C278.16 292.592 278.331 292.521 278.653 292.359C278.402 293.65 278.143 294.761 277.963 295.9C277.211 300.685 276.341 305.462 275.777 310.275C275.337 314.048 275.194 317.865 275.104 321.665C275.069 323.359 275.266 325.116 275.723 326.747C276.529 329.624 278.949 330.054 280.948 327.831C281.387 327.338 281.799 326.819 282.31 326.209C282.579 326.648 282.758 327.016 283.009 327.32C283.591 328.037 284.138 328.817 284.837 329.409C285.841 330.26 287.096 330.224 288.135 329.409C288.574 329.068 289.005 328.665 289.273 328.199C289.901 327.096 290.51 325.976 290.967 324.802C292.921 319.721 293.835 314.379 294.794 309.056C295.717 303.956 296.291 298.794 297.716 293.793C297.805 293.489 297.913 293.067 298.146 292.96C298.791 292.646 299.499 292.458 300.315 292.171C300.279 292.843 300.279 293.318 300.234 293.793C299.741 299.215 299.114 304.637 298.791 310.068C298.513 314.756 298.576 319.47 298.522 324.175C298.513 324.954 298.603 325.743 298.719 326.514C299.06 328.88 301.121 329.857 303.2 328.656C304.177 328.091 304.796 327.213 305.351 326.272C305.549 325.94 305.746 325.609 305.979 325.205C306.436 325.869 306.758 326.415 307.162 326.899C307.583 327.419 308.04 327.921 308.551 328.351C310.845 330.323 312.951 329.695 313.785 326.819C313.794 326.783 313.803 326.747 313.812 326.711C314.349 323.736 315.012 320.787 315.38 317.794C315.837 314.092 316.061 310.364 316.366 306.645C316.733 302.074 317.083 297.495 317.432 292.915C317.647 290.092 317.871 287.26 318.068 284.437C318.122 283.702 318.068 282.967 318.068 282.053C324.951 283.756 331.108 282.788 336.064 277.796C340.958 272.867 342.678 266.862 340.949 259.98C341.388 259.836 341.764 259.711 342.15 259.585C344.139 258.94 345.806 257.793 346.837 255.974C349.14 251.914 349.678 247.693 347.634 243.337C347.527 243.104 347.428 242.871 347.312 242.611C356.103 243.418 359.787 234.465 354.472 228.819C357.896 228.469 360.862 227.259 363.336 224.902C364.77 223.531 365.971 222.025 366.912 220.314C368.74 217.517 369.188 214.237 369.296 212.812C369.322 212.642 369.331 212.418 369.331 212.113C369.331 212.095 369.331 212.086 369.331 212.086C369.331 210.859 369.313 209.622 369.152 208.412C368.731 205.293 367.405 202.596 365.074 200.149C364.16 199.109 362 197.577 362 197.577C360.782 196.636 359.536 196.009 358.201 195.704C356.847 195.39 355.449 195.283 353.979 195.067C356.148 191.841 357.403 188.516 355.261 184.86C356.426 183.256 357.681 181.893 359.186 180.755C360.925 179.447 362.771 178.353 364.761 177.448C366.141 176.821 367.467 176.032 368.749 175.208C369.672 174.616 370.299 173.711 370.622 172.627C371.554 169.445 369.887 165.815 366.849 164.516H366.822ZM299.777 154.389C299.643 155.142 299.643 155.948 299.347 156.629C298.504 158.565 297.133 160.062 295.215 161.021C294.364 161.451 293.45 161.63 292.5 161.487C291.568 161.343 291.227 160.841 291.639 159.999C292.061 159.148 292.536 158.242 293.226 157.606C295.009 155.966 297.223 155.061 299.454 154.218C299.562 154.272 299.669 154.335 299.777 154.389ZM203.542 127.574C203.811 126.938 204.233 126.768 204.824 126.723C208.991 126.418 212.962 127.126 216.528 129.34C218.482 130.559 220.257 132.064 222.049 133.516C222.99 134.278 222.936 134.35 222.354 135.362C221.789 136.33 221.26 137.325 220.642 138.248C216.744 144.047 211.178 146.502 204.34 146.018C201.15 145.794 198.201 144.486 195.369 143.034C193.98 142.317 192.68 141.43 191.381 140.56C190.207 139.781 190.234 139.745 190.413 138.293C191.963 137.8 193.469 137.468 194.84 136.85C195.97 136.339 196.937 136.061 198.201 136.465C199.312 136.814 200.558 136.823 201.741 136.814C204.457 136.796 207.181 136.698 209.852 136.106C210.04 136.061 210.228 136.008 210.452 135.936C210.838 135.81 210.873 135.255 210.488 135.12C210.47 135.12 210.443 135.102 210.425 135.102C209.072 134.86 207.728 134.583 206.357 134.457C204.017 134.251 201.669 134.152 199.16 134C199.42 133.66 199.572 133.427 199.76 133.22C201.329 131.544 202.646 129.698 203.542 127.583V127.574ZM109.199 117.868C105.623 115.762 104.431 112.473 104.987 108.503C105.507 104.757 108.509 101.432 112.04 100.625C113.922 100.195 115.822 100.482 117.713 100.787C118.34 100.885 118.968 100.993 119.595 101.065C120.751 101.19 121.343 100.383 120.841 99.299C120.088 97.6679 119.487 96.01 119.21 94.2086C118.125 87.2361 125.51 80.7297 132.554 83.6782C134.588 84.5296 136.336 85.7036 137.537 87.6573C138.559 89.3243 138.639 89.2795 139.76 89.8889C140.808 89.2974 141.534 88.4729 142.027 87.4333C142.233 86.9941 142.421 86.546 142.592 86.089C144.742 80.4967 148.981 77.7005 154.762 76.867C159.297 76.2128 165.346 78.05 168.429 84.0277C169.711 86.5102 170.051 89.1182 169.128 91.8337C168.967 92.2997 168.823 92.8822 168.976 93.3124C169.343 94.343 170.464 94.4775 171.315 93.6619C172.014 92.9898 172.695 92.2997 173.385 91.6186C175.975 89.0733 179.103 88.3474 182.58 89.0554C188.612 90.2743 193.012 95.3109 193.478 101.423C193.613 103.162 193.362 104.864 192.689 106.469C192.421 107.105 191.928 107.643 191.497 108.198C191.13 108.673 190.888 109.139 191.13 109.74C191.354 110.304 191.847 110.502 192.385 110.511C200.137 110.699 203.82 118.926 202.055 124.662C200.522 129.636 197.403 133.283 192.304 134.977C190.556 135.559 188.755 135.282 186.972 135.335C186.416 135.353 185.851 135.291 185.296 135.282C184.095 135.255 183.324 135.846 182.912 136.949C182.625 137.719 182.401 138.508 182.096 139.27C180.241 143.751 175.877 146.108 171.127 145.158C169.2 144.772 167.56 143.831 166.368 142.236C165.05 140.471 164.235 138.49 163.921 136.303C163.796 135.416 163.437 134.95 162.774 134.851C162.093 134.753 161.717 134.995 161.304 135.784C160.193 137.908 158.643 139.7 156.671 141.008C148.928 146.117 141.256 143.5 136.901 137.952C135.386 136.026 134.579 133.794 134.624 131.303C134.633 130.666 134.571 130.084 133.934 129.779C133.298 129.474 132.787 129.779 132.312 130.191C131.541 130.845 130.753 131.473 129.991 132.118C125.582 135.873 119.783 135.963 115.544 132.019C113.375 130.003 112.273 127.296 112.703 124.214C112.811 123.434 113.223 122.663 113.617 121.964C114.334 120.674 114.003 119.795 112.596 119.302C111.439 118.899 110.256 118.496 109.208 117.886L109.199 117.868ZM112.147 136.868C107.819 140.955 100.981 141.573 95.8634 138.391C92.431 136.259 90.1725 133.194 88.5773 129.555C88.3443 129.026 88.4787 128.695 88.8999 128.417C89.3301 128.13 89.7692 127.843 90.2353 127.601C93.9097 125.665 97.8441 125.119 101.949 125.423C104.557 125.621 107.003 126.329 109.333 127.485C109.674 127.655 110.077 127.942 110.185 128.264C110.714 129.878 111.466 131.365 112.47 132.727C112.587 132.889 112.47 133.131 112.264 133.149C107.989 133.651 103.822 132.674 99.6006 132.333C98.9285 132.279 98.6596 133.176 99.2421 133.516C99.2421 133.516 99.2511 133.516 99.2601 133.516C100.891 134.475 102.693 134.932 104.503 135.389C107.138 136.061 109.79 136.285 112.488 135.918C112.587 135.909 112.694 135.954 112.936 136.017C112.631 136.348 112.407 136.626 112.147 136.868ZM138.209 186.769C133.092 184.949 128.575 182.117 124.981 178.075C120.16 172.662 116.44 166.595 115.204 159.282C115.015 158.18 114.89 157.059 114.881 155.948C114.836 151.915 114.764 147.882 114.881 143.858C114.953 141.224 115.293 138.589 116.118 135.882C118.726 137.164 121.396 137.952 124.309 137.54C127.15 137.128 129.65 135.963 131.98 134.206C134.167 140.749 138.72 144.764 145.307 146.009C151.966 147.273 157.54 144.943 161.842 139.494C162.057 139.987 162.263 140.489 162.487 140.982C164.029 144.539 166.619 146.896 170.446 147.712C176.414 148.994 182.213 145.884 184.543 140.229C184.597 140.094 184.659 139.951 184.704 139.816C185.188 138.532 186.216 138.009 187.787 138.248C187.474 140.444 187.205 142.577 186.855 144.71C185.376 153.815 182.069 162.248 177.176 170.045C174.443 174.392 171.163 178.299 167.183 181.598C162.425 185.541 157.02 187.862 150.846 188.489C146.472 188.928 142.305 188.238 138.218 186.787L138.209 186.769ZM195.629 323.619C195.405 324.73 195.136 325.824 194.518 326.899C194.437 327.043 194.249 327.087 194.105 326.998C193.926 326.872 193.765 326.765 193.657 326.612C193.084 325.743 192.537 324.856 192.017 323.96C191.686 323.377 191.444 322.741 191.121 322.158C190.718 321.441 190.135 320.904 189.257 320.931C188.343 320.966 187.751 321.549 187.402 322.347C187.106 323.028 186.918 323.754 186.622 324.444C186.299 325.196 185.923 325.913 185.556 326.648C185.17 326.648 185.108 326.639 184.722 326.63C184.561 326.299 184.4 325.958 184.31 325.609C183.396 321.961 182.276 318.34 181.657 314.648C180.698 308.841 180.071 302.98 179.327 297.136C179.157 295.774 179.049 294.394 178.986 293.023C178.942 292.135 178.995 291.239 179.103 290.361C179.13 290.137 179.479 289.841 179.73 289.76C180.438 289.536 181.191 289.438 181.899 289.223C184.095 288.56 186.12 287.529 187.975 286.185C188.397 285.88 188.809 285.566 189.284 285.208C189.795 285.674 190.252 286.158 190.78 286.552C191.829 287.332 192.887 288.094 193.989 288.793C194.482 289.106 194.742 289.42 194.787 290.011C194.957 292.279 195.244 294.537 195.36 296.814C195.656 302.397 195.916 307.989 196.113 313.582C196.229 316.933 196.274 320.303 195.611 323.619H195.629ZM191.757 270.268C191.963 270.77 192.179 271.155 192.277 271.559C192.627 273.091 192.385 274.597 191.981 276.084C191.569 277.599 190.655 279.356 189.848 280.332C188.441 277.572 189.373 272.195 191.757 270.268ZM237.697 303.168C237.652 304.691 237.5 306.224 237.553 307.747C237.724 313.053 237.446 318.332 237.052 323.619C236.989 324.506 236.819 325.394 236.639 326.263C236.55 326.684 236.326 327.07 236.164 327.473C235.985 327.5 235.94 327.509 235.77 327.536C235.447 327.132 235.08 326.756 234.82 326.317C234.417 325.645 234.13 324.91 233.727 324.237C232.75 322.606 231.325 322.391 229.927 323.7C229.389 324.202 228.968 324.838 228.493 325.403C228.493 325.403 228.493 325.403 228.493 325.412C227.991 325.994 227.032 325.842 226.754 325.125C226.629 324.802 226.548 324.471 226.485 324.139C225.992 321.54 225.428 318.95 225.141 316.324C224.541 310.75 224.621 305.157 224.908 299.565C224.935 298.973 225.025 298.382 225.096 297.656C229.084 299.717 233.144 301.151 237.724 300.73C237.724 301.617 237.742 302.388 237.724 303.159L237.697 303.168ZM293.97 297.88C292.921 303.822 291.935 309.782 290.824 315.715C290.25 318.798 289.354 321.8 288.153 324.704C287.822 325.501 287.517 326.335 286.818 327.016C286.594 327.231 286.235 327.195 286.056 326.944C285.787 326.577 285.527 326.209 285.294 325.833C284.963 325.295 284.703 324.704 284.353 324.184C283.385 322.732 282.014 322.588 280.795 323.825C280.195 324.435 279.675 325.125 279.11 325.761C278.851 326.048 278.385 325.931 278.259 325.555C278.008 324.757 277.999 323.96 277.963 323.171C277.82 319.362 277.963 315.553 278.456 311.78C279.093 306.833 279.872 301.895 280.625 296.966C280.876 295.308 281.27 293.677 281.548 292.019C281.692 291.177 281.709 290.316 281.799 289.465C281.844 289.088 281.942 288.712 282.059 288.174C282.65 288.622 283.081 288.954 283.529 289.277C285.895 291.006 288.44 292.386 291.326 293.005C292.437 293.247 293.602 293.238 294.812 293.345C294.516 294.923 294.229 296.383 293.979 297.844L293.97 297.88ZM280.249 278.155C281.082 279.526 281.136 280.807 281.163 282.161C280.383 281.336 280.105 280.198 280.249 278.155ZM315.236 281.453C315.21 281.865 315.219 282.277 315.192 282.68C314.995 285.88 314.824 289.079 314.6 292.27C314.278 296.849 313.91 301.42 313.561 305.991C313.31 309.343 313.166 312.703 312.772 316.028C312.387 319.317 311.741 322.58 311.204 325.851C311.123 326.29 310.567 326.451 310.245 326.146C309.053 325.035 308.255 323.816 307.941 322.257C307.834 321.71 307.744 321.128 307.484 320.653C307.296 320.321 306.857 320.07 306.472 319.936C306.006 319.774 305.746 320.178 305.531 320.545C304.67 322.033 303.828 323.521 302.932 324.981C302.788 325.214 302.627 325.429 302.448 325.636C302.071 326.093 301.309 325.851 301.292 325.259C301.292 325.259 301.292 325.25 301.292 325.241C301.193 319.945 301.184 314.648 301.641 309.361C301.91 306.242 302.107 303.114 302.403 299.995C302.591 298.032 302.905 296.079 303.129 294.116C303.263 292.933 303.335 291.741 303.407 290.558C303.433 290.128 303.604 289.85 303.926 289.527C305.199 288.282 306.49 287.027 307.601 285.638C308.255 284.813 308.667 283.765 309.044 282.77C309.599 281.273 310.021 279.732 310.513 278.208C310.558 278.083 310.684 277.975 310.809 277.814C311.186 278.029 311.535 278.173 311.804 278.495C312.378 279.185 313.086 279.759 313.919 280.099C314.914 280.503 315.29 280.789 315.245 281.435L315.236 281.453ZM358.846 198.554C359.213 198.724 359.572 198.912 359.966 199.109C362.287 200.606 363.479 201.879 364.062 202.658C364.116 202.82 364.214 202.981 364.34 203.16C366.248 205.723 366.939 208.582 366.804 211.629C366.302 216.048 365.048 218.494 364.357 219.561C364.187 219.767 364.026 219.982 363.874 220.206C361.292 224.06 357.708 226.309 352.832 225.969C351.649 225.888 350.439 225.996 349.256 226.121C348.656 226.184 347.894 226.291 347.796 227.089C347.688 227.913 348.423 228.102 348.997 228.344C350.359 228.908 351.578 229.697 352.608 230.745C354.58 232.735 354.732 235.755 352.958 237.861C351.595 239.483 349.749 239.824 347.778 239.627C345.94 239.448 344.229 238.829 342.607 237.933C341.8 237.485 341.056 237.655 340.689 238.211C340.366 238.695 340.492 239.448 341.029 240.057C341.2 240.254 341.415 240.407 341.612 240.586C342.078 241.016 342.562 241.428 343.019 241.867C346.675 245.443 346.684 250.041 344.65 254.136C343.799 255.857 342.302 256.789 340.456 257.192C340.061 257.282 339.712 257.318 339.353 256.933C338.081 255.579 336.772 254.253 335.428 252.962C334.344 251.923 333.116 251.089 331.628 250.686C330.194 250.301 328.93 250.543 327.998 251.735C327.075 252.909 327.272 254.19 327.918 255.418C328.509 256.538 329.432 257.354 330.49 258.017C332.614 259.343 334.899 260.213 337.435 260.222C338.027 260.222 338.35 260.437 338.466 260.992C338.654 261.862 338.959 262.731 339.004 263.618C339.291 269.497 337.077 274.265 332.354 277.76C330.194 279.365 327.64 280.323 324.978 280.458C321.94 280.601 318.965 279.974 316.222 278.531C314.726 277.742 313.345 276.792 312.378 275.367C312.046 274.875 311.813 274.31 311.463 273.835C310.764 272.894 309.537 273.037 309.035 274.095C308.927 274.328 308.873 274.588 308.802 274.839C308.533 275.771 308.327 276.721 307.995 277.626C307.431 279.203 306.758 280.736 306.203 282.313C304.168 288.12 297.662 291.974 290.896 290.235C288.261 289.563 286.065 287.968 283.968 286.265C283.439 285.835 283.26 285.414 283.439 284.733C283.896 282.976 283.896 281.184 283.556 279.4C283.332 278.217 282.928 277.088 282.113 276.165C280.768 274.624 278.806 274.839 277.919 276.685C277.623 277.303 277.47 278.038 277.452 278.728C277.399 281.211 278.277 283.415 279.666 285.414C280.123 286.068 280.168 286.57 279.738 287.224C277.677 290.379 274.764 292.135 271.027 292.368C267.343 292.601 264.036 291.302 260.998 289.375C258.596 287.852 256.598 285.907 255.854 283.003C255.818 282.86 255.773 282.689 255.675 282.6C255.289 282.268 254.904 281.766 254.483 281.722C254.205 281.695 253.784 282.304 253.56 282.698C253.291 283.182 253.147 283.738 253.004 284.276C252.753 285.208 252.529 286.158 252.296 287.099C251.902 288.712 251.301 290.235 250.315 291.58C246.874 296.303 242.241 298.525 236.37 298.319C232.284 298.176 228.564 296.93 225.24 294.681C220.884 291.732 217.873 287.654 216.107 282.689C215.955 282.268 215.829 281.829 215.587 281.453C215.05 280.619 214.1 280.539 213.392 281.229C213.23 281.381 213.114 281.587 212.962 281.739C211.617 283.084 210.327 284.5 208.902 285.737C206.885 287.484 204.412 288.022 201.804 288.004C199.716 287.986 197.636 287.941 195.71 286.92C193.971 286.005 192.483 284.822 191.291 283.371C191.318 283.209 191.318 283.164 191.336 283.138C191.551 282.833 191.766 282.528 191.981 282.223C194.123 279.042 195.486 275.618 195.064 271.711C194.966 270.815 194.661 269.865 194.195 269.094C193.138 267.32 191.273 267.06 189.723 268.404C189.114 268.933 188.558 269.587 188.182 270.295C186.855 272.751 186.237 275.385 186.64 278.173C186.864 279.75 187.276 281.3 187.617 282.94C186.389 284.338 182.715 286.382 180.304 286.776C178.063 287.135 175.805 288.103 173.538 286.857C165.31 284.473 159.207 276.667 158.777 268.108C158.625 265.097 159.539 262.372 160.722 259.693C161.69 257.479 160.811 257.013 159.27 256.744C157.953 256.511 156.608 256.449 155.273 256.314C153.418 256.126 151.527 256.117 149.725 255.723C144.312 254.531 140.109 251.286 136.282 247.469C134.642 245.837 133.423 243.884 132.59 241.769C130.833 237.324 130.69 232.744 132.007 228.155C132.545 226.291 133.423 224.571 134.633 223.002C135.054 223.155 135.404 223.271 135.754 223.397C139.311 224.606 142.672 224.194 145.8 222.106C147.234 221.156 147.969 219.758 148.04 218.046C148.175 215.178 146.158 213.404 143.317 213.879C140.71 214.309 138.469 215.555 136.399 217.132C135.574 217.759 134.795 218.458 133.961 219.149C132.115 217.983 130.968 216.325 130.394 214.282C128.862 208.815 129.677 203.689 132.93 199.038C135.521 195.327 139.213 193.033 143.371 191.456C143.909 191.25 144.554 191.196 145.128 191.268C147.368 191.536 149.6 191.51 151.831 191.232C155.748 190.748 159.575 189.87 163.025 187.907C168.151 184.994 172.453 181.078 176.065 176.444C182.867 167.724 187.169 157.848 189.293 147.004C189.544 145.713 189.786 144.414 190.055 143.034C190.368 143.24 190.547 143.365 190.736 143.491C194.079 145.83 197.717 147.479 201.714 148.348C207.19 149.54 212.325 148.734 217.066 145.713C218.823 144.593 220.543 143.392 222.264 142.209C223.833 141.125 225.338 139.96 226.933 138.92C230.509 136.572 234.354 134.816 238.674 134.592C245.691 134.224 251.579 136.832 256.401 141.887C258.516 144.1 259.976 146.744 261.249 149.504C262.02 151.171 263.31 151.252 264.422 149.809C267.872 145.364 272.147 141.94 277.291 139.637C279.747 138.535 282.319 137.997 285.025 138.15C288.413 138.338 291.478 139.35 293.961 141.761C296.452 144.181 298.146 147.094 299.114 150.419C299.212 150.759 299.221 151.118 299.275 151.485C298.773 151.673 298.37 151.781 298.011 151.96C296.21 152.847 294.364 153.681 292.625 154.685C290.851 155.706 289.677 157.301 289.005 159.237C288.126 161.765 289.578 163.951 292.24 164.166C293.701 164.283 295.063 163.978 296.344 163.315C298.504 162.195 300.082 160.492 301.274 158.413C301.901 157.319 302.206 156.145 302.197 154.882C302.197 154.407 302.197 153.932 302.197 153.385C303.335 153.179 304.357 152.955 305.387 152.82C309.268 152.327 313.086 152.534 316.697 154.138C319.843 155.536 322.774 157.328 325.516 159.425C328.5 161.711 330.615 164.731 332.739 167.769C335.016 171.04 336.118 174.643 336.208 178.577C336.252 180.701 336.217 182.834 336.208 184.958C336.208 185.55 336.244 186.159 336.136 186.733C336.028 187.333 336.002 187.862 336.584 188.203C337.149 188.525 337.633 188.292 338.117 187.925C339.156 187.136 340.223 186.383 341.289 185.639C341.289 185.639 347.186 182.252 350.583 184.214C350.986 184.447 351.273 184.609 351.56 184.779C353.316 185.81 354.159 187.53 353.666 189.52C353.388 190.622 352.904 191.698 352.366 192.702C351.873 193.616 351.174 194.413 350.574 195.274C350.153 195.874 349.821 196.501 350.233 197.236C350.619 197.917 351.273 198.034 351.981 197.989C352.572 197.953 353.173 197.891 353.764 197.828C355.548 197.622 357.268 197.828 358.9 198.59L358.846 198.554ZM336.145 257.121C333.994 257.345 330.526 255.158 330.158 253.222C333.035 253.321 334.379 255.463 336.145 257.121ZM136.811 220.529C138.774 218.763 140.853 217.32 143.434 216.747C143.972 216.63 144.59 216.496 144.984 217.033C145.406 217.607 145.271 218.27 144.958 218.826C144.725 219.229 144.384 219.632 143.999 219.874C141.866 221.201 139.571 221.523 137.152 220.78C137.062 220.753 136.99 220.654 136.82 220.52L136.811 220.529ZM366.114 173.352C364.904 174.007 363.649 174.589 362.404 175.19C359.348 176.668 356.614 178.586 354.338 181.123C353.872 181.642 353.469 182.216 353.056 182.736C352.608 182.565 352.241 182.431 351.811 182.27C351.811 182.27 346.72 180.728 342.678 182.153C341.226 182.565 339.9 183.291 338.565 184.071C338.95 181.723 338.941 179.42 338.851 177.108C338.834 176.615 339.04 176.077 339.264 175.629C341.217 171.784 344.39 169.275 348.324 167.697C351.56 166.407 354.947 165.977 358.416 166.013C359.034 166.013 362.153 166.237 362.682 166.38C363.721 166.658 364.788 166.909 365.782 167.321C367.252 167.921 367.629 169.23 367.763 170.691C367.889 172.035 367.145 172.797 366.114 173.361V173.352Z" fill="#494E90"/>
</g>
<g clip-path="url(#clip1_4038_5)">
<path d="M53.5973 99.6067C53.3659 98.0362 53.0247 96.5412 52.9289 95.0274C52.6707 90.7008 54.8918 87.0515 58.7623 85.3195C60.9502 84.34 63.1547 84.506 65.2566 85.543C68.7005 87.2344 71.1335 89.9731 72.7656 93.3972C74.2698 96.5492 74.652 99.9806 74.8582 103.412C75.1652 108.412 74.772 113.394 74.3396 118.367C74.3004 118.813 74.222 119.251 74.1262 119.694C73.8168 121.148 72.9151 122.083 71.4877 122.434C69.0225 123.033 66.5631 123.584 63.9782 123.417C62.12 123.298 60.2429 123.527 58.3993 123.358C53.6411 122.934 49.186 121.52 45.2417 118.746C42.7008 116.964 40.8169 114.617 39.9516 111.601C38.282 105.73 41.9682 100.125 48.0095 99.2354C49.617 99.0034 51.2027 99.074 52.7777 99.4534C53.0547 99.5189 53.3422 99.5539 53.5863 99.6004L53.5973 99.6067ZM71.1177 97.1448C70.9935 96.677 70.9017 96.1914 70.7452 95.7415C69.5702 92.5021 67.5399 89.9533 64.5538 88.2052C63.0608 87.3312 61.4643 87.1151 59.8199 87.8019C57.1642 88.9055 55.4518 91.5019 55.4548 94.4127C55.4597 96.1082 55.7487 97.7561 56.3975 99.3271C56.8391 100.397 57.3216 101.446 57.7718 102.514C58.0217 103.106 58.0585 103.699 57.4997 104.144C56.9947 104.547 56.4516 104.422 55.9405 104.103C55.7519 103.986 55.5673 103.85 55.385 103.722C53.2456 102.194 50.8591 101.622 48.2787 102.066C42.2135 103.11 41.0587 108.786 42.9584 112.38C43.9238 114.2 45.2175 115.721 46.8995 116.888C50.3865 119.3 54.313 120.539 58.5095 120.909C62.497 121.26 66.3759 120.258 70.3128 119.964C70.9491 119.916 71.3081 119.487 71.3925 118.862C71.4676 118.341 71.5536 117.827 71.5831 117.309C71.7825 114.113 72.0166 110.907 72.1485 107.701C72.2993 104.147 71.957 100.622 71.1223 97.1621L71.1177 97.1448Z" fill="#494E90"/>
<path d="M80.222 267.658C80.2451 267.151 80.2502 266.751 80.2726 266.346C80.5627 261.605 84.2598 258.556 88.9514 259.184C92.7782 259.698 95.2938 261.979 97.0149 265.25C98.671 268.38 99.2443 271.798 99.4752 275.288C99.7627 279.69 99.3992 284.015 97.7744 288.164C97.5984 288.619 97.431 289.071 97.2331 289.513C96.5212 291.093 95.3252 291.967 93.5667 291.979C93.1233 291.986 92.6667 291.977 92.235 291.888C89.7497 291.398 87.2517 290.929 84.7827 290.361C80.3681 289.344 76.2274 287.717 72.6682 284.823C71.2869 283.706 70.0946 282.428 69.3321 280.813C67.7329 277.408 68.5619 272.95 71.3729 270.405C73.703 268.285 76.4073 267.085 79.6672 267.629C79.8133 267.655 79.9588 267.644 80.237 267.645L80.222 267.658ZM95.7454 269.759C95.3954 268.86 95.032 267.631 94.4572 266.513C93.1462 263.949 91.2225 262.151 88.1757 261.921C85.8189 261.74 84.0602 262.939 83.31 265.179C82.9183 266.358 82.9984 267.533 83.2458 268.71C83.6627 270.63 82.5323 271.681 80.63 270.767C77.8455 269.429 73.9126 270.751 72.2353 273.375C70.539 276.032 70.4603 279.159 73.1682 281.816C74.5089 283.129 76.0566 284.174 77.7274 285.019C80.412 286.365 83.2675 287.202 86.2041 287.786C87.9962 288.145 89.7779 288.534 91.5578 288.952C93.763 289.47 94.2742 289.195 95.0451 287.034C97.0208 281.447 96.9714 275.776 95.7344 269.753L95.7454 269.759Z" fill="#494E90"/>
</g>
<path d="M20.4678 196.938C21.5784 195.568 22.5198 194.224 23.6527 193.042C25.3468 191.285 27.4103 190.116 29.8884 189.811C35.5652 189.12 38.0146 193.143 38.5421 196.703C38.9739 199.658 38.6818 202.61 37.2564 205.204C35.5046 208.386 34.1018 211.799 31.5764 214.547C29.9649 216.3 28.5494 218.234 27.0018 220.054C26.4717 220.677 25.847 221.223 25.2131 221.734C24.3342 222.44 23.3105 222.601 22.2568 222.194C20.7265 221.599 19.2604 220.931 17.9408 219.872C16.5266 218.736 14.8794 217.875 13.386 216.825C9.28363 213.945 6.04176 210.29 3.75337 205.825C2.79378 203.957 2.07159 201.969 2.05387 199.841C2.02504 196.344 3.27247 193.463 6.52458 191.812C8.84438 190.63 11.2782 190.717 13.6913 191.634C16.063 192.535 17.8269 194.255 19.5868 195.995C19.9022 196.31 20.194 196.64 20.4765 196.936L20.4678 196.938ZM5.07596 201.376C5.789 203.783 6.75671 205.612 7.94912 207.345C10.8163 211.545 14.6818 214.58 19.0542 217.045C20.0581 217.613 21.0578 218.201 22.0148 218.837C22.9632 219.475 23.231 219.506 24.0459 218.734C24.4233 218.374 24.7984 218.005 25.1273 217.603C26.9091 215.442 28.6931 213.291 30.4397 211.102C32.0538 209.079 33.3346 206.848 34.429 204.508C35.5043 202.201 36.0457 199.804 35.7999 197.236C35.4759 193.919 33.3299 192.087 30.1496 192.542C29.4966 192.632 28.8388 192.844 28.2363 193.124C25.863 194.208 24.2686 196.096 23.0686 198.353C22.8019 198.85 22.5964 199.368 22.2835 199.832C21.615 200.806 20.5976 200.956 19.6783 200.217C19.2757 199.888 18.9587 199.462 18.5839 199.098C17.4416 197.973 16.3421 196.8 15.1229 195.77C14.3944 195.157 13.5262 194.645 12.6428 194.286C8.74668 192.743 5.03411 195.175 4.92017 199.322C4.89497 200.135 5.05452 200.946 5.09328 201.371L5.07596 201.376Z" fill="#494E90"/>
<defs>
<clipPath id="clip0_4038_5">
<rect width="341.893" height="255.929" fill="white" transform="translate(28.9619 74.125)"/>
</clipPath>
<clipPath id="clip1_4038_5">
<rect width="369.81" height="275.072" fill="white" transform="translate(20 95.5059) rotate(-14.8646)"/>
</clipPath>
</defs>
</svg>
