<svg width="150" height="150" viewBox="0 0 150 150" fill="none" xmlns="http://www.w3.org/2000/svg">
<g opacity="0.78">
<path d="M32.5391 36.4428C31.933 36.6777 31.2509 36.3777 31.0167 35.7732L29.5024 31.8657C29.2681 31.2611 29.5699 30.5799 30.1761 30.345C30.7822 30.1101 31.4643 30.4101 31.6985 31.0146L33.2128 34.9221C33.4471 35.5266 33.1453 36.2079 32.5391 36.4428Z" fill="#494E90"/>
<path d="M42.7209 148.926C42.2773 149.098 41.774 148.986 41.4449 148.645C41.114 148.299 41.029 147.793 41.2186 147.357L42.6684 144.085C42.795 143.799 43.032 143.576 43.3219 143.463C43.6118 143.351 43.937 143.356 44.2233 143.482C44.5095 143.608 44.7324 143.844 44.8444 144.133C44.9564 144.422 44.9509 144.747 44.8242 145.033L43.3744 148.305C43.2478 148.591 43.0108 148.814 42.7209 148.926Z" fill="#494E90"/>
<path d="M119.09 119.331L42.7209 148.926C42.1147 149.161 41.4327 148.861 41.1984 148.257L11.6825 72.0912C11.4482 71.4867 11.75 70.8054 12.3561 70.5705L88.7252 40.9757C89.3314 40.7408 90.0135 41.0407 90.2477 41.6453L119.764 117.811C119.998 118.415 119.696 119.097 119.09 119.331ZM42.9707 146.31L117.144 117.566L88.4766 43.5911L14.3034 72.335L42.9707 146.31Z" fill="#494E90"/>
<path d="M119.09 119.331C118.8 119.444 118.475 119.439 118.189 119.313C117.903 119.187 117.68 118.951 117.568 118.662L88.0517 42.4963C87.9397 42.2072 87.9452 41.8826 88.0719 41.5967L105.892 1.37169C106.088 0.938123 106.52 0.659619 106.999 0.670462C107.474 0.683004 107.897 0.977812 108.068 1.42025L137.584 77.5857C137.696 77.8748 137.69 78.1995 137.564 78.4854L119.744 118.71C119.617 118.996 119.38 119.219 119.09 119.331ZM90.4246 42.1012L118.738 115.165L135.211 77.981L106.897 4.91736L90.4246 42.1012Z" fill="#494E90"/>
<path d="M89.5741 43.1659L13.205 72.7608C12.7614 72.9327 12.2581 72.8204 11.9289 72.4794C11.5981 72.134 11.513 71.6278 11.7027 71.1916L29.5229 30.9666C29.6495 30.6807 29.8865 30.4578 30.1764 30.3455L106.545 0.75062C106.989 0.578708 107.492 0.691026 107.822 1.03204C108.152 1.37744 108.237 1.88361 108.048 2.31985L90.2276 42.5448C90.101 42.8307 89.864 43.0536 89.5741 43.1659ZM15.0087 69.5426L88.2677 41.153L104.741 3.96916L31.4816 32.3588L15.0087 69.5426Z" fill="#494E90"/>
<path d="M35.819 44.9064C35.2129 45.1412 34.5308 44.8413 34.2966 44.2367L32.7823 40.3292C32.548 39.7247 32.8498 39.0434 33.456 38.8085C34.0621 38.5736 34.7442 38.8736 34.9785 39.4782L36.4927 43.3857C36.727 43.9902 36.4252 44.6715 35.819 44.9064Z" fill="#494E90"/>
<path d="M39.0971 53.3653C38.491 53.6002 37.8089 53.3002 37.5747 52.6957L36.0604 48.7882L36.0621 48.7926C35.8278 48.188 36.1296 47.5068 36.7358 47.2719C37.3419 47.037 38.024 47.337 38.2582 47.9415L39.7725 51.849L39.7708 51.8446C40.0051 52.4492 39.7033 53.1304 39.0971 53.3653Z" fill="#494E90"/>
<path d="M42.3769 61.8288C41.7708 62.0637 41.0887 61.7637 40.8544 61.1592L39.3402 57.2517L39.3419 57.256C39.1076 56.6515 39.4094 55.9703 40.0156 55.7354C40.6217 55.5005 41.3038 55.8005 41.538 56.405L43.0523 60.3125L43.0506 60.3081C43.2849 60.9126 42.983 61.5939 42.3769 61.8288Z" fill="#494E90"/>
<path d="M45.6567 70.2922C45.0506 70.5271 44.3685 70.2271 44.1342 69.6226L42.6217 65.7195C42.3857 65.1106 42.6892 64.4337 43.2953 64.1988C43.9015 63.9639 44.5818 64.2595 44.8178 64.8684L46.3321 68.7759L46.3304 68.7716C46.5646 69.3761 46.2628 70.0573 45.6567 70.2922Z" fill="#494E90"/>
<path d="M48.9362 78.7548C48.3301 78.9897 47.648 78.6897 47.4138 78.0852L45.8995 74.1777C45.6652 73.5731 45.967 72.8919 46.5732 72.657C47.1793 72.4221 47.8614 72.7221 48.0956 73.3266L49.6099 77.2341C49.8442 77.8386 49.5424 78.5199 48.9362 78.7548Z" fill="#494E90"/>
<path d="M52.2158 87.218C51.6096 87.4529 50.9276 87.1529 50.6933 86.5484L49.179 82.6409C48.9448 82.0364 49.2466 81.3551 49.8527 81.1202C50.4588 80.8853 51.1409 81.1853 51.3752 81.7898L52.8894 85.6974C53.1237 86.3019 52.8219 86.9831 52.2158 87.218Z" fill="#494E90"/>
<path d="M55.4957 95.6815C54.8895 95.9164 54.2075 95.6164 53.9732 95.0119L52.4589 91.1044C52.2247 90.4998 52.5265 89.8186 53.1326 89.5837C53.7388 89.3488 54.4208 89.6488 54.6551 90.2533L56.1693 94.1608C56.4036 94.7653 56.1018 95.4466 55.4957 95.6815Z" fill="#494E90"/>
<path d="M58.7753 104.145C58.1692 104.38 57.4871 104.08 57.2529 103.475L55.7386 99.5678C55.5043 98.9633 55.8061 98.282 56.4123 98.0471C57.0184 97.8122 57.7005 98.1122 57.9348 98.7167L59.449 102.624C59.6833 103.229 59.3815 103.91 58.7753 104.145Z" fill="#494E90"/>
<path d="M57.6897 115.136C57.246 115.308 56.7384 115.198 56.4136 114.855C56.0844 114.514 55.9933 114.005 56.1874 113.567L57.885 109.735C58.0117 109.449 58.2486 109.226 58.5385 109.114C58.8328 109 59.1537 109.006 59.4399 109.132C59.7261 109.258 59.9473 109.49 60.061 109.783C60.1731 110.073 60.1675 110.397 60.0409 110.683L58.3432 114.515C58.2166 114.801 57.9796 115.024 57.6897 115.136Z" fill="#494E90"/>
<path d="M53.8855 123.725C53.4418 123.897 52.9386 123.785 52.6094 123.444C52.2785 123.098 52.1935 122.592 52.3832 122.156L54.0808 118.324L54.0852 118.322C54.3449 117.728 55.0433 117.457 55.6357 117.721C56.2308 117.979 56.5007 118.676 56.2349 119.267L54.539 123.104C54.4123 123.39 54.1754 123.613 53.8855 123.725Z" fill="#494E90"/>
<path d="M50.0803 132.314C49.6367 132.486 49.1334 132.374 48.8026 132.029C48.4778 131.686 48.3884 131.181 48.578 130.745L50.2756 126.913L50.28 126.911C50.5441 126.315 51.2381 126.046 51.8305 126.31C52.4256 126.569 52.6938 127.261 52.4298 127.857L50.7338 131.693C50.6072 131.979 50.3746 132.2 50.0803 132.314Z" fill="#494E90"/>
<path d="M46.275 140.902C45.8313 141.074 45.3281 140.962 44.9972 140.617C44.6724 140.274 44.5813 139.765 44.777 139.332L46.4747 135.499L46.473 135.495C46.5996 135.209 46.8366 134.986 47.1265 134.874C47.4164 134.762 47.7416 134.767 48.0279 134.893C48.3141 135.018 48.537 135.255 48.649 135.544C48.761 135.833 48.7555 136.157 48.6288 136.443L46.9268 140.277C46.8001 140.563 46.5692 140.788 46.275 140.902Z" fill="#494E90"/>
<path d="M136.91 79.1064L132.992 80.6247C132.386 80.8596 131.704 80.5597 131.47 79.9551C131.236 79.3506 131.537 78.6693 132.143 78.4345L136.061 76.9161C136.668 76.6813 137.35 76.9812 137.584 77.5858C137.818 78.1903 137.516 78.8715 136.91 79.1064Z" fill="#494E90"/>
<path d="M128.424 82.395L124.506 83.9133C123.9 84.1482 123.218 83.8482 122.984 83.2437C122.749 82.6392 123.051 81.9579 123.657 81.723L127.575 80.2047C128.182 79.9698 128.864 80.2698 129.098 80.8743C129.332 81.4788 129.03 82.1601 128.424 82.395Z" fill="#494E90"/>
<path d="M119.938 85.6835L116.02 87.2019L116.025 87.2002C115.418 87.435 114.736 87.1351 114.502 86.5305C114.268 85.926 114.57 85.2448 115.176 85.0099L119.094 83.4916L119.089 83.4933C119.695 83.2584 120.377 83.5584 120.612 84.1629C120.846 84.7674 120.544 85.4487 119.938 85.6835Z" fill="#494E90"/>
<path d="M111.452 88.9721L107.534 90.4904L107.538 90.4887C106.932 90.7236 106.25 90.4236 106.016 89.8191C105.782 89.2146 106.083 88.5333 106.69 88.2984L110.608 86.7801L110.603 86.7818C111.209 86.5469 111.891 86.8469 112.126 87.4515C112.36 88.056 112.058 88.7372 111.452 88.9721Z" fill="#494E90"/>
<path d="M102.967 92.2602L99.0534 93.7768C98.4473 94.0117 97.7652 93.7117 97.531 93.1072C97.2967 92.5027 97.5985 91.8214 98.2046 91.5865L102.123 90.0682L102.118 90.0699C102.729 89.8333 103.406 90.135 103.641 90.7395C103.875 91.3441 103.578 92.0236 102.967 92.2602Z" fill="#494E90"/>
<path d="M94.4856 95.547L90.5676 97.0654C89.9615 97.3003 89.2794 97.0003 89.0451 96.3957C88.8109 95.7912 89.1127 95.11 89.7188 94.8751L93.6368 93.3568C94.2429 93.1219 94.925 93.4219 95.1592 94.0264C95.3935 94.6309 95.0917 95.3122 94.4856 95.547Z" fill="#494E90"/>
<path d="M85.9996 98.8358L82.0816 100.354C81.4755 100.589 80.7934 100.289 80.5592 99.6845C80.3249 99.08 80.6267 98.3987 81.2328 98.1638L85.1508 96.6455C85.7569 96.4106 86.439 96.7106 86.6733 97.3151C86.9075 97.9197 86.6057 98.6009 85.9996 98.8358Z" fill="#494E90"/>
<path d="M77.5133 102.124L73.5953 103.642C72.9892 103.877 72.3071 103.577 72.0728 102.973C71.8386 102.368 72.1404 101.687 72.7465 101.452L76.6645 99.9339C77.2706 99.699 77.9527 99.999 78.187 100.603C78.4212 101.208 78.1194 101.889 77.5133 102.124Z" fill="#494E90"/>
<path d="M69.0274 105.413L65.1095 106.931C64.5033 107.166 63.8213 106.866 63.587 106.262C63.3527 105.657 63.6545 104.976 64.2607 104.741L68.1786 103.223C68.7848 102.988 69.4668 103.288 69.7011 103.892C69.9354 104.497 69.6336 105.178 69.0274 105.413Z" fill="#494E90"/>
</g>
</svg>
