<svg width="27" height="32" viewBox="0 0 27 32" fill="none" xmlns="http://www.w3.org/2000/svg">
<path d="M3.6974 5.53565C4.00822 5.70948 6.10033 6.71397 7.11106 7.19766C7.11502 7.58753 7.1237 8.26174 7.13702 8.2732C7.24842 9.23864 7.43965 10.3112 7.49503 10.6141C7.40314 10.6647 6.93081 10.9717 6.93081 11.9264L6.93213 11.9422C6.93143 11.9673 6.93081 11.9925 6.93081 12.0185C7.13411 14.6722 8.19606 13.5285 8.41505 14.6909C8.7793 16.6236 10.5012 18.0219 11.573 18.5046C12.1925 18.7835 12.83 18.9257 13.5 18.9394C14.17 18.9258 14.8075 18.7835 15.427 18.5046C16.4988 18.0219 18.2207 16.6235 18.585 14.6909C18.8039 13.5284 19.8659 14.6722 20.0693 12.0185C20.0693 11.9925 20.0686 11.9673 20.0679 11.9422L20.0693 11.9264C20.0693 10.9716 19.5968 10.6647 19.505 10.6141C19.5604 10.3112 19.7516 9.23871 19.863 8.2732C19.8762 8.26174 19.885 7.5876 19.8889 7.19766C20.613 6.85139 21.3361 6.50329 22.0584 6.15337V8.71867C21.8547 8.83814 21.7115 9.04901 21.7115 9.30045C21.7115 9.52305 21.8252 9.71164 21.9909 9.83628C21.9909 9.83628 21.6963 11.4818 21.6011 11.9658C21.5059 12.4496 23.2809 12.3525 23.201 11.9658C23.1212 11.5789 22.8114 9.83628 22.8114 9.83628C22.9771 9.71164 23.0908 9.52305 23.0908 9.30045C23.0908 9.04895 22.9482 8.83821 22.7447 8.71867V5.81819C23.018 5.68348 23.2213 5.58104 23.3025 5.53565C23.5225 5.41266 23.6409 5.25532 23.6159 5.09183C23.646 4.92138 23.5219 4.73817 23.1891 4.57621C20.8137 3.42065 14.758 0.475411 14.1592 0.191558C13.8979 0.0677384 13.6829 0.0130372 13.5 0C13.3171 0.0130372 13.1021 0.0677384 12.8408 0.191558C12.242 0.475411 6.18626 3.42072 3.81096 4.57621C3.478 4.73817 3.35404 4.92138 3.38416 5.09183C3.35904 5.25532 3.47752 5.41266 3.6974 5.53565ZM21.562 22.1347C20.4444 21.7342 18.4993 20.5798 18.166 20.4017C18.0769 20.35 17.9756 20.3228 17.8725 20.3227C17.7615 20.3227 17.6529 20.3541 17.5593 20.4132C17.4656 20.4723 17.3908 20.5567 17.3436 20.6564C16.4222 22.1894 14.714 26.6471 13.5221 26.7298C13.5149 26.7292 13.5074 26.7278 13.5 26.727C13.4926 26.7278 13.4851 26.7292 13.4779 26.7298C12.286 26.6471 10.5778 22.1894 9.65635 20.6564C9.60916 20.5567 9.53437 20.4723 9.44073 20.4132C9.34709 20.3541 9.23845 20.3227 9.12753 20.3227C9.02435 20.3228 8.92304 20.35 8.83393 20.4017C8.5007 20.5798 6.55552 21.7342 5.43804 22.1347C1.68705 23.4788 0 24.8497 0 25.7844V32H27V25.7844C26.9999 24.8497 25.313 23.4788 21.562 22.1347Z" fill="#839AA7"/>
</svg>
