<svg width="29" height="29" viewBox="0 0 29 29" fill="none" xmlns="http://www.w3.org/2000/svg">
<path d="M23.3827 28.275H6.5163C4.62927 28.275 3.0943 26.74 3.0943 24.853V24.7051C3.0943 22.8183 4.62927 21.2831 6.5163 21.2831H23.3827C23.575 21.2831 23.7594 21.3595 23.8953 21.4954C24.0313 21.6314 24.1077 21.8158 24.1077 22.0081V27.55C24.1077 27.7423 24.0313 27.9267 23.8953 28.0626C23.7594 28.1986 23.575 28.275 23.3827 28.275ZM6.5163 22.7331C5.4288 22.7331 4.5443 23.6176 4.5443 24.7051V24.853C4.5443 25.9405 5.4288 26.825 6.5163 26.825H22.6577V22.7331H6.5163Z" fill="#839AA7"/>
<path d="M23.8728 1.45001H6.59171C5.82901 1.45001 5.13301 1.76031 4.63421 2.26201C4.13251 2.76661 3.81931 3.45681 3.81931 4.22241V24.7051C3.81931 23.2145 5.02861 22.0081 6.51631 22.0081H23.8728C24.5949 22.0081 25.1807 21.4223 25.1807 20.7002V2.75791C25.1807 2.03581 24.5949 1.45001 23.8728 1.45001ZM8.96971 11.4666C8.96971 11.2743 9.04609 11.0899 9.18205 10.954C9.31802 10.818 9.50242 10.7416 9.69471 10.7416H20.8916C21.0839 10.7416 21.2683 10.818 21.4043 10.954C21.5402 11.0899 21.6166 11.2743 21.6166 11.4666C21.6166 11.6589 21.5402 11.8433 21.4043 11.9793C21.2683 12.1152 21.0839 12.1916 20.8916 12.1916H9.69471C9.50242 12.1916 9.31802 12.1152 9.18205 11.9793C9.04609 11.8433 8.96971 11.6589 8.96971 11.4666ZM20.8916 6.84111H9.69471C9.50242 6.84111 9.31802 6.76473 9.18205 6.62876C9.04609 6.4928 8.96971 6.30839 8.96971 6.11611C8.96971 5.92383 9.04609 5.73942 9.18205 5.60346C9.31802 5.4675 9.50242 5.39111 9.69471 5.39111H20.8916C21.0839 5.39111 21.2683 5.4675 21.4043 5.60346C21.5402 5.73942 21.6166 5.92383 21.6166 6.11611C21.6166 6.30839 21.5402 6.4928 21.4043 6.62876C21.2683 6.76473 21.0839 6.84111 20.8916 6.84111Z" fill="#839AA7"/>
<path d="M23.8728 0.724976H6.5917C5.655 0.724976 4.7763 1.09038 4.1209 1.75158C3.4597 2.41568 3.0943 3.29438 3.0943 4.22238V24.7051C3.0943 24.8974 3.17068 25.0818 3.30665 25.2177C3.44261 25.3537 3.62702 25.4301 3.8193 25.4301C4.01158 25.4301 4.19599 25.3537 4.33195 25.2177C4.46792 25.0818 4.5443 24.8974 4.5443 24.7051C4.5443 23.6176 5.4288 22.7331 6.5163 22.7331H23.8728C24.9951 22.7331 25.9057 21.8225 25.9057 20.7002V2.75788C25.9057 1.63558 24.9951 0.724976 23.8728 0.724976ZM24.4557 20.7002C24.4557 21.0221 24.1947 21.2831 23.8728 21.2831H6.5163C5.7826 21.2831 5.1011 21.5151 4.5443 21.9095V4.22238C4.5443 3.68008 4.7589 3.16388 5.1475 2.77238C5.33662 2.58205 5.56169 2.43123 5.80962 2.32867C6.05755 2.22611 6.3234 2.17387 6.5917 2.17498H23.8728C24.1947 2.17498 24.4557 2.43598 24.4557 2.75788V20.7002Z" fill="#839AA7"/>
<path d="M3.8193 25.5055C3.62702 25.5055 3.44261 25.4291 3.30665 25.2932C3.17068 25.1572 3.0943 24.9728 3.0943 24.7805V24.7051C3.0943 24.5128 3.17068 24.3284 3.30665 24.1924C3.44261 24.0565 3.62702 23.9801 3.8193 23.9801C4.01158 23.9801 4.19599 24.0565 4.33195 24.1924C4.46792 24.3284 4.5443 24.5128 4.5443 24.7051V24.7805C4.5443 24.9728 4.46792 25.1572 4.33195 25.2932C4.19599 25.4291 4.01158 25.5055 3.8193 25.5055ZM24.5572 28.275H23.3839C23.1916 28.275 23.0072 28.1986 22.8712 28.0627C22.7352 27.9267 22.6589 27.7423 22.6589 27.55C22.6589 27.3577 22.7352 27.1733 22.8712 27.0373C23.0072 26.9014 23.1916 26.825 23.3839 26.825H24.5575C24.7498 26.825 24.9342 26.9014 25.0701 27.0373C25.2061 27.1733 25.2825 27.3577 25.2825 27.55C25.2825 27.7423 25.2061 27.9267 25.0701 28.0627C24.9342 28.1986 24.7495 28.275 24.5572 28.275Z" fill="#839AA7"/>
</svg>
