<svg width="106" height="106" viewBox="0 0 106 106" fill="none" xmlns="http://www.w3.org/2000/svg">
<g opacity="0.78">
<path d="M19.8952 34.7195C19.5445 34.9635 19.0623 34.8777 18.8189 34.528L17.2456 32.2674C17.0022 31.9176 17.0893 31.4357 17.44 31.1917C17.7906 30.9476 18.2728 31.0334 18.5162 31.3831L20.0895 33.6438C20.3329 33.9935 20.2458 34.4754 19.8952 34.7195Z" fill="#494E90"/>
<path d="M43.8492 104.978C43.5925 105.157 43.2537 105.163 42.9906 104.996C42.7257 104.827 42.5929 104.517 42.6463 104.209L43.0645 101.894C43.101 101.692 43.2178 101.512 43.3855 101.396C43.5532 101.279 43.7617 101.232 43.9641 101.268C44.1664 101.304 44.3453 101.42 44.4617 101.587C44.5782 101.754 44.625 101.963 44.5884 102.165L44.1702 104.48C44.1337 104.682 44.0169 104.861 43.8492 104.978Z" fill="#494E90"/>
<path d="M88.0303 74.229L43.848 104.978C43.4974 105.222 43.0152 105.136 42.7718 104.786L12.105 60.722C11.8616 60.3722 11.9487 59.8903 12.2993 59.6463L56.4816 28.8974C56.8323 28.6534 57.3144 28.7392 57.5578 29.0889L88.2246 73.1533C88.468 73.5031 88.381 73.985 88.0303 74.229ZM43.6017 103.268L86.5135 73.4037L56.7285 30.6064L13.8167 60.471L43.6017 103.268Z" fill="#494E90"/>
<path d="M88.0307 74.2284C87.863 74.3451 87.6545 74.3924 87.4521 74.3564C87.2498 74.3204 87.0709 74.2042 86.9544 74.0369L56.2876 29.9725C56.1712 29.8052 56.1244 29.597 56.1609 29.3948L61.3014 0.940251C61.3591 0.632984 61.5922 0.387999 61.8999 0.3206C62.205 0.254967 62.5205 0.377717 62.6986 0.633684L93.3655 44.6981C93.4819 44.8654 93.5287 45.0736 93.4921 45.2758L88.3517 73.7304C88.3151 73.9326 88.1984 74.1117 88.0307 74.2284ZM57.7417 29.352L87.1597 71.6219L91.9115 45.3186L62.4936 3.04874L57.7417 29.352Z" fill="#494E90"/>
<path d="M57.3636 30.1646L13.1813 60.9135C12.9246 61.0921 12.5858 61.0984 12.3227 60.9317C12.0578 60.7624 11.925 60.4524 11.9784 60.1443L17.1189 31.6898C17.1554 31.4875 17.2722 31.3085 17.4399 31.1917L61.6221 0.442919C61.8788 0.2643 62.2176 0.25796 62.4808 0.42468C62.7457 0.593941 62.8785 0.904021 62.825 1.21205L57.6846 29.6666C57.648 29.8688 57.5313 30.0479 57.3636 30.1646ZM13.834 58.5783L56.2169 29.0817L60.9687 2.77847L18.5858 32.275L13.834 58.5783Z" fill="#494E90"/>
<path d="M23.3034 39.616C22.9527 39.86 22.4705 39.7742 22.2271 39.4245L20.6538 37.1639C20.4104 36.8141 20.4975 36.3322 20.8482 36.0882C21.1988 35.8441 21.681 35.9299 21.9244 36.2796L23.4977 38.5402C23.7411 38.89 23.654 39.3719 23.3034 39.616Z" fill="#494E90"/>
<path d="M26.7088 44.5094C26.3581 44.7535 25.876 44.6677 25.6326 44.318L24.0593 42.0573L24.0611 42.0599C23.8177 41.7101 23.9047 41.2282 24.2554 40.9841C24.6061 40.7401 25.0882 40.8259 25.3316 41.1756L26.9049 43.4362L26.9031 43.4337C27.1465 43.7834 27.0595 44.2654 26.7088 44.5094Z" fill="#494E90"/>
<path d="M30.116 49.4064C29.7654 49.6504 29.2832 49.5647 29.0398 49.2149L27.4665 46.9543L27.4683 46.9568C27.2249 46.6071 27.3119 46.1252 27.6626 45.8811C28.0133 45.6371 28.4954 45.7228 28.7388 46.0726L30.3121 48.3332L30.3104 48.3307C30.5538 48.6804 30.4667 49.1623 30.116 49.4064Z" fill="#494E90"/>
<path d="M33.5243 54.3024C33.1736 54.5464 32.6914 54.4607 32.448 54.1109L30.8765 51.8528C30.6313 51.5005 30.7202 51.0212 31.0708 50.7771C31.4215 50.5331 31.9019 50.6163 32.147 50.9686L33.7203 53.2292L33.7186 53.2267C33.962 53.5764 33.8749 54.0583 33.5243 54.3024Z" fill="#494E90"/>
<path d="M36.9313 59.1985C36.5806 59.4425 36.0985 59.3567 35.8551 59.007L34.2818 56.7464C34.0384 56.3966 34.1254 55.9147 34.4761 55.6707C34.8268 55.4266 35.3089 55.5124 35.5523 55.8621L37.1256 58.1228C37.369 58.4725 37.282 58.9544 36.9313 59.1985Z" fill="#494E90"/>
<path d="M40.3395 64.0945C39.9888 64.3385 39.5067 64.2527 39.2633 63.903L37.69 61.6424C37.4466 61.2926 37.5336 60.8107 37.8843 60.5667C38.235 60.3226 38.7171 60.4084 38.9605 60.7581L40.5338 63.0188C40.7772 63.3685 40.6902 63.8504 40.3395 64.0945Z" fill="#494E90"/>
<path d="M43.7467 68.9914C43.396 69.2355 42.9139 69.1497 42.6705 68.8L41.0972 66.5393C40.8538 66.1896 40.9409 65.7077 41.2915 65.4636C41.6422 65.2196 42.1243 65.3054 42.3677 65.6551L43.941 67.9157C44.1844 68.2655 44.0974 68.7474 43.7467 68.9914Z" fill="#494E90"/>
<path d="M47.1549 73.8874C46.8042 74.1315 46.3221 74.0457 46.0787 73.696L44.5054 71.4353C44.262 71.0856 44.3491 70.6037 44.6997 70.3596C45.0504 70.1156 45.5325 70.2014 45.7759 70.5511L47.3492 72.8117C47.5926 73.1615 47.5056 73.6434 47.1549 73.8874Z" fill="#494E90"/>
<path d="M48.1663 81.0758C47.9096 81.2545 47.5683 81.2626 47.3077 81.0941C47.0445 80.9274 46.9074 80.6165 46.9634 80.3067L47.4531 77.596C47.4896 77.3937 47.6064 77.2147 47.7741 77.0979C47.9444 76.9794 48.1503 76.9339 48.3526 76.9699C48.555 77.0059 48.7322 77.1196 48.8503 77.2894C48.9667 77.4567 49.0136 77.6648 48.977 77.8671L48.4873 80.5778C48.4508 80.78 48.334 80.9591 48.1663 81.0758Z" fill="#494E90"/>
<path d="M47.0689 87.1507C46.8123 87.3294 46.4735 87.3357 46.2103 87.169C45.9454 86.9997 45.8126 86.6896 45.866 86.3816L46.3558 83.6709L46.3583 83.6691C46.4319 83.2492 46.836 82.968 47.2553 83.0448C47.6754 83.1173 47.9559 83.5203 47.8779 83.9394L47.39 86.6527C47.3534 86.8549 47.2367 87.034 47.0689 87.1507Z" fill="#494E90"/>
<path d="M45.9711 93.2272C45.7145 93.4058 45.3757 93.4122 45.1108 93.2429C44.8502 93.0744 44.7148 92.7661 44.7682 92.4581L45.2579 89.7473L45.2605 89.7456C45.3367 89.3239 45.7382 89.0445 46.1575 89.1213C46.5776 89.1938 46.8563 89.5942 46.7801 90.0159L46.2922 92.7292C46.2556 92.9314 46.1414 93.1087 45.9711 93.2272Z" fill="#494E90"/>
<path d="M44.8743 99.3018C44.6176 99.4804 44.2788 99.4867 44.0139 99.3175C43.7533 99.149 43.6162 98.8381 43.6739 98.5309L44.1636 95.8201L44.1619 95.8176C44.1984 95.6154 44.3152 95.4363 44.4829 95.3196C44.6506 95.2029 44.8591 95.1556 45.0614 95.1916C45.2637 95.2276 45.4427 95.3438 45.5591 95.511C45.6755 95.6783 45.7223 95.8865 45.6858 96.0887L45.1935 98.8012C45.157 99.0034 45.0445 99.1833 44.8743 99.3018Z" fill="#494E90"/>
<path d="M93.1706 45.7749L90.9039 47.3524C90.5532 47.5964 90.0711 47.5107 89.8277 47.1609C89.5843 46.8112 89.6713 46.3293 90.022 46.0852L92.2887 44.5077C92.6393 44.2637 93.1215 44.3494 93.3649 44.6992C93.6083 45.0489 93.5212 45.5308 93.1706 45.7749Z" fill="#494E90"/>
<path d="M88.2624 49.1914L85.9957 50.7689C85.645 51.0129 85.1629 50.9272 84.9195 50.5774C84.6761 50.2277 84.7631 49.7458 85.1138 49.5017L87.3805 47.9242C87.7311 47.6802 88.2133 47.7659 88.4567 48.1157C88.7001 48.4654 88.613 48.9473 88.2624 49.1914Z" fill="#494E90"/>
<path d="M83.3516 52.6082L81.0849 54.1857L81.0875 54.1839C80.7368 54.428 80.2547 54.3422 80.0113 53.9925C79.7679 53.6427 79.8549 53.1608 80.2056 52.9168L82.4723 51.3393L82.4697 51.341C82.8204 51.097 83.3026 51.1827 83.546 51.5325C83.7894 51.8822 83.7023 52.3641 83.3516 52.6082Z" fill="#494E90"/>
<path d="M78.4434 56.0252L76.1767 57.6027L76.1793 57.6009C75.8286 57.845 75.3465 57.7592 75.1031 57.4095C74.8597 57.0597 74.9467 56.5778 75.2974 56.3338L77.5641 54.7562L77.5615 54.758C77.9122 54.514 78.3943 54.5997 78.6377 54.9495C78.8811 55.2992 78.7941 55.7811 78.4434 56.0252Z" fill="#494E90"/>
<path d="M73.5342 59.4417L71.2701 61.0174C70.9194 61.2615 70.4373 61.1757 70.1939 60.826C69.9505 60.4762 70.0375 59.9943 70.3882 59.7503L72.6549 58.1728L72.6523 58.1745C73.0056 57.9287 73.4852 58.0162 73.7286 58.366C73.972 58.7157 73.8875 59.1959 73.5342 59.4417Z" fill="#494E90"/>
<path d="M68.6266 62.8564L66.3599 64.4339C66.0093 64.678 65.5271 64.5922 65.2837 64.2425C65.0403 63.8927 65.1274 63.4108 65.478 63.1668L67.7447 61.5893C68.0954 61.3452 68.5776 61.431 68.821 61.7807C69.0644 62.1305 68.9773 62.6124 68.6266 62.8564Z" fill="#494E90"/>
<path d="M63.7184 66.2724L61.4517 67.8499C61.1011 68.094 60.6189 68.0082 60.3755 67.6585C60.1321 67.3087 60.2192 66.8268 60.5698 66.5828L62.8365 65.0053C63.1872 64.7612 63.6693 64.847 63.9127 65.1967C64.1561 65.5465 64.0691 66.0284 63.7184 66.2724Z" fill="#494E90"/>
<path d="M58.8083 69.6899L56.5416 71.2674C56.1909 71.5115 55.7088 71.4257 55.4654 71.076C55.222 70.7262 55.309 70.2443 55.6597 70.0003L57.9264 68.4228C58.277 68.1787 58.7592 68.2645 59.0026 68.6142C59.246 68.9639 59.1589 69.4459 58.8083 69.6899Z" fill="#494E90"/>
<path d="M53.8981 73.1064L51.6314 74.6839C51.2807 74.928 50.7986 74.8422 50.5552 74.4925C50.3118 74.1427 50.3989 73.6608 50.7495 73.4168L53.0162 71.8393C53.3669 71.5952 53.849 71.681 54.0924 72.0307C54.3358 72.3805 54.2488 72.8624 53.8981 73.1064Z" fill="#494E90"/>
</g>
</svg>
