<svg width="356" height="131" viewBox="0 0 356 131" fill="none" xmlns="http://www.w3.org/2000/svg">
<path opacity="0.76" d="M355.66 82.4228C355.769 78.3223 354.315 74.5906 351.408 71.5965C348.761 68.8629 345.463 67.3658 343.293 66.8885C345.159 61.3995 343.858 49.3365 335.613 42.8928C330.471 38.8574 324.939 36.818 319.211 36.818C313.917 36.818 308.406 38.6838 304.024 41.9165C305.282 34.4748 303.221 29.6583 297.103 25.2107C295.129 23.7787 291.657 22.8241 288.468 22.8241C285.279 22.8241 282.849 23.6703 281.243 25.2541C278.336 18.2246 270.938 13.4515 262.65 13.4515H262.129C253.017 13.6684 244.685 19.049 240.542 27.1633C237.005 11.4338 219.041 0 203.919 0C202.899 0 201.858 0.0433953 200.86 0.151875C189.925 1.25837 180.986 6.4003 175.324 14.059C174.261 13.625 173.241 13.2562 172.286 12.9959C170.377 12.4969 168.424 12.2582 166.45 12.2582C159.681 12.2582 153.324 15.1871 148.768 20.3508C146.967 15.9465 141.044 12.8223 136.054 12.627C131.91 12.4752 127.961 14.3193 123.904 18.3114C120.324 9.5679 107.307 2.99404 93.5517 3.40626C84.0272 3.68831 74.7413 7.50679 69.2956 13.343C66.0196 16.8577 64.2188 20.98 64.0235 25.3408C60.2267 23.3014 57.0157 22.3251 54 22.3251C52.2209 22.3251 50.7673 22.6505 49.5523 22.976C46.2112 23.8872 43.2171 25.1673 38.1186 32.4137C34.4086 30.9601 30.4816 30.2007 26.4679 30.2007C16.2708 30.2007 6.83307 34.9955 2.4288 42.3938C-0.673722 47.5792 -0.803897 53.9144 2.03827 59.7723C5.68318 67.2791 13.689 72.5729 23.4738 73.9614C29.0714 88.1289 43.868 98.6948 59.6193 99.6928C60.5305 99.7579 61.4417 99.7796 62.3312 99.7796C66.9742 99.7796 71.8124 99.0202 76.6722 97.5666C80.9246 99.4541 86.1317 100.669 92.2499 101.146C91.7943 103.273 92.2065 105.312 93.4866 107.134C95.9382 110.628 101.492 112.971 107.285 112.971C111.451 112.971 114.966 111.734 117.2 109.543C119.435 119.328 130.001 126.748 142.194 126.748C148.247 126.748 159.486 124.795 168.251 112.146C169.835 115.422 174.239 117.115 178.383 117.115C182.852 117.115 186.649 115.379 188.862 112.363C192.941 120.369 203.702 131 219.431 131C220.191 131 220.972 130.978 221.753 130.913C236.68 129.915 247.896 121.389 250.435 115.032C253.277 118.612 257.443 120.564 262.368 120.564C267.792 120.564 273.411 118.178 276.709 114.489C277.75 113.318 278.488 112.103 278.922 110.844C282.002 116.095 289.162 120.868 297.84 120.868C302.831 120.868 310.142 119.241 316.89 111.582C319.233 112.537 321.749 113.036 324.223 113.036C329.733 113.036 334.55 110.562 336.503 106.701C338.086 103.576 337.674 99.8663 335.353 96.1129C351.842 95.2234 355.573 88.1722 355.747 82.2926L355.66 82.4228ZM59.706 98.0222C44.4321 97.0459 30.1345 86.7186 24.9275 72.92C24.819 72.6163 24.5369 72.3993 24.2115 72.3559C14.7738 71.1409 7.07172 66.1726 3.62207 59.078C1.04026 53.7625 1.14874 48.0565 3.94751 43.3919C8.04804 36.5142 16.9 32.0666 26.4679 32.0666C30.4816 32.0666 34.4086 32.8476 38.0969 34.4097C38.4874 34.5833 38.9213 34.4314 39.16 34.0843C44.1718 26.8162 46.8187 25.6229 50.008 24.7767C51.0928 24.473 52.4162 24.191 53.9783 24.191C57.0157 24.191 60.3352 25.3191 64.4357 27.7057C64.7178 27.8793 65.0649 27.8576 65.347 27.7057C65.629 27.5321 65.7809 27.2284 65.7809 26.9029C65.6073 22.4553 67.2562 18.2029 70.5974 14.6231C75.7393 9.11229 84.5479 5.51076 93.5951 5.25041C107.307 4.83819 120.194 11.5856 122.689 20.264C122.776 20.5677 123.015 20.8064 123.34 20.8715C123.644 20.9366 123.969 20.8715 124.186 20.6111C128.222 16.3153 132.019 14.2976 135.989 14.4495C141.435 14.6664 146.924 18.4415 147.488 22.3902C147.531 22.7373 147.791 23.0411 148.139 23.1279C148.486 23.2146 148.855 23.0845 149.072 22.8024C153.346 17.2483 159.681 14.0807 166.45 14.0807C168.272 14.0807 170.095 14.3193 171.852 14.7532C172.633 14.9485 173.436 15.2305 174.282 15.556C170.963 20.6111 168.988 26.6426 168.685 33.2816C165.886 29.4197 162.154 27.2718 158.14 27.2718C153.215 27.2718 148.052 30.8516 146.902 37.7075C142.65 33.2165 135.794 30.396 128.786 30.396C126.291 30.396 123.948 30.7648 121.8 31.5025C116.007 33.4768 111.234 37.9462 109.086 43.4135C107.611 47.1452 107.48 51.0505 108.674 54.6086C104.204 52.3523 99.3662 51.2024 94.2459 51.2024C79.2324 51.2024 65.0866 61.3127 63.3293 73.2671C62.3312 80.1665 63.7632 86.2847 67.5383 90.9059C69.3173 93.0972 71.5954 94.9631 74.3291 96.4818C69.3607 97.7835 64.5008 98.3042 59.7494 98.0005L59.706 98.0222ZM333.617 94.5508C333.292 94.5508 332.988 94.7461 332.836 95.0499C332.684 95.3536 332.728 95.7007 332.923 95.9611C335.635 99.6494 336.286 103.121 334.832 106.05C333.183 109.304 328.996 111.409 324.136 111.409C321.684 111.409 319.189 110.866 316.933 109.846C316.564 109.673 316.152 109.781 315.892 110.085C309.448 117.657 302.483 119.241 297.754 119.241C288.208 119.241 280.701 113.079 279.204 107.373C279.095 106.918 278.64 106.635 278.184 106.722C277.728 106.809 277.403 107.243 277.468 107.699C277.75 110.107 276.448 112.146 275.298 113.448C272.369 116.724 267.141 118.937 262.281 118.937C257.421 118.937 253.19 116.702 250.717 112.645C250.522 112.32 250.131 112.146 249.762 112.233C249.393 112.32 249.111 112.624 249.068 113.014C248.547 118.134 237.699 128.223 221.514 129.286C204.57 130.414 192.919 118.004 189.686 110.28C189.556 109.955 189.252 109.76 188.905 109.738C188.905 109.738 188.905 109.738 188.884 109.738C188.558 109.738 188.254 109.933 188.103 110.215C186.432 113.491 182.765 115.444 178.296 115.444C174.174 115.444 169.769 113.6 169.357 110.063C169.314 109.695 169.032 109.391 168.663 109.304C168.294 109.217 167.925 109.369 167.708 109.695C159.269 123.059 148.052 125.055 142.107 125.055C129.979 125.055 119.63 117.332 118.545 107.46C118.502 107.091 118.242 106.787 117.873 106.701C117.504 106.614 117.135 106.766 116.918 107.091C115.226 109.76 111.668 111.3 107.198 111.3C102.035 111.3 96.9579 109.196 94.8534 106.202C93.6819 104.531 93.4649 102.709 94.1592 100.734C94.2459 100.474 94.2243 100.17 94.0724 99.9531C93.9205 99.7145 93.6602 99.5626 93.3781 99.5626C86.9778 99.1504 81.6189 97.9788 77.3014 96.0479C77.2363 95.9828 77.1496 95.9394 77.0845 95.896C75.6091 95.2234 74.3074 94.4858 73.1575 93.7047H73.1141C71.4435 92.5548 70.0116 91.2531 68.8183 89.7777C65.3904 85.5253 64.0669 79.9061 64.9998 73.5058C66.6053 62.5493 80.2304 52.9598 94.1592 52.9598C99.8435 52.9598 105.159 54.4568 109.975 57.3857C110.323 57.6027 110.757 57.5593 111.039 57.2772C111.321 56.9952 111.407 56.5613 111.212 56.2141C109.216 52.4824 109.021 48.165 110.648 44.0427C112.622 39.031 116.983 34.9738 122.299 33.1514C124.251 32.4788 126.421 32.1534 128.721 32.1534C135.88 32.1534 143.127 35.4511 146.772 40.3761C146.989 40.6799 147.379 40.81 147.748 40.7016C148.117 40.5931 148.356 40.2676 148.377 39.8988C148.703 32.7608 153.498 29.0291 158.075 29.0291C162.263 29.0291 166.125 31.8496 168.706 36.7963C168.902 37.1651 169.314 37.3387 169.726 37.2519C170.117 37.1434 170.399 36.7746 170.377 36.3624C170.182 30.678 171.266 25.4059 173.393 20.763C173.393 20.763 173.393 20.763 173.414 20.763C174.239 18.9839 175.193 17.2917 176.322 15.6862C176.343 15.6428 176.343 15.5994 176.365 15.5777C181.746 8.04919 190.381 3.01574 200.99 1.93094C201.923 1.84416 202.899 1.77907 203.854 1.77907C219.171 1.77907 237.548 14.0156 239.218 30.3743C239.261 30.7865 239.587 31.112 239.999 31.1554C240.411 31.1987 240.802 30.9601 240.932 30.5696C244.186 21.6091 252.713 15.4475 262.129 15.2305H262.606C270.721 15.2305 277.902 20.1989 280.072 27.3369C280.18 27.684 280.462 27.9227 280.831 27.966C281.2 28.0094 281.525 27.8359 281.699 27.5321C283.131 24.9937 286.537 24.6032 288.446 24.6032C291.245 24.6032 294.369 25.4493 296.04 26.6426C302.201 31.112 303.742 35.7983 301.767 43.9559C301.681 44.3248 301.833 44.737 302.18 44.9323C302.505 45.1275 302.939 45.0841 303.221 44.8238C304.848 43.3702 310.771 38.597 319.189 38.597C324.505 38.597 329.668 40.5063 334.485 44.3031C342.794 50.8119 343.228 63.4172 341.189 67.214C341.037 67.496 341.059 67.8215 341.211 68.0818C341.363 68.3422 341.666 68.5157 341.97 68.5157C343.554 68.5157 347.22 69.8826 350.063 72.8332C351.842 74.6774 353.946 77.8016 353.816 82.3577C353.599 90.0598 346.786 94.1603 333.552 94.5291L333.617 94.5508Z" fill="#12196E"/>
</svg>
