<svg width="177" height="175" viewBox="0 0 177 175" fill="none" xmlns="http://www.w3.org/2000/svg">
<g opacity="0.84" filter="url(#filter0_f_2346_2620)">
<ellipse cx="114.228" cy="90.9271" rx="21.1993" ry="9.75523" transform="rotate(-54.0274 114.228 90.9271)" fill="url(#paint0_radial_2346_2620)"/>
</g>
<path opacity="0.76" d="M47.5642 131.285C47.3957 131.325 47.2091 131.286 47.1157 131.182C46.9827 131.035 47.0304 130.816 47.248 130.691C48.1042 130.172 49.0387 129.524 50.0235 128.752C50.2065 128.606 50.4895 128.592 50.6566 128.716C50.8238 128.84 50.8058 129.06 50.6228 129.207C49.6132 129.999 48.6462 130.677 47.7465 131.221C47.6952 131.255 47.6407 131.275 47.5752 131.29L47.5642 131.285ZM55.4784 124.801C56.9525 123.292 58.3646 121.686 59.6667 120.032C59.804 119.858 59.7455 119.649 59.5381 119.564C59.3307 119.479 59.0515 119.551 58.9142 119.724C57.6275 121.36 56.2386 122.939 54.7892 124.427C54.6299 124.591 54.6604 124.806 54.8523 124.91C54.9546 124.968 55.0955 124.979 55.2172 124.951C55.3202 124.927 55.4166 124.875 55.48 124.808L55.4784 124.801ZM63.1905 114.994C63.1905 114.994 63.2181 114.943 63.2336 114.924C63.6955 114.831 64.1559 114.732 64.6145 114.625C66.3463 114.221 68.13 113.702 69.8626 113.09C70.0995 113.005 70.2286 112.797 70.1485 112.622C70.0684 112.448 69.8158 112.381 69.5774 112.459C67.8899 113.052 66.1811 113.554 64.4867 113.949C64.2246 114.01 63.9719 114.069 63.7098 114.13C64.5757 112.637 65.3276 111.162 65.9204 109.725C65.995 109.537 65.8725 109.35 65.6375 109.316C65.4025 109.281 65.1535 109.399 65.0696 109.589C64.4094 111.161 63.5747 112.788 62.587 114.436C62.5313 114.494 62.4866 114.556 62.4733 114.626C62.444 114.67 62.4164 114.721 62.3872 114.765C62.2719 114.948 62.3679 115.148 62.5891 115.208C62.6738 115.233 62.7724 115.232 62.866 115.21C62.997 115.18 63.126 115.098 63.1905 114.994ZM56.3875 115.361C56.4214 115.168 56.2383 115.018 56.0005 115.014C53.9798 115.024 52.1586 114.832 50.6058 114.437C50.2388 114.344 49.8779 114.235 49.5263 114.124C49.3112 114.048 49.0353 114.135 48.92 114.317C48.7937 114.495 48.871 114.7 49.0844 114.769C49.458 114.89 49.841 115.009 50.2283 115.104C51.8642 115.517 53.7685 115.727 55.8877 115.715C55.9362 115.712 55.9752 115.71 56.022 115.699C56.2093 115.655 56.3658 115.522 56.3891 115.368L56.3875 115.361ZM76.3451 110.288C78.3888 109.232 80.3794 108.034 82.2468 106.73C82.4425 106.595 82.4791 106.371 82.3197 106.238C82.1696 106.102 81.8834 106.102 81.6894 106.243C79.8561 107.524 77.9075 108.691 75.9072 109.722C75.6863 109.832 75.6089 110.051 75.7249 110.209C75.8232 110.335 76.0114 110.38 76.1986 110.337C76.2454 110.326 76.2922 110.315 76.3357 110.29L76.3451 110.288ZM87.4521 102.555C89.0286 101.103 90.5193 99.5386 91.8841 97.8991C92.0231 97.7331 91.9739 97.5218 91.7742 97.4273C91.5762 97.3398 91.2953 97.4052 91.147 97.5734C89.8131 99.176 88.3471 100.72 86.8032 102.142C86.6329 102.3 86.643 102.513 86.8272 102.626C86.9312 102.691 87.0737 102.71 87.2141 102.677C87.3077 102.655 87.3964 102.612 87.4615 102.553L87.4521 102.555ZM44.5552 111.511C44.7635 111.388 44.8315 111.172 44.6969 111.018C43.5489 109.734 42.7311 108.172 42.2829 106.376C42.2403 106.193 42.0109 106.098 41.7565 106.15C41.5131 106.207 41.3526 106.407 41.4046 106.588C41.8818 108.467 42.7381 110.108 43.9493 111.452C44.0537 111.561 44.2309 111.602 44.4087 111.56C44.4649 111.547 44.5194 111.527 44.5707 111.493L44.5552 111.511ZM67.5799 104.268C67.9169 102.326 67.9422 100.486 67.6486 98.8026C67.6153 98.6173 67.392 98.506 67.147 98.5557C66.908 98.5891 66.7288 98.7942 66.7621 98.9794C67.041 100.6 67.0212 102.379 66.6992 104.258C66.6653 104.451 66.839 104.604 67.0862 104.606C67.1346 104.602 67.1831 104.598 67.2205 104.589C67.4077 104.545 67.5643 104.412 67.5876 104.259L67.5799 104.268ZM41.9632 101.15C42.1685 99.3205 42.6804 97.4937 43.454 95.8584C43.5396 95.6751 43.4265 95.4862 43.1976 95.4356C42.9687 95.385 42.7104 95.5046 42.6154 95.69C41.8158 97.3834 41.2812 99.2823 41.0704 101.173C41.0458 101.364 41.2289 101.514 41.4744 101.509C41.5135 101.507 41.5526 101.506 41.59 101.497C41.7866 101.451 41.9415 101.311 41.9632 101.15ZM65.322 94.2816C65.5429 94.1707 65.6203 93.9523 65.495 93.7958C64.3018 92.2328 62.6869 91.0203 60.6993 90.1992C60.4919 90.1138 60.2128 90.1863 60.0754 90.3594C59.9381 90.5324 59.9967 90.7415 60.2041 90.8268C62.0706 91.5945 63.5799 92.7351 64.7127 94.2083C64.8111 94.3338 64.9993 94.3791 65.1865 94.3354C65.2333 94.3245 65.2801 94.3136 65.3236 94.2886L65.322 94.2816ZM47.4057 91.4706C49.217 90.4768 51.5238 89.8725 53.8799 89.7763C54.1237 89.7641 54.3425 89.6017 54.3577 89.4126C54.3728 89.2235 54.1897 89.0731 53.9459 89.0854C51.4131 89.1856 48.9208 89.8406 46.9524 90.9229C46.7425 91.0386 46.6651 91.2571 46.7904 91.4135C46.8871 91.532 47.0753 91.5773 47.2531 91.5358C47.2999 91.5249 47.3561 91.5118 47.4073 91.4776L47.4057 91.4706ZM95.5285 92.8702C96.0681 92.0095 96.5995 91.1135 97.0902 90.2123C97.1945 90.0246 97.0908 89.8335 96.8619 89.7829C96.6313 89.7253 96.3697 89.8308 96.2747 90.0162C95.7918 90.9083 95.2758 91.7858 94.7345 92.6395C94.6192 92.8222 94.7042 93.0177 94.9271 93.0846C95.0228 93.1142 95.1213 93.1135 95.2149 93.0917C95.346 93.0612 95.4672 92.9884 95.5395 92.875L95.5285 92.8702Z" fill="#12196E"/>
<path d="M100.302 84.4341L100.47 83.7561L96.0123 72.7695L83.9606 64.6504L83.9875 64.8937L95.7022 73.0083L100.302 84.4341Z" fill="#707D44"/>
<path d="M100.298 83.8186L95.8568 72.885L131.841 43.2994L100.298 83.8186Z" fill="#17853F"/>
<path style="mix-blend-mode:multiply" opacity="0.64" d="M100.298 83.8186L95.8568 72.885L131.841 43.2994L100.298 83.8186Z" fill="url(#paint1_linear_2346_2620)"/>
<path d="M100.302 84.4339L102.614 74.9427L131.84 43.2992L100.302 84.4339Z" fill="url(#paint2_linear_2346_2620)"/>
<path d="M102.613 74.9425C102.34 74.3023 131.84 43.299 131.84 43.299L120.029 83.3884L102.613 74.9425Z" fill="#DD8616"/>
<g filter="url(#filter1_i_2346_2620)">
<path d="M102.613 74.9425C102.34 74.3023 131.84 43.299 131.84 43.299L119.998 83.1218L102.613 74.9425Z" fill="#19A14C"/>
</g>
<g filter="url(#filter2_i_2346_2620)">
<path d="M95.8571 72.8842L131.841 43.2986L83.9611 64.6496L95.8571 72.8842Z" fill="#19A14C"/>
</g>
<path style="mix-blend-mode:screen" d="M109.474 61.1045C103.177 66.1043 97.6173 71.2941 97.7077 71.3983C97.7903 71.5037 103.526 66.539 109.782 61.4903C115.885 56.5649 121.102 52.2515 121.018 52.1383C120.936 52.0328 115.778 56.0955 109.474 61.1045Z" fill="url(#paint3_radial_2346_2620)"/>
<path style="mix-blend-mode:screen" d="M89.7583 68.1653C86.4162 65.7774 84.1577 64.5429 84.081 64.6525C84.0043 64.7621 86.1335 66.1714 89.477 68.567C92.8206 70.9627 95.5875 72.8117 95.672 72.7008C95.7488 72.5912 93.1096 70.5596 89.7675 68.1717L89.7583 68.1653Z" fill="url(#paint4_radial_2346_2620)"/>
<path style="mix-blend-mode:screen" d="M110.693 78.2798C106.963 76.5525 103.731 75.2416 103.672 75.364C103.614 75.4863 106.755 77.0054 110.483 78.7249C114.213 80.4522 117.123 81.9319 117.181 81.8096C117.24 81.6872 114.421 79.9993 110.691 78.272L110.693 78.2798Z" fill="url(#paint5_radial_2346_2620)"/>
<defs>
<filter id="filter0_f_2346_2620" x="84.4555" y="57.8073" width="59.5455" height="66.2396" filterUnits="userSpaceOnUse" color-interpolation-filters="sRGB">
<feFlood flood-opacity="0" result="BackgroundImageFix"/>
<feBlend mode="normal" in="SourceGraphic" in2="BackgroundImageFix" result="shape"/>
<feGaussianBlur stdDeviation="7.51333" result="effect1_foregroundBlur_2346_2620"/>
</filter>
<filter id="filter1_i_2346_2620" x="102.611" y="43.299" width="29.2283" height="41.7011" filterUnits="userSpaceOnUse" color-interpolation-filters="sRGB">
<feFlood flood-opacity="0" result="BackgroundImageFix"/>
<feBlend mode="normal" in="SourceGraphic" in2="BackgroundImageFix" result="shape"/>
<feColorMatrix in="SourceAlpha" type="matrix" values="0 0 0 0 0 0 0 0 0 0 0 0 0 0 0 0 0 0 127 0" result="hardAlpha"/>
<feOffset dy="1.87833"/>
<feGaussianBlur stdDeviation="5.14193"/>
<feComposite in2="hardAlpha" operator="arithmetic" k2="-1" k3="1"/>
<feColorMatrix type="matrix" values="0 0 0 0 0.0566122 0 0 0 0 0.661538 0 0 0 0 0.286067 0 0 0 1 0"/>
<feBlend mode="normal" in2="shape" result="effect1_innerShadow_2346_2620"/>
</filter>
<filter id="filter2_i_2346_2620" x="83.9612" y="43.2986" width="47.8799" height="31.4639" filterUnits="userSpaceOnUse" color-interpolation-filters="sRGB">
<feFlood flood-opacity="0" result="BackgroundImageFix"/>
<feBlend mode="normal" in="SourceGraphic" in2="BackgroundImageFix" result="shape"/>
<feColorMatrix in="SourceAlpha" type="matrix" values="0 0 0 0 0 0 0 0 0 0 0 0 0 0 0 0 0 0 127 0" result="hardAlpha"/>
<feOffset dy="1.87833"/>
<feGaussianBlur stdDeviation="5.14193"/>
<feComposite in2="hardAlpha" operator="arithmetic" k2="-1" k3="1"/>
<feColorMatrix type="matrix" values="0 0 0 0 0.0566122 0 0 0 0 0.661538 0 0 0 0 0.286067 0 0 0 1 0"/>
<feBlend mode="normal" in2="shape" result="effect1_innerShadow_2346_2620"/>
</filter>
<radialGradient id="paint0_radial_2346_2620" cx="0" cy="0" r="1" gradientUnits="userSpaceOnUse" gradientTransform="translate(114.228 90.9271) rotate(90) scale(9.75523 21.1993)">
<stop stop-color="#515C2C"/>
<stop offset="1" stop-color="#515C2C" stop-opacity="0"/>
</radialGradient>
<linearGradient id="paint1_linear_2346_2620" x1="104.109" y1="54.8366" x2="118.464" y2="65.3145" gradientUnits="userSpaceOnUse">
<stop offset="0.45" stop-color="white"/>
<stop offset="0.96" stop-color="#0B7432"/>
</linearGradient>
<linearGradient id="paint2_linear_2346_2620" x1="113.852" y1="72.8477" x2="98.2275" y2="82.8485" gradientUnits="userSpaceOnUse">
<stop offset="0.5" stop-color="#04772D"/>
<stop offset="0.83" stop-color="#1FB458"/>
</linearGradient>
<radialGradient id="paint3_radial_2346_2620" cx="0" cy="0" r="1" gradientUnits="userSpaceOnUse" gradientTransform="translate(99.6082 49.2876) rotate(-128.499) scale(0.298397 19.4953)">
<stop stop-color="#FFB45E"/>
<stop offset="0.09" stop-color="#DB9A50"/>
<stop offset="0.28" stop-color="#996C38"/>
<stop offset="0.45" stop-color="#624524"/>
<stop offset="0.61" stop-color="#372714"/>
<stop offset="0.76" stop-color="#191109"/>
<stop offset="0.88" stop-color="#060402"/>
<stop offset="0.97"/>
</radialGradient>
<radialGradient id="paint4_radial_2346_2620" cx="0" cy="0" r="1" gradientUnits="userSpaceOnUse" gradientTransform="translate(81.9004 79.7102) rotate(-54.2693) scale(0.224862 7.49539)">
<stop stop-color="#FFB45E"/>
<stop offset="0.09" stop-color="#DB9A50"/>
<stop offset="0.28" stop-color="#996C38"/>
<stop offset="0.45" stop-color="#624524"/>
<stop offset="0.61" stop-color="#372714"/>
<stop offset="0.76" stop-color="#191109"/>
<stop offset="0.88" stop-color="#060402"/>
<stop offset="0.97"/>
</radialGradient>
<radialGradient id="paint5_radial_2346_2620" cx="0" cy="0" r="1" gradientUnits="userSpaceOnUse" gradientTransform="translate(106.002 87.9005) rotate(-65.0592) scale(0.23692 7.89735)">
<stop stop-color="#FFB45E"/>
<stop offset="0.09" stop-color="#DB9A50"/>
<stop offset="0.28" stop-color="#996C38"/>
<stop offset="0.45" stop-color="#624524"/>
<stop offset="0.61" stop-color="#372714"/>
<stop offset="0.76" stop-color="#191109"/>
<stop offset="0.88" stop-color="#060402"/>
<stop offset="0.97"/>
</radialGradient>
</defs>
</svg>
