<svg width="108" height="110" viewBox="0 0 108 110" fill="none" xmlns="http://www.w3.org/2000/svg">
<path d="M43.1895 6.87848L43.0995 6.79121C40.7296 4.49362 37.7798 2.88322 34.5655 2.13218C33.2714 1.82984 31.9483 1.67001 30.6194 1.65553L30.1228 1.65013C27.8639 1.62552 25.6141 1.94103 23.4492 2.58601C22.3297 2.91956 21.2379 3.3397 20.1836 3.84268L18.0249 4.87252C15.61 6.02465 13.4484 7.64576 11.6662 9.64135C9.92023 11.5964 8.57216 13.8731 7.69752 16.3439L6.96011 18.4269C5.76379 21.8063 5.15521 25.3655 5.16076 28.9503L5.16138 29.3498C5.16688 32.9044 5.73465 36.4358 6.84361 39.813L10.5483 51.0951L15.6999 62.8191C21.4749 74.6889 38.0264 98.4133 41.3178 102.338C41.7034 102.798 42.0763 103.215 42.4351 103.592C45.5103 106.824 50.5657 106.504 53.6025 103.236L58.3434 98.4263L63.0843 93.6162L70.2583 85.4296L77.7238 75.9959L86.104 65.4611L93.0917 55.2583L100.161 43.7635C101.807 41.0868 103.144 38.2319 104.145 35.2537L105.918 29.9851C106.595 27.9732 106.844 25.8419 106.648 23.7282L106.597 23.1735C106.338 20.3741 105.211 17.7256 103.373 15.5981C101.509 13.4409 99.0096 11.9294 96.2334 11.2807L95.2161 11.0431C93.3518 10.6074 91.4265 10.4956 89.5243 10.7123L88.4631 10.8332C84.8341 11.2467 81.3572 12.5232 78.3229 14.5559L75.2063 16.6437C73.0908 18.061 71.1219 19.6856 69.3289 21.4936L68.0649 22.7679C66.1212 24.7279 64.3713 26.8707 62.8393 29.1667L62.1063 30.2653L58.7785 36.0631L55.0776 44.9467C54.9284 45.3047 54.3928 45.1796 54.4179 44.7925C54.4963 43.5751 54.4567 42.3529 54.2994 41.1432L53.8308 37.5372L52.9393 30.0961L52.0886 25.2947L50.6142 20.3475L48.5465 15.1889C47.9874 13.7942 47.3075 12.451 46.5146 11.1747L46.0517 10.4295C45.2463 9.1332 44.2851 7.9407 43.1895 6.87848Z" fill="#0F833B"/>
<path d="M25.1123 8.47187C23.7509 8.84944 19.7376 9.38858 16.0702 12.8281C14.9389 13.8892 14.1004 15.2131 13.3284 16.5583C11.8908 19.0628 10.8267 21.7637 10.1696 24.5755L9.8493 25.9465C9.55785 27.1935 9.44497 29.9444 9.45289 30.4565C9.49364 33.0961 10.0958 35.2094 10.4901 37.2742L12.2966 43.614L17.3874 55.6729L25.6125 71.0536L37.2267 88.8903L40.9045 94.2261C42.0487 95.8861 43.3716 97.5304 45.2829 98.1723C46.0704 98.4367 46.8684 98.594 47.6178 98.6773C49.6584 98.9042 51.5795 97.9577 53.1933 96.6885C53.7022 96.2881 54.1792 95.849 54.62 95.3747L57.4721 92.3055L67.2453 81.4386L78.0791 68.8469L82.7997 62.7171L89.3501 54.3847L94.7991 45.1375L97.4142 39.8112C98.1795 38.2524 98.8185 36.6349 99.3253 34.974L100.454 31.2738C101.06 29.2894 101.235 27.1985 100.967 25.141L100.832 24.1039C100.724 23.2651 100.482 22.449 100.118 21.6856C99.3312 20.0366 98.0045 18.706 96.3576 17.9143L94.8457 17.1872C94.0055 16.7833 93.125 16.4665 92.2073 16.3027C90.885 16.0665 89.0136 15.8043 87.2003 15.746C86.2405 15.7152 85.1295 15.9511 84.0317 16.3092C80.775 17.3718 77.6318 18.9856 75.1198 21.3144C73.6162 22.7084 72.0872 24.2618 70.862 25.9057C70.3759 26.558 69.8395 27.3079 69.2812 28.1079C65.7225 33.2085 62.3051 38.6933 59.5519 44.2701C59.0342 45.3186 58.556 46.3016 58.1721 47.1L52.2536 58.3367C52.0769 58.6723 51.5666 58.4819 51.6528 58.1126C51.6592 58.0857 51.6619 58.0579 51.6612 58.0302L51.3129 45.4974L50.4254 37.4434C50.1745 35.1674 49.7418 32.9152 49.1315 30.7082L47.9099 26.2916L46.41 21.7979C45.3506 18.624 44.002 15.5148 41.822 12.9761C40.1804 11.0645 38.1854 9.19082 36.2956 8.45476C32.0763 6.81144 27.6337 7.77255 25.1123 8.47187Z" fill="#0F833B" stroke="#FFF8ED"/>
<path d="M66.1751 42.3947C66.6917 42.5154 67.2083 42.1945 67.329 41.678C67.4497 41.1615 67.1288 40.645 66.6122 40.5243C66.0956 40.4036 65.579 40.7244 65.4583 41.2409C65.3376 41.7575 65.6585 42.274 66.1751 42.3947Z" fill="#FFF8ED"/>
<path d="M70.4183 35.4959C70.9348 35.6166 71.4515 35.2958 71.5722 34.7793C71.6929 34.2627 71.372 33.7462 70.8554 33.6255C70.3388 33.5048 69.8222 33.8257 69.7015 34.3422C69.5808 34.8587 69.9017 35.3752 70.4183 35.4959Z" fill="#FFF8ED"/>
<path d="M77.4471 27.9317C77.9637 28.0524 78.4803 27.7315 78.601 27.215C78.7217 26.6985 78.4008 26.1819 77.8842 26.0613C77.3676 25.9406 76.851 26.2614 76.7303 26.7779C76.6096 27.2944 76.9305 27.811 77.4471 27.9317Z" fill="#FFF8ED"/>
<path d="M81.108 23.5274C81.6246 23.6481 82.1412 23.3272 82.2619 22.8107C82.3826 22.2942 82.0617 21.7776 81.5451 21.6569C81.0285 21.5362 80.5119 21.8571 80.3912 22.3736C80.2705 22.8901 80.5914 23.4067 81.108 23.5274Z" fill="#FFF8ED"/>
<path d="M86.9692 20.9507C87.4857 21.0714 88.0024 20.7505 88.1231 20.234C88.2438 19.7175 87.9229 19.2009 87.4063 19.0802C86.8897 18.9595 86.3731 19.2804 86.2524 19.7969C86.1317 20.3134 86.4526 20.83 86.9692 20.9507Z" fill="#FFF8ED"/>
<path d="M93.2048 22.408C93.7214 22.5287 94.238 22.2078 94.3587 21.6913C94.4794 21.1748 94.1585 20.6582 93.6419 20.5375C93.1253 20.4168 92.6087 20.7377 92.488 21.2542C92.3673 21.7707 92.6882 22.2873 93.2048 22.408Z" fill="#FFF8ED"/>
<path d="M97.32 27.3159C97.8366 27.4366 98.3532 27.1158 98.4739 26.5993C98.5946 26.0828 98.2737 25.5662 97.7571 25.4455C97.2405 25.3248 96.7239 25.6457 96.6032 26.1622C96.4825 26.6787 96.8034 27.1952 97.32 27.3159Z" fill="#FFF8ED"/>
<path d="M95.8637 33.5508C96.3803 33.6715 96.8969 33.3506 97.0176 32.8341C97.1383 32.3176 96.8174 31.8011 96.3008 31.6804C95.7842 31.5597 95.2676 31.8805 95.1469 32.397C95.0262 32.9136 95.3471 33.4301 95.8637 33.5508Z" fill="#FFF8ED"/>
<path d="M94.4066 39.7844C94.9231 39.9051 95.4397 39.5842 95.5604 39.0677C95.6812 38.5512 95.3602 38.0346 94.8437 37.9139C94.3271 37.7932 93.8105 38.1141 93.6898 38.6306C93.5691 39.1471 93.89 39.6637 94.4066 39.7844Z" fill="#FFF8ED"/>
<path d="M89.871 47.9304C90.3876 48.0511 90.9042 47.7302 91.0249 47.2137C91.1456 46.6972 90.8247 46.1806 90.3081 46.0599C89.7916 45.9392 89.275 46.2601 89.1543 46.7766C89.0335 47.2931 89.3545 47.8097 89.871 47.9304Z" fill="#FFF8ED"/>
<path d="M84.0913 55.7855C84.6078 55.9062 85.1244 55.5853 85.2451 55.0688C85.3659 54.5523 85.0449 54.0357 84.5284 53.915C84.0118 53.7943 83.4952 54.1152 83.3745 54.6317C83.2538 55.1482 83.5747 55.6648 84.0913 55.7855Z" fill="#FFF8ED"/>
<path d="M78.31 63.6393C78.8266 63.76 79.3432 63.4391 79.4639 62.9226C79.5846 62.4061 79.2637 61.8896 78.7471 61.7689C78.2305 61.6482 77.7139 61.969 77.5932 62.4855C77.4725 63.0021 77.7934 63.5186 78.31 63.6393Z" fill="#FFF8ED"/>
<path d="M73.1105 68.9996C73.6271 69.1203 74.1437 68.7995 74.2644 68.2829C74.3851 67.7664 74.0642 67.2499 73.5476 67.1292C73.0311 67.0085 72.5145 67.3294 72.3938 67.8459C72.273 68.3624 72.594 68.8789 73.1105 68.9996Z" fill="#FFF8ED"/>
<path d="M69.1581 74.6541C69.6747 74.7748 70.1913 74.4539 70.312 73.9374C70.4327 73.4209 70.1118 72.9044 69.5953 72.7837C69.0787 72.663 68.5621 72.9838 68.4414 73.5003C68.3207 74.0169 68.6416 74.5334 69.1581 74.6541Z" fill="#FFF8ED"/>
<path d="M63.6701 81.2623C64.1867 81.383 64.7033 81.0622 64.824 80.5456C64.9447 80.0291 64.6238 79.5126 64.1072 79.3919C63.5906 79.2712 63.074 79.5921 62.9533 80.1086C62.8326 80.6251 63.1535 81.1416 63.6701 81.2623Z" fill="#FFF8ED"/>
<path d="M58.4709 86.6202C58.9875 86.7409 59.5041 86.42 59.6248 85.9035C59.7455 85.387 59.4246 84.8705 58.908 84.7498C58.3914 84.6291 57.8748 84.9499 57.7541 85.4664C57.6334 85.983 57.9543 86.4995 58.4709 86.6202Z" fill="#FFF8ED"/>
<path d="M53.2727 91.9808C53.7892 92.1015 54.3058 91.7807 54.4265 91.2641C54.5472 90.7476 54.2263 90.2311 53.7098 90.1104C53.1932 89.9897 52.6766 90.3106 52.5559 90.8271C52.4352 91.3436 52.7561 91.8601 53.2727 91.9808Z" fill="#FFF8ED"/>
<path d="M46.1646 94.2653C46.6812 94.386 47.1978 94.0652 47.3185 93.5487C47.4392 93.0322 47.1183 92.5156 46.6017 92.3949C46.0851 92.2742 45.5685 92.5951 45.4478 93.1116C45.3271 93.6281 45.648 94.1446 46.1646 94.2653Z" fill="#FFF8ED"/>
<path d="M41.7568 90.6057C42.2733 90.7264 42.79 90.4055 42.9107 89.889C43.0314 89.3725 42.7105 88.856 42.1939 88.7353C41.6773 88.6146 41.1607 88.9354 41.04 89.4519C40.9193 89.9685 41.2402 90.485 41.7568 90.6057Z" fill="#FFF8ED"/>
<path d="M36.9797 82.9137C37.4963 83.0344 38.0129 82.7136 38.1336 82.197C38.2543 81.6805 37.9334 81.164 37.4168 81.0433C36.9002 80.9226 36.3836 81.2435 36.2629 81.76C36.1422 82.2765 36.4631 82.793 36.9797 82.9137Z" fill="#FFF8ED"/>
<path d="M32.2003 75.2229C32.7168 75.3436 33.2334 75.0227 33.3542 74.5062C33.4749 73.9897 33.1539 73.4731 32.6374 73.3524C32.1208 73.2317 31.6042 73.5526 31.4835 74.0691C31.3628 74.5856 31.6837 75.1022 32.2003 75.2229Z" fill="#FFF8ED"/>
<path d="M27.4207 67.5308C27.9373 67.6515 28.4539 67.3306 28.5746 66.8141C28.6953 66.2976 28.3744 65.781 27.8578 65.6603C27.3413 65.5396 26.8246 65.8605 26.7039 66.377C26.5832 66.8935 26.9041 67.4101 27.4207 67.5308Z" fill="#FFF8ED"/>
<path d="M22.6436 59.8387C23.1602 59.9594 23.6768 59.6386 23.7975 59.1221C23.9182 58.6056 23.5973 58.089 23.0807 57.9683C22.5642 57.8476 22.0475 58.1685 21.9268 58.685C21.8061 59.2015 22.127 59.718 22.6436 59.8387Z" fill="#FFF8ED"/>
<path d="M19.4039 51.1905C19.9204 51.3112 20.4371 50.9904 20.5578 50.4739C20.6785 49.9574 20.3576 49.4408 19.841 49.3201C19.3244 49.1994 18.8078 49.5203 18.6871 50.0368C18.5664 50.5533 18.8873 51.0698 19.4039 51.1905Z" fill="#FFF8ED"/>
<path d="M15.8705 43.7918C16.3871 43.9125 16.9037 43.5916 17.0244 43.0751C17.1451 42.5586 16.8242 42.0421 16.3077 41.9214C15.7911 41.8007 15.2745 42.1215 15.1538 42.638C15.0331 43.1545 15.354 43.6711 15.8705 43.7918Z" fill="#FFF8ED"/>
<path d="M13.2966 37.9276C13.8131 38.0483 14.3298 37.7275 14.4505 37.211C14.5712 36.6944 14.2503 36.1779 13.7337 36.0572C13.2171 35.9365 12.7005 36.2574 12.5798 36.7739C12.4591 37.2904 12.78 37.8069 13.2966 37.9276Z" fill="#FFF8ED"/>
<path d="M12.8416 28.619C13.3582 28.7397 13.8748 28.4189 13.9955 27.9024C14.1162 27.3859 13.7953 26.8693 13.2787 26.7486C12.7621 26.6279 12.2455 26.9488 12.1248 27.4653C12.0041 27.9818 12.325 28.4983 12.8416 28.619Z" fill="#FFF8ED"/>
<path d="M14.5888 21.1358C15.1054 21.2565 15.622 20.9356 15.7427 20.4191C15.8634 19.9026 15.5425 19.386 15.0259 19.2653C14.5093 19.1446 13.9927 19.4655 13.872 19.982C13.7513 20.4985 14.0722 21.0151 14.5888 21.1358Z" fill="#FFF8ED"/>
<path d="M18.2498 16.7314C18.7664 16.8521 19.283 16.5312 19.4037 16.0147C19.5244 15.4982 19.2035 14.9816 18.6869 14.8609C18.1704 14.7402 17.6537 15.0611 17.533 15.5776C17.4123 16.0941 17.7332 16.6107 18.2498 16.7314Z" fill="#FFF8ED"/>
<path d="M24.4031 12.9101C24.9197 13.0308 25.4363 12.7099 25.557 12.1934C25.6777 11.6769 25.3568 11.1603 24.8402 11.0396C24.3237 10.919 23.8071 11.2398 23.6864 11.7563C23.5657 12.2728 23.8866 12.7894 24.4031 12.9101Z" fill="#FFF8ED"/>
<path d="M31.8874 14.6571C32.404 14.7778 32.9206 14.4569 33.0413 13.9404C33.162 13.4239 32.8411 12.9074 32.3245 12.7867C31.8079 12.666 31.2913 12.9868 31.1706 13.5033C31.0499 14.0198 31.3708 14.5364 31.8874 14.6571Z" fill="#FFF8ED"/>
<path d="M36.5848 17.0682C37.1014 17.1889 37.618 16.868 37.7387 16.3515C37.8594 15.835 37.5385 15.3184 37.0219 15.1977C36.5053 15.077 35.9887 15.3979 35.868 15.9144C35.7473 16.4309 36.0682 16.9475 36.5848 17.0682Z" fill="#FFF8ED"/>
<path d="M41.363 24.7614C41.8796 24.8821 42.3962 24.5612 42.5169 24.0447C42.6376 23.5282 42.3167 23.0117 41.8001 22.891C41.2835 22.7703 40.7669 23.0911 40.6462 23.6076C40.5255 24.1242 40.8464 24.6407 41.363 24.7614Z" fill="#FFF8ED"/>
<path d="M43.6457 31.8717C44.1623 31.9924 44.6789 31.6715 44.7996 31.155C44.9203 30.6385 44.5994 30.122 44.0828 30.0013C43.5662 29.8806 43.0496 30.2014 42.9289 30.7179C42.8082 31.2344 43.1291 31.751 43.6457 31.8717Z" fill="#FFF8ED"/>
<path d="M45.6403 40.2251C46.1569 40.3458 46.6735 40.0249 46.7942 39.5084C46.9149 38.9919 46.594 38.4754 46.0774 38.3547C45.5609 38.234 45.0442 38.5548 44.9235 39.0714C44.8028 39.5879 45.1237 40.1044 45.6403 40.2251Z" fill="#FFF8ED"/>
<path d="M46.3854 48.2903C46.902 48.411 47.4186 48.0901 47.5393 47.5736C47.66 47.0571 47.3391 46.5405 46.8225 46.4198C46.306 46.2991 45.7894 46.62 45.6687 47.1365C45.548 47.653 45.8689 48.1696 46.3854 48.2903Z" fill="#FFF8ED"/>
<path d="M46.8384 57.6013C47.355 57.722 47.8716 57.4011 47.9923 56.8846C48.113 56.3681 47.7921 55.8516 47.2756 55.7309C46.759 55.6102 46.2424 55.931 46.1217 56.4475C46.001 56.9641 46.3219 57.4806 46.8384 57.6013Z" fill="#FFF8ED"/>
<path d="M51.909 64.0462C52.4256 64.1669 52.9422 63.846 53.0629 63.3295C53.1836 62.813 52.8627 62.2965 52.3461 62.1758C51.8295 62.0551 51.3129 62.3759 51.1922 62.8924C51.0715 63.4089 51.3924 63.9255 51.909 64.0462Z" fill="#FFF8ED"/>
<path d="M57.6916 56.1935C58.2082 56.3142 58.7248 55.9933 58.8455 55.4768C58.9662 54.9603 58.6453 54.4437 58.1287 54.323C57.6121 54.2023 57.0955 54.5232 56.9748 55.0397C56.8541 55.5562 57.175 56.0728 57.6916 56.1935Z" fill="#FFF8ED"/>
<path d="M61.6411 50.5408C62.1576 50.6615 62.6742 50.3406 62.7949 49.8241C62.9157 49.3076 62.5947 48.791 62.0782 48.6703C61.5616 48.5496 61.045 48.8705 60.9243 49.387C60.8036 49.9035 61.1245 50.4201 61.6411 50.5408Z" fill="#FFF8ED"/>
</svg>
