<svg width="541" height="199" viewBox="0 0 541 199" fill="none" xmlns="http://www.w3.org/2000/svg">
<path opacity="0.76" d="M540.011 125.207C540.176 118.978 537.969 113.309 533.555 108.761C529.536 104.608 524.529 102.334 521.234 101.609C524.067 93.2709 522.091 74.9463 509.573 65.1578C501.766 59.0277 493.366 55.9296 484.669 55.9296C476.631 55.9296 468.264 58.764 461.61 63.6747C463.521 52.3702 460.391 45.0535 451.102 38.2971C448.104 36.1219 442.833 34.6717 437.991 34.6717C433.148 34.6717 429.459 35.9571 427.021 38.363C422.607 27.6847 411.374 20.4339 398.79 20.4339H398C384.164 20.7635 371.514 28.9371 365.223 41.2633C359.853 17.3688 332.577 0 309.617 0C308.069 0 306.488 0.0659211 304.972 0.230711C288.37 1.91157 274.798 9.72259 266.2 21.3567C264.586 20.6976 263.038 20.1373 261.588 19.7418C258.689 18.9838 255.724 18.6212 252.727 18.6212C242.449 18.6212 232.797 23.0706 225.879 30.9145C223.145 24.2241 214.152 19.4781 206.576 19.1815C200.284 18.9508 194.288 21.7522 188.128 27.8165C182.693 14.5344 162.928 4.5482 142.043 5.1744C127.581 5.60285 113.482 11.4034 105.214 20.2691C100.24 25.6083 97.5056 31.8703 97.2091 38.4949C91.4444 35.3968 86.569 33.9137 81.9901 33.9137C79.2889 33.9137 77.0818 34.4081 75.237 34.9025C70.164 36.2867 65.6181 38.2312 57.8768 49.2392C52.2438 47.031 46.2813 45.8774 40.1871 45.8774C24.7045 45.8774 10.3749 53.1611 3.68772 64.3998C-1.02294 72.2767 -1.22059 81.9005 3.09477 90.7991C8.62897 102.203 20.7845 110.244 35.6411 112.354C44.1401 133.875 66.6063 149.926 90.522 151.442C91.9055 151.541 93.2891 151.574 94.6397 151.574C101.689 151.574 109.035 150.42 116.414 148.212C122.871 151.079 130.777 152.925 140.066 153.65C139.374 156.88 140 159.978 141.944 162.746C145.666 168.053 154.099 171.612 162.895 171.612C169.22 171.612 174.556 169.733 177.949 166.405C181.342 181.269 197.385 192.54 215.898 192.54C225.089 192.54 242.153 189.574 255.461 170.36C257.866 175.336 264.553 177.907 270.845 177.907C277.631 177.907 283.395 175.27 286.756 170.689C292.949 182.851 309.288 199 333.17 199C334.323 199 335.509 198.967 336.695 198.868C359.359 197.352 376.39 184.4 380.244 174.743C384.559 180.181 390.884 183.147 398.362 183.147C406.597 183.147 415.129 179.522 420.136 173.919C421.718 172.139 422.838 170.294 423.496 168.382C428.174 176.358 439.045 183.609 452.222 183.609C459.798 183.609 470.9 181.137 481.144 169.503C484.702 170.953 488.523 171.711 492.279 171.711C500.646 171.711 507.959 167.954 510.924 162.087C513.328 157.341 512.703 151.705 509.178 146.004C534.213 144.652 539.879 133.941 540.143 125.009L540.011 125.207ZM90.6537 148.904C67.4628 147.421 45.7542 131.733 37.8482 110.772C37.6835 110.31 37.2553 109.981 36.7612 109.915C22.4315 108.069 10.7372 100.522 5.49952 89.7445C1.57946 81.6698 1.74417 73.0018 5.99364 65.9159C12.2196 55.4682 25.6598 48.7118 40.1871 48.7118C46.2813 48.7118 52.2438 49.8983 57.8438 52.2713C58.4368 52.535 59.0956 52.3042 59.458 51.7769C67.0675 40.736 71.0864 38.9233 75.9288 37.638C77.5759 37.1765 79.5853 36.7481 81.9571 36.7481C86.569 36.7481 91.6091 38.4619 97.835 42.0873C98.2633 42.3509 98.7903 42.318 99.2186 42.0873C99.6468 41.8236 99.8774 41.3622 99.8774 40.8678C99.6139 34.1115 102.117 27.6517 107.19 22.2137C114.998 13.8423 128.372 8.37132 142.109 7.97582C162.928 7.34962 182.495 17.5995 186.283 30.7827C186.415 31.2441 186.778 31.6067 187.272 31.7055C187.733 31.8044 188.227 31.7055 188.556 31.31C194.684 24.7844 200.448 21.7193 206.477 21.95C214.745 22.2796 223.079 28.0142 223.936 34.0126C224.002 34.5399 224.397 35.0013 224.924 35.1332C225.451 35.265 226.011 35.0672 226.341 34.6388C232.83 26.2016 242.449 21.3897 252.727 21.3897C255.494 21.3897 258.261 21.7522 260.929 22.4114C262.115 22.708 263.334 23.1365 264.619 23.6308C259.579 31.31 256.581 40.4723 256.12 50.5575C251.87 44.691 246.204 41.4281 240.11 41.4281C232.632 41.4281 224.792 46.8662 223.046 57.2809C216.59 50.4586 206.18 46.1741 195.54 46.1741C191.752 46.1741 188.194 46.7344 184.933 47.8549C176.137 50.8541 168.89 57.6434 165.629 65.9488C163.389 71.6176 163.191 77.55 165.003 82.9551C158.217 79.5275 150.871 77.7807 143.097 77.7807C120.301 77.7807 98.8233 93.1391 96.155 111.299C94.6397 121.78 96.8138 131.074 102.546 138.094C105.247 141.422 108.706 144.257 112.856 146.564C105.313 148.541 97.9339 149.332 90.7196 148.871L90.6537 148.904ZM506.542 143.631C506.048 143.631 505.587 143.927 505.357 144.389C505.126 144.85 505.192 145.377 505.488 145.773C509.606 151.376 510.594 156.649 508.387 161.098C505.884 166.042 499.526 169.239 492.147 169.239C488.424 169.239 484.636 168.415 481.21 166.866C480.65 166.602 480.024 166.767 479.629 167.229C469.845 178.731 459.271 181.137 452.09 181.137C437.595 181.137 426.198 171.777 423.925 163.109C423.76 162.417 423.068 161.988 422.376 162.12C421.685 162.252 421.191 162.911 421.289 163.603C421.718 167.261 419.741 170.36 417.995 172.337C413.548 177.314 405.609 180.675 398.23 180.675C390.851 180.675 384.428 177.281 380.672 171.118C380.376 170.623 379.783 170.36 379.223 170.491C378.663 170.623 378.235 171.085 378.169 171.678C377.378 179.456 360.907 194.781 336.333 196.396C310.605 198.11 292.916 179.258 288.007 167.525C287.81 167.031 287.349 166.734 286.821 166.701C286.821 166.701 286.821 166.701 286.788 166.701C286.294 166.701 285.833 166.998 285.603 167.426C283.066 172.403 277.499 175.369 270.713 175.369C264.454 175.369 257.767 172.568 257.141 167.196C257.075 166.635 256.647 166.174 256.087 166.042C255.527 165.91 254.967 166.141 254.637 166.635C241.823 186.937 224.792 189.97 215.766 189.97C197.352 189.97 181.639 178.237 179.992 163.241C179.926 162.68 179.53 162.219 178.97 162.087C178.41 161.955 177.85 162.186 177.521 162.68C174.952 166.734 169.549 169.074 162.763 169.074C154.923 169.074 147.215 165.877 144.019 161.329C142.24 158.791 141.911 156.023 142.965 153.024C143.097 152.628 143.064 152.167 142.833 151.837C142.603 151.475 142.207 151.244 141.779 151.244C132.061 150.618 123.925 148.838 117.369 145.905C117.271 145.806 117.139 145.74 117.04 145.674C114.8 144.652 112.823 143.532 111.078 142.345H111.012C108.475 140.599 106.301 138.621 104.489 136.38C99.2845 129.92 97.275 121.384 98.6915 111.661C101.129 95.0177 121.817 80.4503 142.965 80.4503C151.596 80.4503 159.667 82.7244 166.98 87.1737C167.507 87.5033 168.166 87.4374 168.594 87.0089C169.022 86.5805 169.154 85.9213 168.857 85.394C165.827 79.7252 165.53 73.1666 168.001 66.9046C170.998 59.2913 177.62 53.1282 185.69 50.3597C188.655 49.338 191.949 48.8437 195.441 48.8437C206.312 48.8437 217.314 53.8533 222.849 61.3347C223.178 61.7961 223.771 61.9939 224.331 61.8291C224.891 61.6643 225.253 61.1699 225.286 60.6096C225.781 49.7665 233.061 44.0977 240.011 44.0977C246.369 44.0977 252.233 48.3822 256.153 55.8967C256.449 56.4569 257.075 56.7206 257.701 56.5888C258.294 56.424 258.722 55.8637 258.689 55.2375C258.393 46.6025 260.04 38.5937 263.268 31.5407C263.268 31.5407 263.268 31.5407 263.301 31.5407C264.553 28.8382 266.002 26.2675 267.715 23.8286C267.748 23.7627 267.748 23.6968 267.781 23.6638C275.951 12.2274 289.061 4.58116 305.17 2.93326C306.586 2.80143 308.069 2.70256 309.518 2.70256C332.775 2.70256 360.677 21.2908 363.213 46.1411C363.279 46.7673 363.773 47.2617 364.399 47.3276C365.025 47.3935 365.618 47.031 365.816 46.4377C370.757 32.8261 383.703 23.466 398 23.1365H398.724C411.044 23.1365 421.948 30.6838 425.242 41.527C425.407 42.0543 425.835 42.4169 426.395 42.4828C426.955 42.5487 427.449 42.285 427.713 41.8236C429.887 37.9675 435.059 37.3743 437.958 37.3743C442.207 37.3743 446.951 38.6597 449.487 40.4723C458.843 47.2617 461.182 54.3806 458.184 66.7728C458.052 67.3331 458.283 67.9593 458.81 68.2559C459.304 68.5525 459.963 68.4866 460.391 68.0911C462.862 65.8829 471.855 58.6322 484.636 58.6322C492.707 58.6322 500.547 61.5325 507.86 67.3001C520.477 77.1875 521.136 96.336 518.039 102.104C517.808 102.532 517.841 103.026 518.072 103.422C518.303 103.817 518.764 104.081 519.225 104.081C521.63 104.081 527.197 106.157 531.512 110.64C534.213 113.441 537.409 118.187 537.211 125.108C536.882 136.808 526.538 143.037 506.444 143.598L506.542 143.631Z" fill="#1B1B1B"/>
</svg>
