<svg width="145" height="136" viewBox="0 0 145 136" fill="none" xmlns="http://www.w3.org/2000/svg">
<path d="M83.7605 26.8526C85.4365 26.3135 87.2137 26.2713 88.7102 27.1276C89.028 27.3096 89.4413 27.5962 89.9459 27.9845C91.2466 28.9747 92.0554 30.2467 92.1973 31.8931C92.2655 32.7207 92.2299 33.5961 91.9778 34.404C91.5841 35.6724 90.9449 36.7874 90.0742 37.7462C89.4835 38.3949 88.9235 38.8752 88.3924 39.1801C86.9075 40.0498 85.2523 40.5477 83.5255 40.3069C82.965 40.2284 82.4139 40.1074 81.8651 39.9454C81.3122 39.7806 80.9766 39.5142 80.4619 39.1132C78.9507 37.9439 78.1417 36.271 78.1238 34.3589C78.1144 32.7135 78.6197 31.2078 79.6382 29.835C80.7123 28.3951 82.086 27.3987 83.7605 26.8526ZM83.2305 35.1851C83.3846 35.358 83.5833 35.4809 83.8293 35.5496C84.0726 35.6225 84.3406 35.6387 84.6334 35.598C84.9262 35.5574 85.2113 35.4632 85.5072 35.3153C85.8073 35.1701 86.0815 34.9717 86.3341 34.7411C86.5868 34.5104 86.8039 34.2506 86.9771 33.9745C87.1531 33.6941 87.2727 33.4074 87.3345 33.1257C87.4018 32.8355 87.4116 32.5687 87.3666 32.3209C87.3174 32.0703 87.2136 31.8572 87.0524 31.6858C86.8983 31.5128 86.6953 31.3871 86.4493 31.3185C86.2088 31.2413 85.9423 31.2321 85.6522 31.2685C85.361 31.3162 85.0645 31.4091 84.7687 31.557C84.4771 31.7077 84.2042 31.8949 83.9473 32.1227C83.6946 32.3533 83.4818 32.6159 83.31 32.899C83.134 33.1794 83.0087 33.4563 82.9414 33.7466C82.8768 34.0325 82.8643 34.3037 82.9135 34.5542C82.964 34.7935 83.0678 35.0066 83.2305 35.1851Z" fill="#16A34B"/>
<path d="M129.083 85.2307C127.237 86.0966 124.777 86.4728 122.872 85.6671C121.661 85.1542 120.641 84.5526 119.82 83.8495C119.116 83.2464 118.647 82.5414 118.402 81.7445C118.121 80.8337 117.828 79.7933 118.014 78.7789C118.394 76.6455 119.515 74.9932 121.38 73.8179C123.208 72.6544 125.087 72.4357 127.163 72.7818C127.796 72.889 128.221 73.0371 128.799 73.3582C129.802 73.9121 130.463 74.2743 130.773 74.4579C131.111 74.665 131.439 74.9627 131.746 75.3565C133.348 77.3926 133.393 79.9353 132.191 82.1968C131.55 83.3895 130.331 84.6325 129.083 85.2307ZM128.285 79.0359C128.252 78.771 128.153 78.531 127.987 78.3018C127.818 78.0768 127.588 77.8908 127.313 77.7364C127.026 77.5808 126.709 77.4722 126.359 77.4148C126 77.3519 125.642 77.344 125.269 77.3871C124.9 77.433 124.552 77.5224 124.22 77.6595C123.886 77.8009 123.604 77.9755 123.362 78.189C123.125 78.4053 122.944 78.6462 122.826 78.9033C122.714 79.1588 122.673 79.4176 122.699 79.677C122.732 79.9419 122.831 80.1819 123 80.4068C123.168 80.6318 123.393 80.8263 123.674 80.9722C123.958 81.1321 124.277 81.2364 124.628 81.2938C124.984 81.361 125.342 81.3689 125.715 81.3257C126.081 81.2841 126.435 81.1862 126.764 81.0534C127.098 80.912 127.383 80.7331 127.625 80.5196C127.862 80.3033 128.04 80.0666 128.156 79.8138C128.27 79.554 128.318 79.2937 128.285 79.0359Z" fill="#16A34B"/>
<path d="M98.325 89.0198C98.3498 88.963 98.3153 88.9042 98.2301 88.8489C98.1875 88.8212 98.1311 88.8149 98.0465 88.8147C97.6634 88.8452 97.0003 88.9247 96.4829 88.9288C90.2696 89.0053 83.739 89.4589 77.8922 89.6337C76.2221 89.6788 73.6555 89.8459 71.5947 89.7467C71.1786 89.7255 70.7466 89.6635 70.2999 89.5496C69.3954 89.3388 68.5277 88.7633 67.7648 88.2133C67.3032 87.8893 66.9712 87.5706 66.769 87.2571C66.0914 86.2585 65.7567 85.1609 65.6829 83.941C65.5946 82.4265 65.6234 81.0487 65.7847 79.8115C66.2837 75.7699 67.0254 71.7461 68.0877 67.9184C68.556 66.2552 69.3155 63.7427 70.0099 61.6009C70.3469 60.5689 70.5844 59.5876 70.896 58.6788C71.3541 57.3671 71.7632 55.8417 72.2433 54.4775C72.6605 53.3033 73.1094 52.0525 73.5843 50.7336C73.6802 50.474 73.71 50.2323 73.678 50.0111C73.6179 49.6746 73.4337 49.5853 73.1157 49.7675C73.089 49.7805 73.0681 49.8034 73.0472 49.8262C72.2088 50.642 71.0414 51.5355 70.3932 52.0862C68.4906 53.6925 66.596 55.2676 64.7794 57.0026C63.4105 58.2996 62.5661 59.0872 62.2646 59.3651C61.6115 59.9793 61.0981 60.4717 60.7356 60.8435C60.0985 61.4985 59.3682 62.1477 58.6931 62.8144C57.2037 64.3064 55.6652 65.8274 54.1015 67.3685C53.9956 67.4757 53.3055 68.1935 52.0231 69.5346C51.177 70.4182 50.1996 71.2894 49.0993 72.1354C48.719 72.4228 48.2098 72.6569 47.5576 72.8407C47.004 73.0034 46.3887 72.9439 45.712 72.6807C44.8909 72.3601 44.3211 71.8202 43.9829 71.0541C43.7288 70.4944 43.5487 70.0071 43.4425 69.5738C43.1702 68.5106 42.8797 67.2047 42.5852 65.6534C41.6168 60.58 40.8273 56.6672 40.2109 53.9051C39.4431 50.4436 38.8512 47.588 38.425 45.3441C38.3821 45.1584 38.3093 45.0747 38.184 45.0905C38.0856 45.1115 37.9849 45.1919 37.9005 45.3314C37.1026 46.6349 36.6384 48.4222 36.0483 49.6481C35.3591 51.1013 34.9467 52.4545 34.3275 53.8559C33.5898 55.5142 33.0484 57.1968 32.3007 58.8426C32.2388 58.9845 32.1525 59.22 32.0377 59.5461C31.6827 60.615 31.1724 61.6621 30.6578 62.949C29.9855 64.6559 29.6287 65.5597 29.5818 65.6506C29.0737 66.8994 28.6006 68.1224 28.185 69.3219C28.0087 69.8267 27.8788 70.2039 27.7872 70.4662C27.2909 71.8927 26.5677 73.9672 25.6074 76.6771C25.405 77.25 25.1295 77.7208 24.7964 78.0753C24.2362 78.677 23.6826 79.1008 22.8656 78.9043C22.4811 78.8065 22.0844 78.6156 21.6906 78.3175C20.6234 77.5274 20.7182 76.3928 21.1067 75.2911C21.4919 74.1568 21.8355 72.9469 22.2363 71.8168C22.7822 70.2951 23.4705 68.3678 24.315 66.0321C24.7049 64.9373 25.175 64.0827 25.551 63.0094C26.0229 61.6764 26.7317 60.2117 27.2571 58.7497C27.7266 57.4577 28.3616 56.0787 28.7863 54.9397C29.2218 53.7653 29.808 52.5733 30.207 51.3993C30.5854 50.2849 30.8667 49.7025 31.4787 48.2843C32.0864 46.8634 32.6518 45.3119 33.3565 43.8628C33.7233 43.1113 33.959 42.6085 34.0744 42.3374C34.4027 41.5427 34.629 40.961 34.9996 40.2969C35.7023 39.0469 36.2915 38.0088 37.3987 37.4039C38.0096 37.0598 38.6616 36.9974 39.3646 37.2109C40.9204 37.6867 41.5036 38.8122 42.0257 40.2927C42.244 40.9262 42.5087 41.936 42.814 43.3122C44.2848 49.999 46.0765 58.327 47.5034 65.9686C47.5365 66.1601 47.6233 66.3621 47.7607 66.5607C47.881 66.7298 48.0167 66.7633 48.1902 66.6452C48.5458 66.4146 48.7651 66.0955 49.0354 65.8096C49.8462 64.9152 50.496 64.2502 50.9593 63.8164C52.1469 62.7053 52.9825 61.754 54.1172 60.7057C54.7675 60.0957 55.3559 59.3666 56.0832 58.7034C56.6389 58.2019 57.1468 57.7181 57.6042 57.2561C58.4381 56.4192 58.9823 55.8982 59.2113 55.6947C59.9737 55.0239 60.5252 54.3983 61.3853 53.6331C65.1063 50.3172 68.6062 47.2767 72.4613 44.3883C73.2877 43.759 74.2325 43.1337 75.2829 42.5043C76.0042 42.074 76.7793 41.9154 77.6149 42.0085C78.4944 42.1181 79.2091 42.5093 79.7689 43.1763C80.4243 43.948 80.1922 45.6856 79.916 46.6052C79.4236 48.2588 78.9332 49.7135 78.4561 50.9519C78.2642 51.4527 77.7796 52.9171 77.0038 55.3522C76.5662 56.7257 76.0353 58.2147 75.6549 59.4068C74.5534 62.8751 73.5516 66.1714 72.6633 69.2924C72.0777 71.3227 71.6631 73.5186 71.1985 75.6518C71.107 76.0538 70.8689 77.7633 70.4786 80.7705C70.351 81.7503 70.2647 83.1515 70.5731 84.1592C70.7253 84.6709 71.0905 84.9384 71.6702 84.9687C72.6139 85.0167 73.4175 85.0284 74.0798 84.9969C76.8191 84.881 79.4927 84.8197 82.1428 84.6824C88.8157 84.3456 92.9218 84.176 94.4585 84.1779C98.7637 84.1679 102.638 84.1877 106.064 84.2446C106.755 84.2438 107.614 84.3282 108.642 84.4611C109.444 84.5689 110.054 84.7583 110.465 85.0379C111.393 85.6703 111.863 86.5404 111.854 87.6457C111.855 89.0245 110.684 89.6246 109.559 89.9869C107.689 90.5823 106.296 91.0498 105.392 91.3978C101.772 92.7759 98.1643 94.2951 94.5691 95.9439C93.7666 96.3033 92.8622 96.7544 91.8542 97.2718C89.757 98.3571 88.4326 98.9423 86.7293 99.9616C85.9575 100.414 84.9547 100.886 84.1926 101.332C82.5086 102.303 80.1997 103.5 78.4506 104.581C76.8753 105.562 75.3801 106.4 73.7731 107.44C73.6443 107.526 71.8442 108.713 68.3744 111.008C67.5653 111.545 66.8344 112 66.1704 112.388C65.5106 112.78 64.9718 113.013 64.5456 113.1C63.3177 113.36 61.9027 112.611 61.012 111.857C60.1271 111.112 59.2259 110.29 58.2985 109.397C57.9894 109.099 57.6265 108.79 57.2 108.459C56.5461 107.955 56.1636 107.658 56.0626 107.581C55.0367 106.829 53.8716 105.854 52.5489 104.656C52.0021 104.155 51.4277 103.697 50.8156 103.287C50.2234 102.885 49.7958 102.583 49.5414 102.387C47.6631 100.907 45.6509 99.5576 43.919 98.0567C43.4365 97.6341 42.9819 97.3086 42.4404 96.9024C42.0892 96.6319 40.7161 95.716 38.3112 94.1607C37.5615 93.674 36.7984 92.9842 36.1736 92.5664C33.5933 90.8243 31.0673 89.1661 28.6214 87.5902C28.0266 87.2101 27.0967 86.6002 26.6529 85.9781C26.0388 85.1241 26.6098 83.5639 27.5301 83.1535C28.4113 82.7663 29.2677 82.8366 30.1081 83.3701C32.8094 85.0936 36.0876 87.2159 39.9394 89.7411C41.0809 90.4822 42.0944 91.3831 43.2133 92.1217C43.9957 92.6418 44.3847 92.9005 44.389 92.9033C46.8138 94.6051 48.1962 95.5998 48.5321 95.8847C49.5081 96.7127 50.416 97.4964 51.4767 98.2034C52.2208 98.6986 53.4185 99.4276 54.1927 100.1C55.2073 100.972 56.4545 101.848 57.4855 102.797C58.1348 103.401 58.8331 103.957 59.5733 104.486C60.2837 104.996 61.166 105.763 61.9624 106.402C62.4445 106.788 62.8168 107.193 63.2483 107.601C63.8581 108.191 64.2987 107.998 64.948 107.557C67.1043 106.073 69.8984 104.25 73.3036 102.101C73.7545 101.817 74.2138 101.539 74.6847 101.28C75.6403 100.74 76.7305 100.003 77.6403 99.5251C77.9095 99.3902 78.5582 99.016 79.5935 98.4192C80.9355 97.639 82.7108 96.7697 83.7865 96.1202C84.5373 95.6725 85.2857 95.2659 86.0234 94.9131C87.3108 94.2917 89.0873 93.2714 90.453 92.6038C93.0419 91.358 95.6123 90.2339 98.1586 89.2216C98.2386 89.1825 98.2979 89.1175 98.325 89.0198Z" fill="#16A34B"/>
<path d="M31.2234 28.0015C31.0497 26.6744 31.2636 25.5989 31.6262 24.1827C31.9887 22.7665 32.665 21.8274 33.8796 20.8612C34.6496 20.244 35.33 19.8115 35.9164 19.5425C37.4427 18.8516 38.6236 19.0657 40.0338 19.3741C42.0263 19.8117 43.516 21.4711 44.4207 23.2668C44.7349 23.9019 44.8348 24.5314 44.9179 25.308C45.1912 27.7685 44.4709 29.9784 42.7467 31.9253C42.1534 32.5966 41.4907 33.1136 40.7448 33.4792C39.8809 33.8959 38.9487 33.9889 38.0109 34.0905C37.5138 34.1381 37.0921 34.1254 36.7587 34.0608C33.7407 33.431 31.6285 31.0332 31.2234 28.0015ZM37.6174 29.3903C37.9069 29.4386 38.1972 29.4206 38.4879 29.3179C38.7758 29.2194 39.0433 29.0592 39.2932 28.8328C39.5333 28.6123 39.7474 28.3384 39.9117 28.0201C40.076 27.7017 40.1978 27.3557 40.2573 26.9936C40.3153 26.6245 40.3199 26.2631 40.2666 25.9068C40.2162 25.5462 40.1042 25.2245 39.9501 24.9302C39.7891 24.6374 39.592 24.4001 39.3475 24.2171C39.1031 24.0341 38.8396 23.9177 38.5458 23.8666C38.2633 23.8168 37.9746 23.8418 37.6867 23.9403C37.3973 24.0317 37.1227 24.1934 36.8798 24.4183C36.63 24.6446 36.4271 24.9197 36.2628 25.2381C36.0915 25.5579 35.9768 25.9024 35.9145 26.2688C35.8522 26.6351 35.8477 26.9965 35.9051 27.3556C35.9541 27.7092 36.0591 28.0324 36.2216 28.3322C36.3812 28.618 36.5826 28.858 36.8242 29.0453C37.0687 29.2283 37.3322 29.3447 37.6174 29.3903Z" fill="#16A34B"/>
</svg>
