<svg width="36" height="49" viewBox="0 0 36 49" fill="none" xmlns="http://www.w3.org/2000/svg">
<path d="M20.4677 18.8114C19.833 16.6113 25.5449 -3.66116 20.6263 0.582117C14.4382 10.7965 5.55299 19.7543 0 29.9692C0 30.2835 0.317328 30.755 0.79332 30.755C4.75992 31.3836 8.88544 31.5407 12.8518 31.2264C9.04385 49.77 6.34682 56.6846 22.2132 37.8267C26.9731 32.3262 32.0504 26.8262 35.8583 20.5403C37.6036 17.083 22.689 18.9688 20.4682 18.8117L20.4677 18.8114ZM20.6263 36.2552C18.0877 39.241 15.3907 42.0695 12.6931 45.0555C15.2318 25.8834 21.261 29.8123 3.33169 28.8689C8.72627 21.3258 14.5971 13.9395 19.8328 6.23948C17.4528 25.726 14.2793 20.3829 32.8432 21.1689C29.3526 26.512 24.91 31.3833 20.6263 36.2552Z" fill="white"/>
</svg>
