<svg width="47" height="47" viewBox="0 0 47 47" fill="none" xmlns="http://www.w3.org/2000/svg">
<mask id="path-1-inside-1_2346_1237" fill="white">
<path d="M33.5114 45.7641C28.6535 45.7641 22.4108 38.9282 21.3451 37.7144C19.5766 38.7793 7.19735 45.9563 4.32076 41.7821C1.50826 37.6932 7.85769 29.2387 8.96564 27.8117C7.70851 26.5978 0.592235 19.5487 1.01837 16.0139C1.1036 15.3111 1.46581 14.7787 2.08371 14.438C6.04678 12.2019 13.7598 14.438 15.2298 14.8852C16.0182 13.0111 21.1745 1 25.5635 1C29.974 1 31.8277 11.9037 32.1047 13.6926C33.6601 13.6926 42.0552 13.8204 44.7183 16.6528C45.3149 17.2917 45.5919 18.037 45.5493 18.8464C45.2084 23.6807 36.5153 30.2401 35.2157 31.1771C35.5779 32.6252 37.8151 41.8041 35.5353 44.7856C35.0453 45.4245 34.3847 45.7439 33.5964 45.7652H33.5111L33.5114 45.7641ZM21.4092 37.1175C21.4944 37.1175 21.5583 37.1388 21.6009 37.2026C21.6648 37.2878 28.5473 45.2312 33.5116 45.2312H33.5542C34.1934 45.2312 34.7048 44.9756 35.0883 44.4645C37.3468 41.483 34.6622 31.2397 34.6409 31.1334C34.6196 31.0271 34.6622 30.9204 34.7474 30.8565C34.8539 30.7926 44.676 23.6798 45.0169 18.8025C45.0596 18.121 44.8465 17.546 44.3351 16.9923C41.6079 14.096 31.9983 14.2025 31.892 14.2025C31.7428 14.2025 31.6363 14.1173 31.615 13.9682C31.5937 13.8404 29.8252 1.51005 25.5851 1.51005C21.2811 1.51005 15.7199 15.1608 15.6565 15.2889C15.6138 15.4167 15.4647 15.4806 15.3369 15.438C15.2516 15.4167 6.49436 12.563 2.38231 14.863C1.91356 15.1399 1.63654 15.5232 1.57266 16.0556C1.14652 19.6121 9.45584 27.4915 9.54175 27.5767C9.64828 27.6619 9.64828 27.8323 9.56305 27.9388C9.47783 28.0452 1.97783 37.4372 4.76905 41.4832C7.5176 45.4869 21.1327 37.2239 21.282 37.1388C21.3246 37.1175 21.3666 37.1175 21.4092 37.1175Z"/>
</mask>
<path d="M33.5114 45.7641C28.6535 45.7641 22.4108 38.9282 21.3451 37.7144C19.5766 38.7793 7.19735 45.9563 4.32076 41.7821C1.50826 37.6932 7.85769 29.2387 8.96564 27.8117C7.70851 26.5978 0.592235 19.5487 1.01837 16.0139C1.1036 15.3111 1.46581 14.7787 2.08371 14.438C6.04678 12.2019 13.7598 14.438 15.2298 14.8852C16.0182 13.0111 21.1745 1 25.5635 1C29.974 1 31.8277 11.9037 32.1047 13.6926C33.6601 13.6926 42.0552 13.8204 44.7183 16.6528C45.3149 17.2917 45.5919 18.037 45.5493 18.8464C45.2084 23.6807 36.5153 30.2401 35.2157 31.1771C35.5779 32.6252 37.8151 41.8041 35.5353 44.7856C35.0453 45.4245 34.3847 45.7439 33.5964 45.7652H33.5111L33.5114 45.7641ZM21.4092 37.1175C21.4944 37.1175 21.5583 37.1388 21.6009 37.2026C21.6648 37.2878 28.5473 45.2312 33.5116 45.2312H33.5542C34.1934 45.2312 34.7048 44.9756 35.0883 44.4645C37.3468 41.483 34.6622 31.2397 34.6409 31.1334C34.6196 31.0271 34.6622 30.9204 34.7474 30.8565C34.8539 30.7926 44.676 23.6798 45.0169 18.8025C45.0596 18.121 44.8465 17.546 44.3351 16.9923C41.6079 14.096 31.9983 14.2025 31.892 14.2025C31.7428 14.2025 31.6363 14.1173 31.615 13.9682C31.5937 13.8404 29.8252 1.51005 25.5851 1.51005C21.2811 1.51005 15.7199 15.1608 15.6565 15.2889C15.6138 15.4167 15.4647 15.4806 15.3369 15.438C15.2516 15.4167 6.49436 12.563 2.38231 14.863C1.91356 15.1399 1.63654 15.5232 1.57266 16.0556C1.14652 19.6121 9.45584 27.4915 9.54175 27.5767C9.64828 27.6619 9.64828 27.8323 9.56305 27.9388C9.47783 28.0452 1.97783 37.4372 4.76905 41.4832C7.5176 45.4869 21.1327 37.2239 21.282 37.1388C21.3246 37.1175 21.3666 37.1175 21.4092 37.1175Z" fill="white"/>
<path d="M33.5114 45.7641L34.4761 46.0277L34.8214 44.7641H33.5114V45.7641ZM21.3451 37.7144L22.0965 37.0546L21.5452 36.4267L20.8293 36.8577L21.3451 37.7144ZM4.32076 41.7821L3.49685 42.3488L3.49734 42.3495L4.32076 41.7821ZM8.96564 27.8117L9.75552 28.425L10.3061 27.7159L9.66026 27.0923L8.96564 27.8117ZM1.01837 16.0139L0.025645 15.8935L0.0255595 15.8942L1.01837 16.0139ZM2.08371 14.438L2.56663 15.3137L2.57512 15.3089L2.08371 14.438ZM15.2298 14.8852L14.9388 15.8419L15.8018 16.1045L16.1516 15.2729L15.2298 14.8852ZM32.1047 13.6926L31.1165 13.8456L31.2477 14.6926H32.1047V13.6926ZM44.7183 16.6528L45.4492 15.9703L45.4469 15.9678L44.7183 16.6528ZM45.5493 18.8464L46.5469 18.9167L46.5475 18.9078L46.548 18.8989L45.5493 18.8464ZM35.2157 31.1771L34.6308 30.366L34.0812 30.7623L34.2456 31.4197L35.2157 31.1771ZM35.5353 44.7856L36.3288 45.3942L36.3297 45.393L35.5353 44.7856ZM33.5964 45.7652V46.7652H33.6099L33.6234 46.7649L33.5964 45.7652ZM33.5111 45.7652L32.5465 45.5016L32.2012 46.7652H33.5111V45.7652ZM21.6009 37.2026L20.769 37.7575L20.7844 37.7806L20.8011 37.8028L21.6009 37.2026ZM35.0883 44.4645L34.2912 43.8607L34.2885 43.8643L35.0883 44.4645ZM34.7474 30.8565L34.2331 29.9989L34.1889 30.0254L34.1476 30.0564L34.7474 30.8565ZM45.0169 18.8025L46.0145 18.8722L46.015 18.8649L45.0169 18.8025ZM44.3351 16.9923L45.0698 16.3138L45.0632 16.3068L44.3351 16.9923ZM31.615 13.9682L32.6049 13.8267L32.6033 13.8152L32.6013 13.8037L31.615 13.9682ZM15.6565 15.2889L14.7602 14.8454L14.7296 14.9072L14.7078 14.9726L15.6565 15.2889ZM15.3369 15.438L15.6529 14.4893L15.6165 14.4771L15.5793 14.4678L15.3369 15.438ZM2.38231 14.863L1.89415 13.9903L1.88389 13.996L1.87377 14.002L2.38231 14.863ZM1.57266 16.0556L0.579778 15.9365L0.579757 15.9366L1.57266 16.0556ZM9.54175 27.5767L8.83764 28.2868L8.87555 28.3244L8.91724 28.3577L9.54175 27.5767ZM4.76905 41.4832L5.59348 40.9172L5.59218 40.9153L4.76905 41.4832ZM21.282 37.1388L20.835 36.2442L20.8104 36.2565L20.7865 36.2702L21.282 37.1388ZM33.5114 44.7641C32.5188 44.7641 31.3807 44.4103 30.1676 43.7874C28.9642 43.1695 27.7538 42.3216 26.6349 41.4168C24.3968 39.6071 22.6123 37.6421 22.0965 37.0546L20.5936 38.3742C21.1435 39.0005 23.0132 41.0603 25.3774 42.972C26.5596 43.928 27.8874 44.8649 29.2541 45.5666C30.6112 46.2634 32.0751 46.7641 33.5114 46.7641V44.7641ZM20.8293 36.8577C19.9605 37.3808 16.4834 39.4051 12.8913 40.7789C11.0873 41.4687 9.32522 41.9664 7.88146 42.0593C6.40646 42.1542 5.55963 41.8175 5.14417 41.2146L3.49734 42.3495C4.52018 43.8337 6.29948 44.1652 8.00989 44.0552C9.75153 43.9431 11.7341 43.3626 13.6056 42.6469C17.3644 41.2095 20.9611 39.1129 21.8609 38.5711L20.8293 36.8577ZM5.14467 41.2153C4.64192 40.4844 4.49628 39.4838 4.69222 38.2292C4.8875 36.9787 5.40561 35.5959 6.07092 34.2389C7.39946 31.5291 9.21347 29.1231 9.75552 28.425L8.17577 27.1984C7.60987 27.9273 5.69518 30.4621 4.27514 33.3585C3.56616 34.8046 2.95501 36.3912 2.71617 37.9206C2.47797 39.4458 2.59335 41.0353 3.49685 42.3488L5.14467 41.2153ZM9.66026 27.0923C9.04272 26.496 6.98513 24.465 5.14193 22.1588C4.21889 21.0039 3.37208 19.8078 2.78618 18.7077C2.1793 17.5684 1.94322 16.6973 2.01118 16.1336L0.0255595 15.8942C-0.119548 17.0979 0.374105 18.4335 1.02096 19.648C1.68879 20.9018 2.61973 22.2065 3.57963 23.4075C5.50232 25.8131 7.63144 27.9135 8.27103 28.5311L9.66026 27.0923ZM2.0111 16.1343C2.05737 15.7527 2.22829 15.5002 2.56661 15.3136L1.60082 13.5623C0.703343 14.0572 0.149824 14.8696 0.0256453 15.8935L2.0111 16.1343ZM2.57512 15.3089C4.25034 14.3637 6.87751 14.3144 9.46409 14.6472C11.9893 14.972 14.2229 15.6241 14.9388 15.8419L15.5209 13.9285C14.7668 13.699 12.4089 13.0095 9.71927 12.6635C7.09105 12.3254 3.88015 12.2762 1.59231 13.567L2.57512 15.3089ZM16.1516 15.2729C16.5418 14.3454 18.0059 10.9274 19.9046 7.75314C20.8562 6.1622 21.8916 4.67594 22.9283 3.59979C24.0046 2.48252 24.8982 2 25.5635 2V0C24.0343 0 22.6375 1.01887 21.4879 2.21225C20.2987 3.44675 19.1728 5.08039 18.1882 6.72648C16.2144 10.0263 14.7062 13.5509 14.3081 14.4974L16.1516 15.2729ZM25.5635 2C26.2119 2 26.8954 2.39525 27.6112 3.33684C28.3189 4.26778 28.9315 5.57575 29.442 7.01065C30.459 9.86913 30.9804 12.967 31.1165 13.8456L33.0929 13.5396C32.952 12.6293 32.4081 9.38087 31.3263 6.34027C30.7875 4.82564 30.0924 3.29588 29.2034 2.12647C28.3225 0.967709 27.1204 0 25.5635 0V2ZM32.1047 14.6926C32.863 14.6926 35.2949 14.7242 37.8507 15.0999C39.1291 15.2878 40.4101 15.5578 41.5157 15.9404C42.6386 16.3289 43.4856 16.8015 43.9898 17.3378L45.4469 15.9678C44.6195 15.0879 43.4184 14.4824 42.1696 14.0503C40.9035 13.6123 39.4892 13.3193 38.1415 13.1212C35.4451 12.7248 32.9018 12.6926 32.1047 12.6926V14.6926ZM43.9875 17.3353C44.4099 17.7877 44.5782 18.2717 44.5507 18.7939L46.548 18.8989C46.6056 17.8024 46.22 16.7957 45.4492 15.9703L43.9875 17.3353ZM44.5518 18.776C44.4848 19.7271 43.9898 20.8685 43.1446 22.1215C42.3114 23.3568 41.2014 24.608 40.0375 25.7635C37.7104 28.0739 35.258 29.9137 34.6308 30.366L35.8006 31.9882C36.4729 31.5034 39.017 29.595 41.4466 27.1828C42.661 25.9772 43.8694 24.6235 44.8027 23.2399C45.7239 21.8742 46.4435 20.3828 46.5469 18.9167L44.5518 18.776ZM34.2456 31.4197C34.424 32.133 35.0606 34.7376 35.3725 37.5178C35.5287 38.9097 35.5994 40.3114 35.5014 41.5246C35.4008 42.7694 35.1332 43.6652 34.7409 44.1782L36.3297 45.393C37.0773 44.4153 37.385 43.0457 37.4949 41.6856C37.6073 40.294 37.5235 38.7514 37.36 37.2948C37.0328 34.3783 36.3696 31.6693 36.1858 30.9344L34.2456 31.4197ZM34.7419 44.177C34.4427 44.567 34.0688 44.7521 33.5693 44.7656L33.6234 46.7649C34.7007 46.7357 35.6478 46.282 36.3288 45.3942L34.7419 44.177ZM33.5964 44.7652H33.5111V46.7652H33.5964V44.7652ZM34.4758 46.0288L34.4761 46.0277L32.5468 45.5005L32.5465 45.5016L34.4758 46.0288ZM21.4092 38.1175C21.3764 38.1175 21.2696 38.1147 21.1366 38.0592C20.9851 37.9961 20.8565 37.8887 20.769 37.7575L22.4329 36.6478C22.1311 36.1953 21.6695 36.1175 21.4092 36.1175V38.1175ZM20.8011 37.8028C20.8879 37.9186 22.6801 39.9788 25.071 42.0108C26.2737 43.033 27.6571 44.0735 29.08 44.8631C30.4873 45.644 32.0243 46.2312 33.5116 46.2312V44.2312C32.5168 44.2312 31.3319 43.8254 30.0505 43.1143C28.7847 42.4119 27.5127 41.4612 26.3662 40.4869C24.0589 38.5259 22.3779 36.5719 22.4008 36.6025L20.8011 37.8028ZM33.5116 46.2312H33.5542V44.2312H33.5116V46.2312ZM33.5542 46.2312C34.508 46.2312 35.3157 45.8276 35.8882 45.0647L34.2885 43.8643C34.0939 44.1236 33.8789 44.2312 33.5542 44.2312V46.2312ZM35.8854 45.0683C36.6429 44.0684 36.9057 42.6059 36.9731 41.1861C37.0427 39.7202 36.9103 38.0907 36.7108 36.5891C36.314 33.6026 35.6155 30.9075 35.6214 30.9369L33.6604 31.3299C33.6876 31.4655 34.342 33.9453 34.7282 36.8525C34.9202 38.2976 35.0369 39.7946 34.9753 41.0912C34.9116 42.434 34.663 43.3699 34.2912 43.8607L35.8854 45.0683ZM35.6214 30.9369C35.6777 31.2177 35.5627 31.4952 35.3472 31.6567L34.1476 30.0564C33.7617 30.3457 33.5615 30.8365 33.6604 31.3299L35.6214 30.9369ZM35.2617 31.7141C35.3183 31.6802 35.4143 31.6097 35.4658 31.5721C35.548 31.5122 35.663 31.4272 35.8063 31.3195C36.0929 31.104 36.4944 30.7959 36.9733 30.4132C37.9297 29.649 39.2017 28.5819 40.4845 27.3581C41.7635 26.138 43.0753 24.7414 44.0962 23.3172C45.0992 21.9182 45.9096 20.3729 46.0145 18.8722L44.0194 18.7327C43.9538 19.6707 43.4087 20.8436 42.4708 22.1519C41.5508 23.4352 40.3365 24.7352 39.104 25.911C37.8754 27.083 36.6506 28.111 35.7248 28.8508C35.2625 29.2202 34.8765 29.5163 34.6043 29.721C34.4681 29.8234 34.3609 29.9026 34.2873 29.9563C34.183 30.0323 34.1898 30.0249 34.2331 29.9989L35.2617 31.7141ZM46.015 18.8649C46.0762 17.8863 45.749 17.0493 45.0697 16.3138L43.6005 17.6708C43.9439 18.0426 44.0429 18.3557 44.0189 18.7401L46.015 18.8649ZM45.0632 16.3068C44.2018 15.3921 42.8884 14.7924 41.5504 14.3791C40.1857 13.9575 38.6609 13.6901 37.2515 13.5186C35.8373 13.3465 34.5114 13.2677 33.5343 13.2318C33.045 13.2138 32.6412 13.2064 32.3552 13.2036C32.2121 13.2022 32.0985 13.2019 32.0183 13.202C31.9782 13.202 31.9466 13.2022 31.924 13.2023C31.9127 13.2023 31.9037 13.2024 31.8974 13.2024C31.8885 13.2025 31.8894 13.2025 31.892 13.2025V15.2025C31.9427 15.2025 34.3187 15.1765 37.0099 15.504C38.3571 15.6679 39.7527 15.917 40.9601 16.29C42.1943 16.6713 43.1048 17.1444 43.6071 17.6779L45.0632 16.3068ZM31.892 13.2025C32.0087 13.2025 32.1836 13.238 32.3455 13.3729C32.5118 13.5114 32.5852 13.689 32.6049 13.8267L30.625 14.1097C30.666 14.3965 30.8033 14.6912 31.0655 14.9096C31.3233 15.1243 31.626 15.2025 31.892 15.2025V13.2025ZM32.6013 13.8037C32.6023 13.8096 32.6022 13.809 32.5966 13.7715C32.5923 13.7434 32.5863 13.7038 32.5784 13.6534C32.5627 13.5526 32.5399 13.4096 32.5098 13.2306C32.4497 12.8727 32.3605 12.3701 32.2406 11.7714C32.0014 10.5769 31.6378 8.98613 31.136 7.39113C30.6383 5.80911 29.986 4.16112 29.1483 2.88877C28.3371 1.65671 27.1705 0.510054 25.5851 0.510054V2.51005C26.1197 2.51005 26.7642 2.90469 27.4778 3.98858C28.1649 5.03217 28.7511 6.47476 29.2282 7.99131C30.178 11.0106 30.6152 14.0522 30.6286 14.1327L32.6013 13.8037ZM25.5851 0.510054C24.7825 0.510054 24.033 0.826242 23.3733 1.26308C22.7099 1.70234 22.0736 2.30534 21.4761 2.98447C20.2815 4.34238 19.1413 6.12177 18.1598 7.85972C16.2152 11.3033 14.734 14.8983 14.7602 14.8454L16.5527 15.7325C16.6423 15.5515 17.9735 12.2571 19.9013 8.84317C20.8561 7.15242 21.9171 5.51112 22.9777 4.3055C23.5079 3.70287 24.0127 3.23841 24.4775 2.93065C24.9459 2.62045 25.3117 2.51005 25.5851 2.51005V0.510054ZM14.7078 14.9726C14.8617 14.5112 15.3247 14.3799 15.6529 14.4893L15.0208 16.3867C15.6047 16.5813 16.366 16.3222 16.6051 15.6053L14.7078 14.9726ZM15.5793 14.4678C15.6236 14.4789 13.296 13.7297 10.5256 13.2922C9.13095 13.072 7.57819 12.9212 6.0896 12.9803C4.61413 13.0389 3.11705 13.3062 1.89415 13.9903L2.87048 15.7358C3.70361 15.2698 4.84319 15.0313 6.16889 14.9787C7.48146 14.9267 8.89436 15.0594 10.2137 15.2678C12.8713 15.6875 14.9648 16.3758 15.0944 16.4082L15.5793 14.4678ZM1.87377 14.002C1.1701 14.4176 0.68514 15.0584 0.579778 15.9365L2.56553 16.1747C2.58794 15.988 2.65703 15.8621 2.89086 15.724L1.87377 14.002ZM0.579757 15.9366C0.430943 17.1786 1.03183 18.5908 1.76128 19.8465C2.52295 21.1577 3.56529 22.5286 4.59913 23.7607C5.63722 24.9979 6.68848 26.1208 7.48367 26.9381C7.88185 27.3473 8.21716 27.6814 8.45625 27.9163C8.57583 28.0338 8.67134 28.1266 8.73858 28.1915C8.81607 28.2664 8.83787 28.287 8.83764 28.2868L10.2459 26.8666C10.1902 26.8115 8.12982 24.857 6.13124 22.4751C5.13027 21.2822 4.16982 20.011 3.49066 18.8419C2.77927 17.6173 2.5013 16.7108 2.56555 16.1746L0.579757 15.9366ZM8.91724 28.3577C8.70426 28.1874 8.63183 27.9576 8.62511 27.7897C8.6186 27.6271 8.66736 27.4575 8.78233 27.3139L10.3438 28.5636C10.6881 28.1335 10.8046 27.3061 10.1663 26.7957L8.91724 28.3577ZM8.78233 27.3139C8.72805 27.3817 6.78638 29.8128 5.20601 32.7613C4.41772 34.2319 3.691 35.8827 3.35091 37.4648C3.01515 39.0268 3.01855 40.7068 3.94593 42.0511L5.59218 40.9153C5.12394 40.2366 5.01813 39.2254 5.30625 37.8851C5.59004 36.5649 6.22029 35.1025 6.96876 33.7061C8.46189 30.9204 10.3128 28.6023 10.3438 28.5636L8.78233 27.3139ZM3.94463 42.0492C4.97808 43.5546 6.89343 43.7175 8.6146 43.4973C10.4138 43.2673 12.4762 42.5661 14.3863 41.7668C16.3104 40.9616 18.1437 40.0294 19.5007 39.2964C20.1805 38.9291 20.7436 38.6103 21.1423 38.3801C21.3417 38.265 21.5 38.1721 21.6112 38.1063C21.6668 38.0734 21.7104 38.0475 21.7412 38.0291C21.781 38.0054 21.7838 38.0038 21.7775 38.0074L20.7865 36.2702C20.6896 36.3255 17.3104 38.3751 13.6142 39.9218C11.7583 40.6985 9.89223 41.3177 8.36089 41.5135C6.75154 41.7193 5.9343 41.4137 5.59348 40.9172L3.94463 42.0492ZM21.729 38.0333C21.6278 38.0839 21.535 38.1042 21.4705 38.1123C21.4191 38.1188 21.3775 38.1175 21.4092 38.1175V36.1175C21.3898 36.1175 21.1172 36.1032 20.835 36.2442L21.729 38.0333Z" fill="white" mask="url(#path-1-inside-1_2346_1237)"/>
<path d="M32 13.9998C28.4 -9.20023 19.5 4.99977 15.5 14.9998C-12.0001 9.49953 9.00003 27 9.00003 28C-5.99997 52.5 17.5 39 21.5 37.5C37.9 54.7 37.3334 40.3333 35 31C59 13 33 13.9998 32 13.9998Z" stroke="white" stroke-width="2"/>
<ellipse cx="16.5523" cy="22.2528" rx="1.46263" ry="2.19394" transform="rotate(2.38109 16.5523 22.2528)" fill="white"/>
<ellipse cx="29.7052" cy="22.7992" rx="1.46263" ry="2.19394" transform="rotate(2.38109 29.7052 22.7992)" fill="white"/>
<path d="M18.7407 26.9141V26.9141C20.0847 30.274 24.4947 31.0449 26.8988 28.3402L27.5165 27.6454" stroke="white" stroke-width="1.46263" stroke-linecap="round"/>
</svg>
