<svg width="173" height="203" viewBox="0 0 173 203" fill="none" xmlns="http://www.w3.org/2000/svg">
<path d="M154.837 48.1979C154.594 47.7508 154.13 47.4828 153.623 47.4805L133.425 47.6097L120.782 31.8096C120.464 31.4129 119.957 31.2264 119.46 31.3176C118.962 31.4088 118.556 31.7713 118.4 32.2565L112.269 51.575L79.3074 64.1414C78.7413 64.3543 78.3803 64.9229 78.4251 65.5302C78.4699 66.1374 78.9049 66.6459 79.4998 66.7727L109.022 73.2782L95.4846 113.116C95.2754 113.725 95.5172 114.399 96.0655 114.732C96.236 114.839 96.4231 114.9 96.6147 114.923C97.0299 114.974 97.4579 114.831 97.7664 114.516L129.044 82.2963L148.399 87.573C148.889 87.7141 149.41 87.5608 149.758 87.1911C150.106 86.8214 150.224 86.2937 150.067 85.8083L143.71 66.5717L154.784 49.6019C155.056 49.1851 155.08 48.6395 154.837 48.1979ZM141.049 65.6293C140.817 65.9806 140.764 66.4187 140.893 66.8194L146.655 84.2484L128.989 79.4325C128.51 79.2873 127.994 79.4413 127.648 79.8003L100.052 108.229L112.123 72.7137C112.249 72.3441 112.212 71.9384 112.022 71.5952C111.831 71.2521 111.504 71.0116 111.12 70.9269L84.5968 65.0799L113.875 53.9189C114.266 53.7713 114.57 53.4505 114.695 53.0483L120.254 35.5407L131.711 49.8577C131.973 50.1879 132.367 50.3714 132.788 50.3739L151.093 50.2581L141.049 65.6293ZM27.6312 88.6205C27.3497 88.803 27.0286 88.8669 26.7198 88.8292C26.3313 88.7819 25.9629 88.5689 25.7312 88.2099C25.3231 87.5692 25.5025 86.7181 26.1413 86.3081C26.3346 86.1853 45.4331 73.9295 67.5226 68.435C68.2578 68.2535 69.0026 68.7022 69.1828 69.4398C69.3629 70.1774 68.9152 70.9254 68.1801 71.1068C46.5489 76.4829 27.8185 88.5017 27.6312 88.6205ZM96.2696 82.0083C96.3999 82.7562 95.9022 83.4708 95.1569 83.6022C64.7374 89.013 24.7852 129.907 24.3831 130.325C24.0739 130.645 23.6413 130.782 23.2314 130.732C22.944 130.697 22.6623 130.57 22.4402 130.354C21.9001 129.821 21.8872 128.952 22.4132 128.404C24.075 126.693 63.3911 86.4585 94.6704 80.892C95.4223 80.7506 96.1346 81.2545 96.2696 82.0083ZM87.3129 112.937C87.5828 113.648 87.2264 114.445 86.5234 114.717C60.1227 124.879 44.1141 148.734 43.9547 148.976C43.6565 149.428 43.1442 149.642 42.6439 149.581C42.4416 149.556 42.2346 149.482 42.0547 149.362C41.425 148.944 41.2486 148.088 41.6713 147.456C41.8363 147.211 58.3055 122.629 85.5448 112.147C86.2485 111.87 87.0429 112.226 87.3129 112.937Z" fill="black"/>
</svg>
