<svg width="7" height="11" viewBox="0 0 7 11" fill="none" xmlns="http://www.w3.org/2000/svg">
<path d="M5.67743 0.818024C4.82945 0.0921482 3.73247 -0.169476 2.65885 0.109057C1.41407 0.421353 0.410497 1.49326 0.107057 2.83531C-0.196357 4.18575 0.153736 5.55309 1.04839 6.50686C1.36739 6.85295 1.55411 7.39592 1.55411 7.95301V8.04586C1.55411 8.28216 1.72524 8.46788 1.9431 8.46788H5.05504C5.2729 8.46788 5.44403 8.28216 5.44403 8.04586V7.95301C5.44403 7.40436 5.63853 6.84448 5.98084 6.48154C6.63437 5.7641 7 4.81037 7 3.79752C7 2.63274 6.51765 1.5439 5.67743 0.818024ZM3.49907 2.53146C2.91221 2.53146 2.48499 2.95379 2.37312 3.44268C2.32221 3.66503 2.11599 3.80694 1.90169 3.75095C1.69352 3.69491 1.56625 3.46575 1.61793 3.23992C1.81066 2.39587 2.5414 1.68741 3.49907 1.68741C3.71408 1.68741 3.88806 1.87617 3.88806 2.10943C3.88806 2.3427 3.71408 2.53146 3.49907 2.53146ZM1.9431 9.31192V9.73394C1.9431 10.4321 2.46658 11 3.11008 11H3.88806C4.53156 11 5.05504 10.4321 5.05504 9.73394V9.31192H1.9431Z" fill="#FFC997"/>
</svg>
