<svg width="13" height="13" viewBox="0 0 13 13" fill="none" xmlns="http://www.w3.org/2000/svg">
<path d="M6.5 0C2.91594 0 0 2.91594 0 6.5C0 10.0841 2.91594 13 6.5 13C10.0841 13 13 10.0841 13 6.5C13 2.91594 10.0841 0 6.5 0ZM10.895 9.2525H9.43344L8.90563 8.34625L9.37438 6.4575L10.3059 6.0625L11.6388 7.20969C11.5389 7.93577 11.2854 8.6322 10.895 9.2525ZM2.69406 6.0625L3.625 6.45844L4.09375 8.34719L3.56594 9.25344H2.105C1.71476 8.63342 1.4612 7.93732 1.36125 7.21156L2.69406 6.0625ZM10.4775 3.17281L9.90219 4.80813L8.92969 5.22L7.15625 3.73313V2.63938L8.52687 1.72625C9.28194 2.04851 9.95027 2.54446 10.4775 3.17375V3.17281ZM4.47312 1.725L5.84375 2.63812V3.73187L4.07031 5.21969L3.09781 4.80781L2.5225 3.1725C3.04973 2.54321 3.71806 2.04726 4.47312 1.725ZM5.29938 11.5469L4.67125 9.96375L5.17125 9.10406H7.8275L8.32938 9.96437L7.70438 11.5456C6.91335 11.734 6.08915 11.734 5.29812 11.5456L5.29938 11.5469Z" fill="#FFC997"/>
</svg>
