<svg width="15" height="15" viewBox="0 0 15 15" fill="none" xmlns="http://www.w3.org/2000/svg">
<g clip-path="url(#clip0_2346_877)">
<path d="M5.19557 4.55907C5.77224 5.12906 6.88328 6.32462 7.49994 7.62266C8.11661 6.32462 9.22768 5.12906 9.80432 4.55907C10.5649 3.8072 11.4855 3.05141 12.3175 2.55849C10.9659 1.41775 9.27842 0.795898 7.49994 0.795898C5.72147 0.795898 4.03402 1.41775 2.68236 2.55852C3.51436 3.05141 4.43491 3.8072 5.19557 4.55907ZM12.9833 3.19209C12.2957 3.56644 11.3561 4.26097 10.4222 5.18414C9.2302 6.36236 8.40714 7.54473 8.08772 8.50557C10.5873 8.54416 12.8661 8.82801 14.4083 9.29799C14.471 9.31712 14.5373 9.32195 14.6022 9.31212C14.6671 9.3023 14.7289 9.27807 14.7832 9.24121C14.8375 9.20436 14.8828 9.15581 14.9159 9.09915C14.949 9.04248 14.9689 8.97912 14.9743 8.91373C14.9913 8.70836 14.9999 8.50048 14.9999 8.29581C14.9999 6.38948 14.2855 4.58775 12.9833 3.19209ZM4.5777 5.18414C3.64379 4.261 2.70413 3.56644 2.01663 3.19209C0.714427 4.58775 3.14382e-05 6.38948 3.14382e-05 8.29581C3.14382e-05 8.50048 0.00861532 8.70839 0.0255487 8.91373C0.0309402 8.97913 0.0509075 9.04248 0.083985 9.09915C0.117062 9.15582 0.16241 9.20436 0.2167 9.24122C0.27099 9.27807 0.332843 9.3023 0.39772 9.31212C0.462597 9.32194 0.52885 9.31711 0.591616 9.29799C2.13376 8.82801 4.41256 8.54419 6.91217 8.50557C6.59275 7.54473 5.76969 6.36236 4.5777 5.18414ZM14.9897 11.483C14.9378 11.2459 14.7034 11.096 14.4664 11.1477L13.8186 11.2896C13.6317 10.9739 13.3262 10.6875 12.9152 10.45C12.2968 10.0926 11.5 9.88758 10.7291 9.88758C9.94872 9.88758 9.27385 10.0942 8.77745 10.4852C8.39864 10.7835 8.14828 11.1718 8.04782 11.6063H6.9521C6.85164 11.1718 6.60127 10.7835 6.22247 10.4852C5.72607 10.0942 5.05119 9.88758 4.27082 9.88758C3.49991 9.88758 2.70311 10.0926 2.08471 10.45C1.67374 10.6875 1.36821 10.9739 1.18133 11.2896L0.533521 11.1477C0.296483 11.0958 0.0621401 11.2459 0.0102559 11.483C-0.0416282 11.7201 0.108429 11.9544 0.345496 12.0063L0.97045 12.1431C1.01029 12.7181 1.40225 13.2471 2.08471 13.6415C2.70311 13.9989 3.49991 14.2039 4.27082 14.2039C5.05119 14.2039 5.72607 13.9973 6.22247 13.6063C6.60127 13.308 6.85164 12.9197 6.9521 12.4852H8.04782C8.14828 12.9197 8.39864 13.308 8.77745 13.6063C9.27385 13.9973 9.94872 14.2039 10.7291 14.2039C11.5 14.2039 12.2968 13.9989 12.9152 13.6415C13.5977 13.2471 13.9896 12.7181 14.0295 12.1431L14.6544 12.0063C14.8915 11.9544 15.0416 11.7201 14.9897 11.483Z" fill="#FFC997"/>
</g>
<defs>
<clipPath id="clip0_2346_877">
<rect width="15" height="15" fill="white"/>
</clipPath>
</defs>
</svg>
