<svg width="19" height="19" viewBox="0 0 19 19" fill="none" xmlns="http://www.w3.org/2000/svg">
<g clip-path="url(#clip0_2346_868)">
<path d="M12.2109 7.91529C12.1956 7.87757 12.1723 7.84364 12.1425 7.81586C12.0006 7.68614 11.8421 7.5758 11.6711 7.48775C11.5953 7.44766 11.517 7.41348 11.44 7.37682V8.09986L11.3704 8.1387C10.8319 8.45376 10.2179 8.66288 9.62383 8.86546C9.0313 9.06743 8.84207 9.61615 8.91726 10.0692C9.0024 10.5856 9.39732 10.9454 9.87645 10.9454C9.99079 10.9454 10.1068 10.9254 10.2244 10.8854L10.4721 10.8028C10.7527 10.7086 11.0889 10.5962 11.44 10.4597V11.1067C11.44 11.148 11.4362 11.1874 11.4341 11.2269C11.4344 11.2275 11.4372 11.2282 11.4372 11.2282C11.4372 11.2282 11.4381 12.1761 11.4477 13.4299C11.3827 13.4178 11.3166 13.4116 11.2504 13.4116L9.83916 13.4134C9.8373 13.1726 9.83574 12.948 9.83481 12.7429C9.53748 12.7578 9.24075 12.7035 8.96791 12.5844L7.918 13.772L11.2551 13.7676H11.2563C11.466 13.7676 11.6671 13.8508 11.8154 13.9989C11.9637 14.1471 12.047 14.3481 12.0471 14.5578C12.0472 14.7674 11.964 14.9685 11.8158 15.1168C11.6676 15.2651 11.4666 15.3485 11.257 15.3486L6.16338 15.3551H6.16245C6.01019 15.3551 5.86115 15.3112 5.73325 15.2286C5.60535 15.146 5.50404 15.0282 5.44149 14.8894C5.37893 14.7505 5.35781 14.5966 5.38065 14.4461C5.40349 14.2955 5.46932 14.1548 5.57023 14.0408L8.02955 11.2602C8.031 11.2585 8.03224 11.2573 8.03328 11.2564C8.02815 11.1985 8.02535 11.1403 8.02489 11.0821V6.99775C8.02489 6.94865 8.02831 6.90205 8.03172 6.85544C7.94394 6.81993 7.8641 6.76733 7.79682 6.7007C5.96546 4.91097 5.7551 2.54984 6.9843 0.34593C7.42583 -0.445776 8.63948 0.262968 8.19765 1.05498C7.28538 2.6906 7.40874 4.30415 8.7268 5.64054C9.22518 5.31926 9.89975 5.27389 10.4525 5.50258C11.659 5.86332 13.6212 6.46735 13.6277 7.94264C13.6349 9.47198 11.2041 10.1652 10.1113 10.5377C9.2516 10.8307 8.88526 9.47322 9.73787 9.18239C10.354 8.97235 10.9835 8.75671 11.5484 8.42673C11.7255 8.32264 12.113 8.14056 12.2109 7.91529ZM11.2542 15.6947L9.86588 15.6959C9.88111 16.6039 9.90161 17.5074 9.93144 18.2242C9.97401 19.2564 11.581 19.2608 11.5382 18.2242C11.5093 17.522 11.4888 16.6076 11.4738 15.6723C11.4026 15.6866 11.3294 15.6941 11.2542 15.6947ZM9.73289 5.10797C10.1058 5.10797 10.4634 4.95984 10.7271 4.69616C10.9908 4.43249 11.1389 4.07487 11.1389 3.70198C11.1389 3.32909 10.9908 2.97147 10.7271 2.70779C10.4634 2.44412 10.1058 2.29599 9.73289 2.29599C9.36 2.29599 9.00238 2.44412 8.73871 2.70779C8.47503 2.97147 8.3269 3.32909 8.3269 3.70198C8.3269 4.07487 8.47503 4.43249 8.73871 4.69616C9.00238 4.95984 9.36 5.10797 9.73289 5.10797Z" fill="#FFC997"/>
</g>
<defs>
<clipPath id="clip0_2346_868">
<rect width="19" height="19" fill="white"/>
</clipPath>
</defs>
</svg>
