<svg width="263" height="253" viewBox="0 0 263 253" fill="none" xmlns="http://www.w3.org/2000/svg">
<g opacity="0.84" filter="url(#filter0_f_2346_1199)">
<ellipse cx="185.207" cy="162.229" rx="41.3505" ry="19.0281" transform="rotate(-20.1021 185.207 162.229)" fill="url(#paint0_radial_2346_1199)"/>
</g>
<path opacity="0.76" d="M17.4221 152.825C17.1066 152.705 16.8463 152.44 16.8088 152.169C16.7538 151.787 17.0693 151.484 17.5575 151.519C19.508 151.611 21.7263 151.579 24.16 151.403C24.6157 151.365 25.0889 151.65 25.224 152.033C25.3592 152.417 25.0912 152.752 24.6355 152.79C22.1392 152.973 19.8357 153.018 17.7876 152.919C17.6674 152.918 17.5573 152.891 17.4346 152.845L17.4221 152.825ZM37.29 150.946C41.3187 150.108 45.3525 149.046 49.2612 147.786C49.6718 147.655 49.8046 147.253 49.5618 146.889C49.319 146.526 48.7882 146.339 48.3776 146.47C44.514 147.717 40.5478 148.759 36.5817 149.591C36.146 149.681 35.9606 150.064 36.1584 150.441C36.261 150.645 36.4763 150.818 36.7041 150.904C36.8969 150.978 37.1097 150.998 37.285 150.959L37.29 150.946ZM60.4489 143.468C60.4489 143.468 60.5491 143.416 60.5941 143.403C61.4429 143.755 62.2966 144.095 63.1553 144.421C66.3975 145.653 69.8501 146.754 73.3202 147.651C73.7958 147.771 74.2315 147.574 74.2917 147.205C74.3519 146.836 74.0164 146.452 73.5457 146.318C70.1683 145.442 66.8559 144.394 63.6839 143.189C63.1931 143.002 62.72 142.823 62.2293 142.636C65.2566 141.161 68.0787 139.594 70.6028 137.913C70.9283 137.689 70.9334 137.254 70.5904 136.942C70.2475 136.631 69.7167 136.55 69.3736 136.767C66.5941 138.592 63.4716 140.317 60.0786 141.909C59.9259 141.942 59.7857 141.994 59.688 142.093C59.5929 142.132 59.4927 142.184 59.3975 142.224C59.0119 142.394 58.9493 142.823 59.2421 143.16C59.3523 143.293 59.5125 143.399 59.6878 143.466C59.9331 143.559 60.2311 143.566 60.4489 143.468ZM49.0379 136.657C49.3033 136.381 49.1707 135.938 48.7902 135.673C45.5081 133.49 42.7693 131.197 40.6866 128.867C40.1935 128.318 39.7279 127.748 39.2798 127.186C39.0144 126.828 38.4737 126.668 38.088 126.839C37.6899 126.989 37.5922 127.404 37.8625 127.749C38.3356 128.351 38.8263 128.96 39.3495 129.536C41.5474 131.985 44.4012 134.397 47.8435 136.686C47.9262 136.733 47.9913 136.773 48.0789 136.806C48.4294 136.939 48.8275 136.894 49.0328 136.671L49.0379 136.657ZM86.8627 150.172C91.3194 150.689 95.8462 150.916 100.288 150.838C100.751 150.833 101.054 150.511 100.942 150.121C100.846 149.738 100.383 149.426 99.9151 149.444C95.5535 149.522 91.1293 149.289 86.7703 148.779C86.2921 148.718 85.929 148.987 85.944 149.37C85.9664 149.68 86.2218 149.959 86.5723 150.092C86.6599 150.125 86.7475 150.158 86.8452 150.165L86.8627 150.172ZM113.258 149.748C117.389 149.115 121.506 148.205 125.499 147.037C125.905 146.92 126.055 146.524 125.835 146.154C125.61 145.797 125.084 145.597 124.661 145.708C120.757 146.849 116.703 147.753 112.657 148.373C112.209 148.444 111.993 148.799 112.169 149.183C112.266 149.401 112.477 149.586 112.739 149.686C112.915 149.753 113.105 149.78 113.275 149.754L113.258 149.748ZM34.0786 117.545C34.5493 117.573 34.8949 117.297 34.8449 116.901C34.3848 113.573 34.761 110.155 35.991 106.76C36.1212 106.418 35.8534 106.014 35.3852 105.821C34.9296 105.648 34.4513 105.798 34.3386 106.148C33.066 109.707 32.6648 113.296 33.1624 116.789C33.2124 117.08 33.4552 117.338 33.7882 117.465C33.8934 117.505 34.0035 117.532 34.1237 117.532L34.0786 117.545ZM79.2296 130.887C81.8891 128.111 83.9328 125.161 85.2904 122.116C85.4381 121.78 85.1979 121.357 84.7472 121.17C84.3241 120.964 83.8108 121.101 83.663 121.437C82.3505 124.363 80.382 127.221 77.8152 129.912C77.5497 130.188 77.6648 130.624 78.0628 130.896C78.1455 130.942 78.2281 130.989 78.2982 131.015C78.6487 131.149 79.0468 131.104 79.2521 130.88L79.2296 130.887ZM41.1629 97.9537C43.4869 95.216 46.3041 92.8166 49.3365 91.012C49.6746 90.8085 49.6972 90.3796 49.3817 90.0485C49.0663 89.7174 48.518 89.6298 48.1624 89.8265C45.0249 91.6968 42.0925 94.1882 39.6933 97.0181C39.4454 97.301 39.578 97.7437 39.9811 98.0025C40.0462 98.0423 40.1113 98.0821 40.1814 98.1088C40.5494 98.2486 40.9525 98.1906 41.1629 97.9537ZM86.4464 112.266C86.9246 112.327 87.2877 112.058 87.2552 111.668C87.0256 107.839 85.7318 104.119 83.4089 100.626C83.1661 100.262 82.6353 100.076 82.2247 100.206C81.814 100.337 81.6812 100.739 81.924 101.103C84.1093 104.378 85.3104 107.866 85.5401 111.484C85.5626 111.794 85.818 112.072 86.1685 112.206C86.2561 112.239 86.3437 112.272 86.4414 112.279L86.4464 112.266ZM60.5089 88.2122C64.5224 88.5757 68.9138 90.1088 72.8318 92.5181C73.2399 92.7637 73.7707 92.7391 74.0011 92.4495C74.2315 92.1599 74.0989 91.7172 73.6908 91.4716C69.4824 88.8765 64.7355 87.2235 60.3715 86.8323C59.9058 86.7911 59.5427 87.0605 59.5751 87.45C59.6026 87.7471 59.858 88.0252 60.191 88.1517C60.2786 88.185 60.3837 88.225 60.5039 88.2254L60.5089 88.2122ZM136.872 142.865C138.683 142.06 140.518 141.188 142.293 140.264C142.667 140.073 142.707 139.651 142.391 139.32C142.081 138.976 141.543 138.862 141.187 139.059C139.434 139.977 137.644 140.835 135.838 141.628C135.453 141.798 135.378 142.207 135.665 142.558C135.788 142.71 135.948 142.816 136.124 142.883C136.369 142.976 136.644 142.99 136.885 142.885L136.872 142.865Z" fill="#12196E"/>
<path d="M153.779 134.408L154.79 133.494L159.535 110.859L148.868 84.5984L148.647 85.0216L158.773 110.908L153.779 134.408Z" fill="#707D44"/>
<path d="M154.442 133.408L159.157 110.877L249.605 102.166L154.442 133.408Z" fill="#17853F"/>
<path style="mix-blend-mode:multiply" opacity="0.64" d="M154.442 133.408L159.157 110.877L249.605 102.166L154.442 133.408Z" fill="url(#paint1_linear_2346_1199)"/>
<path d="M153.78 134.409L167.854 121.564L249.606 102.166L153.78 134.409Z" fill="url(#paint2_linear_2346_1199)"/>
<path d="M167.854 121.564C168.11 120.231 249.606 102.165 249.606 102.165L186.847 154.192L167.854 121.564Z" fill="#DD8616"/>
<g filter="url(#filter1_i_2346_1199)">
<path d="M167.854 121.564C168.11 120.231 249.606 102.165 249.606 102.165L187.087 153.727L167.854 121.564Z" fill="#19A14C"/>
</g>
<g filter="url(#filter2_i_2346_1199)">
<path d="M159.158 110.877L249.605 102.165L148.868 84.5987L159.158 110.877Z" fill="#19A14C"/>
</g>
<path style="mix-blend-mode:screen" d="M194.022 106.634C178.387 107.871 163.739 110.219 163.772 110.485C163.791 110.746 178.478 108.954 194.1 107.594C209.339 106.265 222.48 104.965 222.467 104.69C222.448 104.429 209.677 105.389 194.022 106.634Z" fill="url(#paint3_radial_2346_1199)"/>
<path style="mix-blend-mode:screen" d="M154.425 96.6004C151.615 89.0971 149.304 84.6406 149.06 84.7344C148.817 84.8282 150.729 89.4271 153.532 96.9443C156.336 104.462 158.801 110.467 159.059 110.379C159.302 110.285 157.243 104.124 154.433 96.6206L154.425 96.6004Z" fill="url(#paint4_radial_2346_1199)"/>
<path style="mix-blend-mode:screen" d="M177.298 135.761C173.141 128.905 169.337 123.265 169.109 123.399C168.881 123.533 172.311 129.411 176.474 136.253C180.63 143.109 183.729 148.672 183.957 148.538C184.185 148.404 181.46 142.603 177.304 135.747L177.298 135.761Z" fill="url(#paint5_radial_2346_1199)"/>
<defs>
<filter id="filter0_f_2346_1199" x="118.579" y="112.153" width="133.256" height="100.152" filterUnits="userSpaceOnUse" color-interpolation-filters="sRGB">
<feFlood flood-opacity="0" result="BackgroundImageFix"/>
<feBlend mode="normal" in="SourceGraphic" in2="BackgroundImageFix" result="shape"/>
<feGaussianBlur stdDeviation="13.6217" result="effect1_foregroundBlur_2346_1199"/>
</filter>
<filter id="filter1_i_2346_1199" x="167.854" y="102.166" width="81.7513" height="54.9672" filterUnits="userSpaceOnUse" color-interpolation-filters="sRGB">
<feFlood flood-opacity="0" result="BackgroundImageFix"/>
<feBlend mode="normal" in="SourceGraphic" in2="BackgroundImageFix" result="shape"/>
<feColorMatrix in="SourceAlpha" type="matrix" values="0 0 0 0 0 0 0 0 0 0 0 0 0 0 0 0 0 0 127 0" result="hardAlpha"/>
<feOffset dy="3.40544"/>
<feGaussianBlur stdDeviation="9.32238"/>
<feComposite in2="hardAlpha" operator="arithmetic" k2="-1" k3="1"/>
<feColorMatrix type="matrix" values="0 0 0 0 0.0566122 0 0 0 0 0.661538 0 0 0 0 0.286067 0 0 0 1 0"/>
<feBlend mode="normal" in2="shape" result="effect1_innerShadow_2346_1199"/>
</filter>
<filter id="filter2_i_2346_1199" x="148.868" y="84.5986" width="100.737" height="29.6835" filterUnits="userSpaceOnUse" color-interpolation-filters="sRGB">
<feFlood flood-opacity="0" result="BackgroundImageFix"/>
<feBlend mode="normal" in="SourceGraphic" in2="BackgroundImageFix" result="shape"/>
<feColorMatrix in="SourceAlpha" type="matrix" values="0 0 0 0 0 0 0 0 0 0 0 0 0 0 0 0 0 0 127 0" result="hardAlpha"/>
<feOffset dy="3.40544"/>
<feGaussianBlur stdDeviation="9.32238"/>
<feComposite in2="hardAlpha" operator="arithmetic" k2="-1" k3="1"/>
<feColorMatrix type="matrix" values="0 0 0 0 0.0566122 0 0 0 0 0.661538 0 0 0 0 0.286067 0 0 0 1 0"/>
<feBlend mode="normal" in2="shape" result="effect1_innerShadow_2346_1199"/>
</filter>
<radialGradient id="paint0_radial_2346_1199" cx="0" cy="0" r="1" gradientUnits="userSpaceOnUse" gradientTransform="translate(185.207 162.229) rotate(90) scale(19.0281 41.3505)">
<stop stop-color="#515C2C"/>
<stop offset="1" stop-color="#515C2C" stop-opacity="0"/>
</radialGradient>
<linearGradient id="paint1_linear_2346_1199" x1="192.162" y1="90.6494" x2="203.989" y2="123.235" gradientUnits="userSpaceOnUse">
<stop offset="0.45" stop-color="white"/>
<stop offset="0.96" stop-color="#0B7432"/>
</linearGradient>
<linearGradient id="paint2_linear_2346_1199" x1="188.325" y1="130.408" x2="152.149" y2="129.585" gradientUnits="userSpaceOnUse">
<stop offset="0.5" stop-color="#04772D"/>
<stop offset="0.83" stop-color="#1FB458"/>
</linearGradient>
<radialGradient id="paint3_radial_2346_1199" cx="0" cy="0" r="1" gradientUnits="userSpaceOnUse" gradientTransform="translate(190.918 76.7681) rotate(-94.574) scale(0.582039 38.0266)">
<stop stop-color="#FFB45E"/>
<stop offset="0.09" stop-color="#DB9A50"/>
<stop offset="0.28" stop-color="#996C38"/>
<stop offset="0.45" stop-color="#624524"/>
<stop offset="0.61" stop-color="#372714"/>
<stop offset="0.76" stop-color="#191109"/>
<stop offset="0.88" stop-color="#060402"/>
<stop offset="0.97"/>
</radialGradient>
<radialGradient id="paint4_radial_2346_1199" cx="0" cy="0" r="1" gradientUnits="userSpaceOnUse" gradientTransform="translate(129.139 106.732) rotate(-20.344) scale(0.438605 14.6202)">
<stop stop-color="#FFB45E"/>
<stop offset="0.09" stop-color="#DB9A50"/>
<stop offset="0.28" stop-color="#996C38"/>
<stop offset="0.45" stop-color="#624524"/>
<stop offset="0.61" stop-color="#372714"/>
<stop offset="0.76" stop-color="#191109"/>
<stop offset="0.88" stop-color="#060402"/>
<stop offset="0.97"/>
</radialGradient>
<radialGradient id="paint5_radial_2346_1199" cx="0" cy="0" r="1" gradientUnits="userSpaceOnUse" gradientTransform="translate(159.232 146.226) rotate(-31.1339) scale(0.462127 15.4042)">
<stop stop-color="#FFB45E"/>
<stop offset="0.09" stop-color="#DB9A50"/>
<stop offset="0.28" stop-color="#996C38"/>
<stop offset="0.45" stop-color="#624524"/>
<stop offset="0.61" stop-color="#372714"/>
<stop offset="0.76" stop-color="#191109"/>
<stop offset="0.88" stop-color="#060402"/>
<stop offset="0.97"/>
</radialGradient>
</defs>
</svg>
