<svg width="17" height="17" viewBox="0 0 17 17" fill="none" xmlns="http://www.w3.org/2000/svg">
<path d="M13.8125 9.73781V12.0488C13.8125 12.8881 13.3184 13.6372 12.5534 13.9878C11.6237 14.4128 10.2159 14.875 8.5 14.875C6.78406 14.875 5.37625 14.4128 4.44125 13.9878C3.68156 13.6372 3.1875 12.8881 3.1875 12.0488V9.73781L6.96469 11.4644C7.44812 11.6875 7.96875 11.7991 8.5 11.7991C9.03125 11.7991 9.55187 11.6875 10.0353 11.4644L13.8125 9.73781ZM15.9375 8.76562V12.2188C15.9375 12.5109 15.6984 12.75 15.4062 12.75C15.1141 12.75 14.875 12.5109 14.875 12.2188V9.25438L15.9375 8.76562Z" fill="#FFC997"/>
<path d="M7.40456 10.4997C7.74837 10.6569 8.12197 10.7382 8.5 10.7382C8.87803 10.7382 9.25163 10.6569 9.59544 10.4997L16.38 7.39827C16.7625 7.22349 17 6.85321 17 6.43193C17 6.01065 16.7625 5.63983 16.38 5.46505L9.59544 2.36415C9.25179 2.20673 8.87825 2.12524 8.50027 2.12524C8.12228 2.12524 7.74874 2.20673 7.40509 2.36415L0.619969 5.46452C0.237469 5.63983 0 6.01011 0 6.4314C0 6.85268 0.237469 7.22296 0.619969 7.39827L7.40456 10.4997Z" fill="#FFC997"/>
</svg>
