<svg width="15" height="15" viewBox="0 0 15 15" fill="none" xmlns="http://www.w3.org/2000/svg">
<g clip-path="url(#clip0_2346_956)">
<path d="M2.29458 1.77007H2.29332C2.22345 1.76991 2.15425 1.7836 2.0897 1.81034C2.02515 1.83708 1.96654 1.87635 1.91726 1.92588C1.867 1.97575 1.82716 2.0351 1.80004 2.1005C1.77291 2.1659 1.75906 2.23604 1.75928 2.30684V10.3556C1.75928 10.6508 2.00034 10.8915 2.29671 10.8922C3.5461 10.8952 5.63934 11.1556 7.08339 12.6668V4.24351C7.08339 4.14346 7.05783 4.04947 7.0096 3.97169C5.82439 2.063 3.54681 1.773 2.29458 1.77007ZM13.2408 10.3556V2.30679C13.2408 2.16275 13.1847 2.02745 13.0829 1.92583C13.0336 1.87633 12.975 1.83708 12.9104 1.81034C12.8459 1.7836 12.7767 1.76989 12.7068 1.77002H12.7055C11.4534 1.773 9.17577 2.063 7.99051 3.97169C7.94228 4.04947 7.91678 4.14346 7.91678 4.24351V12.6667C9.36082 11.1556 11.4541 10.8952 12.7035 10.8922C12.9998 10.8914 13.2408 10.6507 13.2408 10.3556Z" fill="#FFC997"/>
<path d="M14.4633 3.62622H14.0741V10.3556C14.0741 11.1092 13.4601 11.7237 12.7054 11.7255C11.6456 11.7281 9.89827 11.9353 8.66074 13.1066C10.801 12.5825 13.0573 12.9232 14.3432 13.2162C14.4219 13.2344 14.5038 13.2345 14.5826 13.2165C14.6615 13.1986 14.7352 13.163 14.7983 13.1125C14.8614 13.0623 14.9123 12.9986 14.9472 12.926C14.9821 12.8534 15.0002 12.7738 15 12.6932V4.16289C15.0001 3.86698 14.7592 3.62622 14.4633 3.62622ZM0.925862 10.3556V3.62622H0.536668C0.240809 3.62622 0 3.86698 0 4.16289V12.6931C0 12.8572 0.0735356 13.01 0.201718 13.1123C0.264821 13.1628 0.338548 13.1984 0.417368 13.2164C0.496187 13.2344 0.578053 13.2342 0.65682 13.2161C1.94268 12.923 4.199 12.5824 6.33921 13.1064C5.10173 11.9352 3.35435 11.728 2.2946 11.7255C1.5399 11.7237 0.925862 11.1092 0.925862 10.3556Z" fill="#FFC997"/>
</g>
<defs>
<clipPath id="clip0_2346_956">
<rect width="15" height="15" fill="white"/>
</clipPath>
</defs>
</svg>
