<svg width="19" height="19" viewBox="0 0 19 19" fill="none" xmlns="http://www.w3.org/2000/svg">
<g clip-path="url(#clip0_2346_885)">
<path d="M11.2469 12.1523C11.3476 12.2424 11.4291 12.3517 11.4867 12.4739L11.8389 13.2194C11.981 13.1523 12.1011 13.046 12.1848 12.9129C12.2686 12.7799 12.3126 12.6257 12.3116 12.4685C12.3107 12.3113 12.2648 12.1576 12.1794 12.0256C12.094 11.8936 11.9727 11.7888 11.8297 11.7235L10.7923 11.2493C10.694 11.3267 10.594 11.4019 10.4925 11.475L11.2469 12.1523ZM8.65924 12.5569L5.76097 13.5347C5.32919 13.6803 5.09725 14.1484 5.2428 14.5801C5.29805 14.7437 5.40318 14.8859 5.54341 14.9866C5.68364 15.0874 5.85192 15.1416 6.02459 15.1418C6.11432 15.1417 6.20345 15.1271 6.28846 15.0983L9.90523 13.8782L9.73881 13.526L8.65924 12.5569Z" fill="#FFC997"/>
<path d="M13.5572 17.3047C13.5553 17.2995 13.5543 17.2939 13.5518 17.2886L11.3151 12.5549C11.2682 12.4557 11.202 12.3669 11.1204 12.2935L10.3332 11.5869C9.79994 11.9526 9.27294 12.2172 8.74792 12.3815L9.89416 13.4104L11.8244 17.4955C11.9772 17.8187 12.2314 18.083 12.5485 18.2482L13.9445 18.9754C14.0742 19.043 14.2407 18.9653 14.2556 18.8199C14.2584 18.7932 14.2556 18.7673 14.2447 18.7446L13.5572 17.3047Z" fill="#FFC997"/>
<path d="M6.53616 6.6707C6.37444 6.72367 6.20108 6.77533 6.01477 6.825C5.79249 6.88449 5.61715 6.97104 5.48192 7.07839L5.48043 7.07897C4.32908 7.96464 3.58186 10.0739 3.4043 10.837C5.84785 12.2223 8.09602 13.5712 11.4207 10.3692C11.2861 9.90298 8.89506 9.27383 8.2806 9.11937C8.33924 9.0483 8.39937 8.97848 8.46097 8.90996C8.84959 8.47711 9.34845 8.04327 10.007 7.68633C10.5235 8.32826 11.229 7.77049 11.4021 7.30166C11.435 7.21255 11.3885 6.96551 11.312 6.67516C11.3094 6.34033 11.2696 5.89461 11.7904 5.30738C11.6923 4.88212 11.4494 4.51758 11.104 4.30941C11.1007 4.30669 11.0978 4.30363 11.0945 4.30099L5.90264 0.118522C5.8479 0.0734128 5.78476 0.0396098 5.71686 0.0190705C5.64897 -0.0014688 5.57768 -0.00833645 5.50711 -0.00113484C5.43655 0.00606677 5.36811 0.0271946 5.30577 0.0610254C5.24342 0.0948562 5.18841 0.140718 5.14391 0.195955C5.09941 0.251193 5.06631 0.314709 5.04653 0.382825C5.02674 0.450942 5.02067 0.522307 5.02865 0.592788C5.03664 0.663269 5.05852 0.731466 5.09305 0.79343C5.12757 0.855395 5.17404 0.909896 5.22977 0.953779L9.27147 4.20982L10.4119 4.75422C10.7732 4.92667 10.9268 5.36093 10.7544 5.72232C10.6949 5.84583 10.6018 5.9501 10.4859 6.0232C10.3699 6.0963 10.2357 6.13529 10.0986 6.1357C9.99047 6.13589 9.88365 6.11164 9.78617 6.06474L8.56163 5.48007C8.38234 5.67546 8.15807 5.87695 7.84932 6.07382C7.68099 6.18108 7.48734 6.28703 7.26225 6.38984L6.53616 6.6707ZM11.4938 1.77641C10.1109 1.82427 9.88585 1.36006 9.89839 0.985463C9.91085 0.610864 9.2081 1.53292 10.1273 2.39417C10.816 3.0394 12.2808 2.59896 12.7745 3.01234C12.9589 2.89572 13.1616 2.81093 13.3742 2.76151C13.1689 2.23113 12.6877 1.73507 11.4938 1.77633V1.77641Z" fill="#FFC997"/>
<path d="M15.2087 5.77269C15.8181 5.00551 15.6902 3.8896 14.923 3.28023C14.1558 2.67086 13.0399 2.7988 12.4305 3.56598C11.8211 4.33316 11.9491 5.44907 12.7163 6.05844C13.4834 6.66781 14.5993 6.53988 15.2087 5.77269Z" fill="#FFC997"/>
<path d="M10.0984 5.94605C10.22 5.94604 10.338 5.90468 10.4331 5.82877C10.5281 5.75286 10.5946 5.6469 10.6215 5.52828C10.6484 5.40965 10.6342 5.28539 10.5812 5.17589C10.5282 5.06639 10.4396 4.97815 10.3299 4.92564L4.2505 2.02341C4.1222 1.96257 3.97502 1.95509 3.84122 2.0026C3.70741 2.05012 3.59791 2.14876 3.53673 2.27689C3.47554 2.40502 3.46766 2.55218 3.51481 2.68611C3.56197 2.82004 3.66031 2.92981 3.78827 2.99134L9.86767 5.89366C9.93971 5.92808 10.0185 5.94598 10.0984 5.94605Z" fill="#FFC997"/>
</g>
<defs>
<clipPath id="clip0_2346_885">
<rect width="19" height="19" fill="white"/>
</clipPath>
</defs>
</svg>
