<svg width="16" height="17" viewBox="0 0 16 17" fill="none" xmlns="http://www.w3.org/2000/svg">
<g clip-path="url(#clip0_2346_872)">
<path d="M11.651 11.5301C11.0769 11.6425 10.5056 11.7212 9.94751 11.7731C10.4254 12.2847 10.8502 12.9916 10.9919 13.9468C11.0395 14.2675 10.7917 14.5585 10.4637 14.5585C10.2037 14.5585 9.97608 14.3682 9.93678 14.1034C9.78861 13.1045 9.19388 12.348 8.34821 11.8564C8.18234 11.8585 8.06828 11.8586 7.94264 11.8578C7.63128 12.1463 7.19988 12.6298 6.96554 13.2626C6.86324 13.5388 6.55631 13.6798 6.28018 13.5775C6.00394 13.4752 5.86294 13.1684 5.96524 12.8921C6.11948 12.4756 6.33408 12.1126 6.56038 11.8068C5.62771 11.7443 4.85581 11.6365 4.34094 11.5501C3.99034 12.4232 3.34214 14.1886 3.20501 15.615C3.17394 15.938 3.43014 16.2167 3.75441 16.2167H5.81671C6.23984 16.2167 6.41788 16.0652 7.52441 15.4748C7.66991 15.3971 7.83278 15.3578 7.99768 15.3605C8.16258 15.3632 8.32407 15.4079 8.46694 15.4902C9.50234 16.0872 9.63824 16.2167 10.0665 16.2167H12.2455C12.5698 16.2167 12.826 15.938 12.7949 15.615C12.6568 14.1778 11.9996 12.3961 11.651 11.5301ZM8.00001 4.94435C8.77204 2.86005 10.0278 1.58348 10.0968 1.51441C10.1026 1.50865 10.1088 1.50365 10.1148 1.49818L9.95238 1.32045C9.79777 1.15125 9.60962 1.01611 9.3999 0.923658C9.19018 0.831201 8.9635 0.78345 8.73431 0.783447H7.26571C6.80238 0.783447 6.36038 0.978314 6.04768 1.32045L5.88528 1.49818C6.41271 1.98098 7.42568 3.39371 8.00001 4.94435Z" fill="#FFC997"/>
<path d="M15.9703 9.53735C15.4361 8.15875 13.6891 3.72582 13.117 3.21362C12.6556 2.80045 11.5998 2.33782 10.9712 2.08398C10.9446 2.15308 10.9038 2.21582 10.8514 2.26818C10.8325 2.28725 8.89007 4.27522 8.52944 7.23798C8.49684 7.50565 8.26964 7.70688 8.00001 7.70688C7.73038 7.70688 7.50318 7.50565 7.47058 7.23798C7.10808 4.25978 5.16814 2.28775 5.14858 2.26818C5.09622 2.21582 5.05543 2.15308 5.02881 2.08398C4.40024 2.33782 3.34441 2.80045 2.88297 3.21362C2.31087 3.72582 0.563875 8.15875 0.0296746 9.53735C-0.0575254 9.76242 0.0539746 10.0154 0.278708 10.103L1.59091 10.6147C1.80774 10.6993 2.05274 10.5991 2.14834 10.3868L3.50251 7.37942C3.53924 7.29785 3.65824 7.30872 3.67961 7.39562L4.43834 10.4823C5.07281 10.5895 6.20377 10.7456 7.56524 10.7798C7.89604 10.5253 8.00911 10.4893 8.60018 10.7804C9.54411 10.7573 10.5571 10.6655 11.5674 10.4588L12.3203 7.39565C12.3417 7.30878 12.4607 7.29788 12.4974 7.37945L13.8516 10.3868C13.9472 10.5991 14.1922 10.6993 14.409 10.6147L15.7212 10.1031C15.946 10.0154 16.0575 9.76242 15.9703 9.53735Z" fill="#FFC997"/>
</g>
<defs>
<clipPath id="clip0_2346_872">
<rect width="16" height="16" fill="white" transform="translate(0 0.5)"/>
</clipPath>
</defs>
</svg>
