<svg width="7" height="11" viewBox="0 0 7 11" fill="none" xmlns="http://www.w3.org/2000/svg">
<path fill-rule="evenodd" clip-rule="evenodd" d="M1.18752 0.443695C1.11088 0.231172 1.25198 0 1.45831 0H5.54167C5.748 0 5.8891 0.231172 5.81248 0.443695L5.34296 1.74571C5.56714 1.84607 5.79123 1.97671 6.00192 2.14225C6.62051 2.62827 7 3.31233 7 4.20589C7 4.88604 6.86258 5.70679 6.61207 6.64198C6.45594 7.22481 6.25921 7.839 6.03122 8.47127C5.8215 9.05285 5.59698 9.618 5.37242 10.1449C5.3015 10.3116 5.22902 10.4774 5.15499 10.6423C5.13473 10.6875 5.11428 10.7325 5.09365 10.7774C5.08626 10.7936 5.0788 10.8097 5.07128 10.8257C5.04665 10.8783 5.0095 10.9223 4.96387 10.953C4.91825 10.9837 4.86589 11 4.81252 11H2.18748C2.1341 11 2.08175 10.9837 2.03613 10.953C1.9905 10.9223 1.95335 10.8783 1.92872 10.8257C1.92465 10.8171 1.91712 10.8009 1.90635 10.7774C1.88572 10.7325 1.86527 10.6875 1.84501 10.6423C1.77098 10.4774 1.69849 10.3116 1.62758 10.1449C1.40302 9.61802 1.1785 9.05285 0.968775 8.47127C0.740769 7.839 0.544062 7.22481 0.387932 6.64198C0.13742 5.70679 0 4.88604 0 4.20589C0 3.31233 0.379488 2.62827 0.99808 2.14225C1.20877 1.97671 1.43286 1.84607 1.65704 1.74571L1.18752 0.443695Z" fill="#FFC997"/>
</svg>
