<svg width="14" height="11" viewBox="0 0 14 11" fill="none" xmlns="http://www.w3.org/2000/svg">
<path d="M13.6841 4.20091C13.5853 3.99833 13.4753 3.80059 13.3546 3.60846L11.7995 7.52146C11.7401 7.66762 11.6538 7.80315 11.5446 7.92207C11.962 7.8838 12.3642 7.75673 12.7199 7.55078C13.0757 7.34483 13.3752 7.06556 13.5952 6.73475C13.8152 6.40394 13.9498 6.03052 13.9884 5.64361C14.0271 5.25671 13.9687 4.86677 13.8178 4.50419C13.7766 4.40186 13.732 4.30072 13.6841 4.20091ZM4.75853 0.674416C3.85117 0.973682 3.01832 1.43944 2.30981 2.04382C1.60131 2.64819 1.03172 3.37877 0.635142 4.19181C0.23856 5.00485 0.0231364 5.88364 0.0017633 6.7756C-0.0196099 7.66756 0.153507 8.55435 0.510753 9.38289C0.520194 9.40066 0.52659 9.41815 0.536032 9.43593C0.725871 9.85587 1.03495 10.2203 1.43044 10.4907C1.82593 10.761 2.29307 10.927 2.78225 10.9712C3.27143 11.0153 3.76438 10.9359 4.20876 10.7414C4.65314 10.5469 5.03236 10.2445 5.30614 9.86644C5.87857 9.06729 6.70067 8.44899 7.66257 8.09417C7.69303 8.08288 7.72348 8.07442 7.75394 8.06398C7.86229 7.83262 8.02345 7.62575 8.22634 7.45758C8.42923 7.28942 8.66903 7.16396 8.92926 7.08982C8.92331 6.87739 8.97031 6.66654 9.06662 6.47367L11.4727 1.64745C10.5276 0.983716 9.41965 0.547416 8.24792 0.377606C7.07619 0.207796 5.87728 0.309776 4.75853 0.674416ZM2.89154 8.03774C2.65059 8.03774 2.41506 7.97156 2.21471 7.84756C2.01437 7.72356 1.85822 7.54732 1.76602 7.34111C1.67381 7.13491 1.64968 6.90801 1.69669 6.68911C1.7437 6.4702 1.85972 6.26913 2.0301 6.11131C2.20048 5.95349 2.41755 5.84601 2.65387 5.80247C2.89019 5.75892 3.13515 5.78127 3.35775 5.86668C3.58036 5.9521 3.77063 6.09674 3.90449 6.28231C4.03836 6.46789 4.10981 6.68607 4.10981 6.90926C4.10981 7.20855 3.98146 7.49559 3.75299 7.70722C3.52452 7.91885 3.21465 8.03774 2.89154 8.03774ZM4.41437 4.79337C4.17342 4.79337 3.93789 4.72718 3.73754 4.60318C3.5372 4.47918 3.38105 4.30294 3.28885 4.09674C3.19664 3.89053 3.17251 3.66363 3.21952 3.44473C3.26653 3.22583 3.38255 3.02475 3.55293 2.86693C3.72331 2.70911 3.94038 2.60163 4.1767 2.55809C4.41302 2.51455 4.65798 2.5369 4.88058 2.62231C5.10319 2.70772 5.29346 2.85236 5.42732 3.03794C5.56119 3.22351 5.63264 3.44169 5.63264 3.66489C5.63264 3.96418 5.50429 4.25121 5.27582 4.46284C5.04735 4.67447 4.73748 4.79337 4.41437 4.79337ZM8.06917 3.80595C7.82822 3.80595 7.59268 3.73976 7.39233 3.61576C7.19199 3.49176 7.03584 3.31552 6.94364 3.10932C6.85143 2.90311 6.8273 2.67622 6.87431 2.45731C6.92132 2.23841 7.03735 2.03733 7.20772 1.87951C7.3781 1.72169 7.59517 1.61421 7.83149 1.57067C8.06781 1.52713 8.31277 1.54948 8.53537 1.63489C8.75798 1.7203 8.94825 1.86494 9.08212 2.05052C9.21598 2.23609 9.28743 2.45427 9.28743 2.67747C9.28743 2.97676 9.15908 3.26379 8.93061 3.47542C8.70214 3.68705 8.39227 3.80595 8.06917 3.80595ZM13.5447 0.0399291C13.4095 -0.0119163 13.2579 -0.0133236 13.1217 0.0360018C12.9854 0.0853272 12.8751 0.181561 12.8137 0.304558L9.62063 6.71009C9.54723 6.85746 9.52351 7.02191 9.55258 7.18196C9.58165 7.34201 9.66215 7.49022 9.78357 7.60723C9.48674 7.54274 9.17484 7.57799 8.90347 7.7067C8.63209 7.83541 8.41888 8.04921 8.30185 8.30999C7.80876 9.41308 8.58876 9.89691 8.09536 11C8.6578 10.9417 9.19356 10.7465 9.64824 10.4344C10.1029 10.1222 10.4603 9.70415 10.6842 9.22265C10.7895 8.9855 10.8093 8.72321 10.7407 8.4748C10.6721 8.22638 10.5187 8.00512 10.3035 7.84393C10.4982 7.86718 10.6957 7.82859 10.8637 7.73446C11.0317 7.64033 11.1603 7.49623 11.2284 7.32567L13.8599 0.704039C13.9098 0.577042 13.9048 0.437112 13.8461 0.313397C13.7874 0.189683 13.6794 0.0917251 13.5447 0.0399291Z" fill="#FFC997"/>
</svg>
