<svg width="13" height="13" viewBox="0 0 13 13" fill="none" xmlns="http://www.w3.org/2000/svg">
<path d="M11.1519 4.12582C10.0688 3.27513 9.002 2.42525 7.92299 1.57456C7.45499 1.21462 7.22749 0.757178 7.32255 0.165675C7.3388 0.0186115 7.25674 -0.0309513 7.09505 0.0186115C6.72292 0.132362 6.41579 0.346051 6.23785 0.68974C5.9941 1.18049 5.60816 1.36087 5.12066 1.34462C4.39184 1.31131 3.94009 1.70537 3.55171 2.26275C3.12921 2.85425 2.92202 3.54163 2.76033 4.22982C2.5824 4.96758 2.49952 5.70614 2.47027 6.4569C2.43696 7.03134 2.45402 7.58872 2.43696 8.15991V9.74998H9.58781V8.6011C9.58781 8.6011 9.6455 8.11766 9.288 7.76341C8.9305 7.40915 8.55106 7.07765 8.55106 7.07765C8.36804 6.92813 8.20258 6.75831 8.05787 6.57146L6.73917 4.8652C6.82123 4.93183 6.90086 4.9952 6.98292 5.06183C7.38836 5.37221 7.82386 5.50302 8.32437 5.37221C8.61443 5.30558 8.90774 5.33889 9.16531 5.50221C9.30912 5.59808 9.46837 5.68096 9.62844 5.76383C10.0046 5.95883 10.4678 5.86946 10.7383 5.54446C10.9049 5.34458 11.0714 5.1447 11.238 4.94808C11.4501 4.69701 11.4111 4.32895 11.1519 4.12582ZM10.5198 12.4126L9.70725 10.7867C9.67341 10.7194 9.62154 10.6628 9.55741 10.6232C9.49328 10.5836 9.41942 10.5626 9.34406 10.5625H2.84402C2.76866 10.5626 2.6948 10.5836 2.63067 10.6232C2.56655 10.6628 2.51467 10.7194 2.48083 10.7867L1.66833 12.4117C1.6373 12.4736 1.62265 12.5424 1.62578 12.6115C1.62891 12.6806 1.64971 12.7478 1.6862 12.8066C1.76014 12.9261 1.89095 13 2.03152 13H10.1566C10.2971 13 10.4279 12.9269 10.5027 12.8074C10.5391 12.7486 10.5598 12.6814 10.5627 12.6122C10.5657 12.5431 10.5509 12.4743 10.5198 12.4126Z" fill="#FFC997"/>
</svg>
