<svg width="13" height="13" viewBox="0 0 13 13" fill="none" xmlns="http://www.w3.org/2000/svg">
<path d="M0.403959 12.9282L1.79621 11.5359C2.03649 11.743 2.30801 11.9107 2.60071 12.0329C2.68528 12.0678 2.7841 12.0502 2.8516 11.9865L8.25303 6.88739C8.29422 6.9054 8.33525 6.92404 8.37722 6.9408C8.41551 6.95607 8.45714 6.961 8.49794 6.95509C8.53873 6.94918 8.57725 6.93264 8.60963 6.90713L10.0232 5.79346C10.4167 5.80482 10.8085 5.73571 11.1744 5.59038C11.5403 5.44504 11.8727 5.22653 12.1512 4.94823C13.2824 3.81718 13.283 1.97747 12.1527 0.847209C11.0225 -0.283055 9.18298 -0.282272 8.05179 0.848775C7.4891 1.41132 7.18778 2.18075 7.20877 2.97399L6.09293 4.39023C6.06742 4.42261 6.05088 4.46113 6.04497 4.50192C6.03906 4.54272 6.04399 4.58435 6.05926 4.62264C6.07601 4.66445 6.09449 4.70548 6.1125 4.74667L1.01332 10.1485C0.982248 10.1814 0.961341 10.2226 0.953118 10.2671C0.944894 10.3116 0.949703 10.3576 0.966968 10.3994C1.0889 10.6922 1.25664 10.9638 1.46389 11.2039L0.0716354 12.5962C0.0492093 12.6179 0.0313255 12.6438 0.0190277 12.6725C0.00672982 12.7011 0.000264167 12.732 7.92712e-06 12.7632C-0.000248313 12.7943 0.00570994 12.8253 0.0175352 12.8541C0.0293604 12.883 0.0468158 12.9092 0.0688827 12.9313C0.0909496 12.9533 0.117186 12.9707 0.146062 12.9825C0.174937 12.9943 0.205873 13.0003 0.237064 13C0.268256 12.9997 0.299078 12.9932 0.327732 12.9809C0.356387 12.9686 0.3823 12.9507 0.403959 12.9282Z" fill="#FFC997"/>
</svg>
