<svg width="15" height="15" viewBox="0 0 15 15" fill="none" xmlns="http://www.w3.org/2000/svg">
<g clip-path="url(#clip0_2346_952)">
<path fill-rule="evenodd" clip-rule="evenodd" d="M0.767965 7.86493C0.799957 8.35711 0.853775 8.74635 0.98942 9.24844C1.02622 9.38461 1.14551 9.47599 1.28661 9.47599H3.17781C3.22096 9.47616 3.26367 9.46722 3.30314 9.44976C3.3426 9.4323 3.37794 9.4067 3.40684 9.37465C3.43573 9.3426 3.45754 9.30481 3.47084 9.26375C3.48413 9.22269 3.48862 9.17929 3.48399 9.13638C3.37234 8.06063 3.36036 6.94181 3.4493 5.85666C3.45296 5.81422 3.44773 5.77148 3.43396 5.73118C3.42018 5.69087 3.39816 5.65388 3.3693 5.62255C3.34043 5.59123 3.30536 5.56626 3.26631 5.54924C3.22727 5.53222 3.1851 5.52352 3.14251 5.5237H1.28664C1.14557 5.5237 1.02625 5.61507 0.989449 5.75128C0.896608 6.09407 0.831621 6.4438 0.795123 6.79706C0.762076 7.11783 0.758384 7.3261 0.760113 7.64283L0.767965 7.86493ZM3.65169 4.28491C3.77611 3.58758 3.94307 2.92008 4.14885 2.29679C4.24085 2.01812 3.92324 1.78026 3.68171 1.94693C2.87605 2.50281 2.19642 3.22937 1.69615 4.07394C1.57424 4.27972 1.72184 4.53868 1.96102 4.53868H3.34864C3.49914 4.53868 3.62526 4.43306 3.65169 4.28491ZM10.3261 4.171C10.0979 3.01952 9.74502 1.97028 9.28492 1.1021C9.24217 1.02144 9.17412 0.968561 9.08538 0.947057C8.04607 0.69528 6.95356 0.695485 5.91499 0.947057C5.82625 0.968561 5.75822 1.02141 5.71545 1.1021C5.25537 1.97031 4.90246 3.01952 4.67426 4.171C4.66523 4.21565 4.66626 4.26176 4.67727 4.30596C4.68827 4.35017 4.70898 4.39137 4.7379 4.42658C4.76681 4.46178 4.8032 4.49011 4.84442 4.5095C4.88565 4.52889 4.93067 4.53886 4.97623 4.53868H10.0242C10.2192 4.53868 10.364 4.36231 10.3261 4.171ZM11.6517 4.53868H13.0394C13.2786 4.53868 13.4261 4.27975 13.3043 4.07397C12.804 3.22925 12.1243 2.50249 11.3186 1.94672C11.077 1.78011 10.7595 2.01797 10.8515 2.29662C11.0572 2.91997 11.2242 3.58753 11.3487 4.28494C11.3751 4.43306 11.5013 4.53868 11.6517 4.53868ZM11.8226 9.47602H13.7138C13.8549 9.47602 13.9742 9.38467 14.011 9.24847C14.1038 8.90567 14.1688 8.55593 14.2053 8.20266C14.2411 7.85224 14.2402 7.69178 14.2402 7.34339C14.2402 7.20379 14.2177 6.91729 14.2053 6.79706C14.1688 6.4438 14.1038 6.09407 14.0109 5.75128C13.9742 5.61507 13.8548 5.5237 13.7138 5.5237H11.8579C11.8153 5.52352 11.7732 5.53222 11.7341 5.54924C11.6951 5.56626 11.66 5.59123 11.6311 5.62255C11.6023 5.65388 11.5802 5.69087 11.5665 5.73118C11.5527 5.77148 11.5475 5.81422 11.5511 5.85666C11.6401 6.94184 11.6281 8.0606 11.5164 9.13638C11.5118 9.17929 11.5163 9.2227 11.5296 9.26376C11.5429 9.30482 11.5647 9.34261 11.5936 9.37467C11.6225 9.40673 11.6578 9.43232 11.6973 9.44979C11.7367 9.46725 11.7795 9.47619 11.8226 9.47602ZM11.2772 10.707C11.1299 11.4243 10.9291 12.1421 10.6735 12.8114C10.5677 13.0883 10.8776 13.3403 11.1271 13.1804C12.0186 12.6088 12.7641 11.8367 13.3041 10.9258C13.426 10.72 13.2784 10.461 13.0392 10.461H11.5787C11.431 10.461 11.3069 10.5623 11.2772 10.707ZM4.32686 12.8113C4.07128 12.1419 3.87047 11.4244 3.72323 10.707C3.69352 10.5623 3.56939 10.461 3.4217 10.461H1.9612C1.72199 10.461 1.57442 10.72 1.69635 10.9258C2.23642 11.8366 2.98185 12.6086 3.8732 13.1803C4.12269 13.3402 4.43259 13.0881 4.32686 12.8113ZM9.93824 10.461H5.06218C5.01587 10.4609 4.97011 10.4712 4.92834 10.4912C4.88658 10.5112 4.84988 10.5404 4.82101 10.5766C4.79214 10.6129 4.77185 10.6551 4.76164 10.7003C4.75144 10.7455 4.75159 10.7924 4.7621 10.8375C5.03898 12.0479 5.45585 13.128 5.9867 13.9745C6.03343 14.049 6.10137 14.0958 6.18768 14.1129C7.05417 14.2845 7.94549 14.2847 8.81271 14.1129C8.89902 14.0958 8.96693 14.049 9.01369 13.9745C9.54455 13.128 9.96144 12.0481 10.2383 10.8375C10.2488 10.7924 10.249 10.7455 10.2388 10.7003C10.2286 10.6551 10.2083 10.6129 10.1794 10.5766C10.1505 10.5404 10.1138 10.5112 10.0721 10.4912C10.0303 10.4712 9.98455 10.4609 9.93824 10.461ZM4.37558 7.30246C4.37558 7.94837 4.41361 8.58557 4.48489 9.20347C4.49331 9.2786 4.52919 9.34797 4.58563 9.39827C4.64206 9.44858 4.71509 9.47626 4.79069 9.47602H10.2097C10.3669 9.47602 10.4975 9.35957 10.5155 9.20347C10.6454 8.07467 10.6596 6.93555 10.5578 5.80386C10.5511 5.72726 10.5158 5.65597 10.4591 5.60409C10.4023 5.55222 10.3281 5.52354 10.2512 5.52373H4.74918C4.67227 5.52354 4.5981 5.55222 4.54133 5.60409C4.48456 5.65597 4.44932 5.72726 4.44258 5.80386C4.39781 6.30214 4.37546 6.80217 4.37558 7.30246Z" fill="#FFC997"/>
</g>
<defs>
<clipPath id="clip0_2346_952">
<rect width="15" height="15" fill="white"/>
</clipPath>
</defs>
</svg>
